<svg width="11" height="14" viewBox="0 0 11 14" fill="none" xmlns="http://www.w3.org/2000/svg">
<path fill-rule="evenodd" clip-rule="evenodd" d="M5.81659 0H9.64988C10.0996 0.000916655 10.464 0.365245 10.4649 0.81499V13.2015C10.465 13.4132 10.3825 13.6165 10.2349 13.7682C10.0802 13.9197 9.87138 14.003 9.65488 13.9998H1.76998C0.796448 13.998 0.00641659 13.2117 0 12.2382V1.76164C0.00641659 0.788115 0.796448 0.00179164 1.76998 0H5.81659ZM8.11157 0.666658H6.15326V3.78829L6.84491 2.68497C6.93962 2.52709 7.14437 2.47593 7.30224 2.57063C7.34916 2.59876 7.38841 2.63805 7.41657 2.68497L8.11157 3.79329V0.666658ZM0.674992 1.76164C0.677742 1.15803 1.16636 0.669408 1.76998 0.666658H5.4866V4.06662C5.47406 4.33724 5.64397 4.58286 5.90159 4.66661C6.19492 4.75494 6.45825 4.56494 6.61492 4.31495L7.13324 3.48162L7.65157 4.31495C7.80657 4.56161 8.0699 4.75161 8.37156 4.66661C8.62798 4.58319 8.79756 4.33936 8.78656 4.06995V0.674992H9.65488C9.73184 0.675908 9.79396 0.738033 9.79488 0.81499V10.4813C9.74863 10.4735 9.7018 10.4696 9.65488 10.4699H1.76998C1.37236 10.4697 0.986404 10.6043 0.674992 10.8515V1.76164ZM2.10997 11.9165L9.79488 11.9082V11.2832C9.79396 11.2062 9.73184 11.1441 9.65488 11.1432H1.76998C1.16478 11.1432 0.674158 11.6338 0.674158 12.239C0.674158 12.8442 1.16478 13.3348 1.76998 13.3348H9.65488C9.69217 13.3352 9.72813 13.3208 9.75488 13.2948C9.78088 13.2681 9.79521 13.2321 9.79488 13.1948V12.5748L2.10997 12.5832C1.92589 12.5832 1.77664 12.4339 1.77664 12.2498C1.77664 12.0658 1.92589 11.9165 2.10997 11.9165Z" fill="black"/>
</svg>
