<svg width="23" height="24" viewBox="0 0 23 24" fill="none" xmlns="http://www.w3.org/2000/svg">
<path fill-rule="evenodd" clip-rule="evenodd" d="M8.80361 1H2.95097C1.73941 1.00137 0.757596 1.98554 0.756226 3.2V9.06667C0.757596 10.2811 1.73941 11.2653 2.95097 11.2667H8.80361C10.0152 11.2653 10.997 10.2811 10.9984 9.06667V3.2C10.997 1.98554 10.0152 1.00137 8.80361 1ZM9.53519 9.06667C9.53438 9.47134 9.20732 9.79919 8.80361 9.8H2.95097C2.54726 9.79919 2.22019 9.47134 2.21939 9.06667V3.2C2.22019 2.79533 2.54726 2.46747 2.95097 2.46667H8.80361C9.20732 2.46747 9.53438 2.79533 9.53519 3.2V9.06667ZM20.5089 1H14.6563C13.4447 1.00137 12.4629 1.98554 12.4615 3.2V9.06667C12.4629 10.2811 13.4447 11.2653 14.6563 11.2667H20.5089C21.7204 11.2653 22.7023 10.2811 22.7036 9.06667V3.2C22.7023 1.98554 21.7204 1.00137 20.5089 1ZM21.2405 9.06667C21.2397 9.47134 20.9126 9.79919 20.5089 9.8H14.6563C14.2525 9.79919 13.9255 9.47134 13.9247 9.06667V3.2C13.9255 2.79533 14.2525 2.46747 14.6563 2.46667H20.5089C20.9126 2.46747 21.2397 2.79533 21.2405 3.2V9.06667ZM2.95097 12.7333H8.80361C10.0152 12.7347 10.997 13.7189 10.9984 14.9333V20.8C10.997 22.0145 10.0152 22.9986 8.80361 23H2.95097C1.73941 22.9986 0.757596 22.0145 0.756226 20.8V14.9333C0.757596 13.7189 1.73941 12.7347 2.95097 12.7333ZM8.80361 21.5333C9.20732 21.5325 9.53438 21.2047 9.53519 20.8V14.9333C9.53438 14.5287 9.20732 14.2008 8.80361 14.2H2.95097C2.54726 14.2008 2.22019 14.5287 2.21939 14.9333V20.8C2.22019 21.2047 2.54726 21.5325 2.95097 21.5333H8.80361ZM20.4211 19.6749C21.7544 17.7993 21.4309 15.2124 19.6771 13.7247C17.9232 12.237 15.3245 12.3452 13.6998 13.9736C12.075 15.602 11.9667 18.2069 13.4506 19.9652C14.9345 21.7235 17.5152 22.0481 19.3865 20.7119L21.4547 22.7851C21.7417 23.063 22.198 23.0591 22.4802 22.7762C22.7624 22.4933 22.7664 22.0359 22.4891 21.7482L20.4211 19.6749ZM13.9247 17.1333C13.9247 15.5133 15.2348 14.2 16.851 14.2C18.4672 14.2 19.7773 15.5133 19.7773 17.1333C19.7773 18.7534 18.4672 20.0667 16.851 20.0667C15.2357 20.0645 13.9268 18.7525 13.9247 17.1333Z" fill="#ADADAD"/>
<path d="M2.95097 1V0.75L2.95068 0.75L2.95097 1ZM8.80361 1L8.80389 0.75H8.80361V1ZM0.756226 3.2L0.506226 3.19972V3.2H0.756226ZM0.756226 9.06667H0.506225L0.506226 9.06695L0.756226 9.06667ZM2.95097 11.2667L2.95068 11.5167H2.95097V11.2667ZM8.80361 11.2667V11.5167H8.80389L8.80361 11.2667ZM10.9984 9.06667L11.2484 9.06695V9.06667H10.9984ZM10.9984 3.2H11.2484V3.19972L10.9984 3.2ZM8.80361 9.8V10.05L8.80411 10.05L8.80361 9.8ZM9.53519 9.06667L9.78519 9.06716V9.06667H9.53519ZM2.95097 9.8L2.95047 10.05H2.95097V9.8ZM2.21939 9.06667H1.96939L1.96939 9.06716L2.21939 9.06667ZM2.21939 3.2L1.96939 3.1995V3.2H2.21939ZM2.95097 2.46667V2.21667L2.95047 2.21667L2.95097 2.46667ZM8.80361 2.46667L8.80411 2.21667H8.80361V2.46667ZM9.53519 3.2H9.78519L9.78519 3.1995L9.53519 3.2ZM14.6563 1V0.75L14.656 0.75L14.6563 1ZM20.5089 1L20.5092 0.75H20.5089V1ZM12.4615 3.2L12.2115 3.19972V3.2H12.4615ZM12.4615 9.06667H12.2115V9.06695L12.4615 9.06667ZM14.6563 11.2667L14.656 11.5167H14.6563V11.2667ZM20.5089 11.2667V11.5167H20.5092L20.5089 11.2667ZM22.7036 9.06667L22.9536 9.06695V9.06667H22.7036ZM22.7036 3.2H22.9536V3.19972L22.7036 3.2ZM20.5089 9.8V10.05L20.5094 10.05L20.5089 9.8ZM21.2405 9.06667L21.4905 9.06716V9.06667H21.2405ZM14.6563 9.8L14.6558 10.05H14.6563V9.8ZM13.9247 9.06667H13.6747L13.6747 9.06716L13.9247 9.06667ZM13.9247 3.2L13.6747 3.1995V3.2H13.9247ZM14.6563 2.46667V2.21667L14.6558 2.21667L14.6563 2.46667ZM20.5089 2.46667L20.5094 2.21667H20.5089V2.46667ZM21.2405 3.2H21.4905V3.1995L21.2405 3.2ZM8.80361 12.7333L8.80389 12.4833H8.80361V12.7333ZM2.95097 12.7333V12.4833H2.95068L2.95097 12.7333ZM10.9984 14.9333H11.2484V14.9331L10.9984 14.9333ZM10.9984 20.8L11.2484 20.8003V20.8H10.9984ZM8.80361 23V23.25H8.80389L8.80361 23ZM2.95097 23L2.95068 23.25H2.95097V23ZM0.756226 20.8H0.506225L0.506226 20.8003L0.756226 20.8ZM0.756226 14.9333L0.506226 14.9331V14.9333H0.756226ZM9.53519 20.8L9.78519 20.8005V20.8H9.53519ZM8.80361 21.5333V21.7833H8.80411L8.80361 21.5333ZM9.53519 14.9333H9.78519L9.78519 14.9328L9.53519 14.9333ZM8.80361 14.2L8.80411 13.95H8.80361V14.2ZM2.95097 14.2V13.95L2.95047 13.95L2.95097 14.2ZM2.21939 14.9333L1.96939 14.9328V14.9333H2.21939ZM2.21939 20.8H1.96939L1.96939 20.8005L2.21939 20.8ZM2.95097 21.5333L2.95047 21.7833H2.95097V21.5333ZM19.6771 13.7247L19.5153 13.9154L19.6771 13.7247ZM20.4211 19.6749L20.2173 19.5301L20.0951 19.7021L20.2441 19.8515L20.4211 19.6749ZM13.6998 13.9736L13.8767 14.1502L13.6998 13.9736ZM13.4506 19.9652L13.6417 19.8039L13.4506 19.9652ZM19.3865 20.7119L19.5635 20.5353L19.4138 20.3852L19.2412 20.5084L19.3865 20.7119ZM21.4547 22.7851L21.2777 22.9617L21.2808 22.9647L21.4547 22.7851ZM22.4802 22.7762L22.6572 22.9528L22.4802 22.7762ZM22.4891 21.7482L22.6692 21.5747L22.6661 21.5716L22.4891 21.7482ZM13.9247 17.1333H13.6747V17.1337L13.9247 17.1333ZM16.851 20.0667L16.8507 20.3167H16.851V20.0667ZM2.95097 1.25H8.80361V0.75H2.95097V1.25ZM1.00623 3.20028C1.00744 2.12311 1.87811 1.25122 2.95125 1.25L2.95068 0.75C1.60072 0.751531 0.507751 1.84797 0.506226 3.19972L1.00623 3.20028ZM1.00623 9.06667V3.2H0.506226V9.06667H1.00623ZM2.95125 11.0167C1.87811 11.0154 1.00744 10.1436 1.00623 9.06638L0.506226 9.06695C0.507751 10.4187 1.60072 11.5151 2.95068 11.5167L2.95125 11.0167ZM8.80361 11.0167H2.95097V11.5167H8.80361V11.0167ZM10.7484 9.06638C10.7471 10.1436 9.87647 11.0154 8.80333 11.0167L8.80389 11.5167C10.1539 11.5151 11.2468 10.4187 11.2484 9.06695L10.7484 9.06638ZM10.7484 3.2V9.06667H11.2484V3.2H10.7484ZM8.80333 1.25C9.87647 1.25122 10.7471 2.12311 10.7484 3.20028L11.2484 3.19972C11.2468 1.84797 10.1539 0.751531 8.80389 0.75L8.80333 1.25ZM8.80411 10.05C9.34606 10.0489 9.78411 9.60896 9.78519 9.06716L9.28519 9.06617C9.28466 9.33372 9.06857 9.54947 8.80311 9.55L8.80411 10.05ZM2.95097 10.05H8.80361V9.55H2.95097V10.05ZM1.96939 9.06716C1.97046 9.60896 2.40852 10.0489 2.95047 10.05L2.95147 9.55C2.686 9.54947 2.46992 9.33372 2.46939 9.06617L1.96939 9.06716ZM1.96939 3.2V9.06667H2.46939V3.2H1.96939ZM2.95047 2.21667C2.40852 2.21775 1.97046 2.65771 1.96939 3.1995L2.46939 3.2005C2.46992 2.93294 2.686 2.7172 2.95147 2.71667L2.95047 2.21667ZM8.80361 2.21667H2.95097V2.71667H8.80361V2.21667ZM9.78519 3.1995C9.78411 2.65771 9.34606 2.21775 8.80411 2.21667L8.80311 2.71667C9.06857 2.7172 9.28466 2.93294 9.28519 3.2005L9.78519 3.1995ZM9.78519 9.06667V3.2H9.28519V9.06667H9.78519ZM14.6563 1.25H20.5089V0.75H14.6563V1.25ZM12.7115 3.20028C12.7127 2.12311 13.5834 1.25122 14.6565 1.25L14.656 0.75C13.306 0.751531 12.213 1.84797 12.2115 3.19972L12.7115 3.20028ZM12.7115 9.06667V3.2H12.2115V9.06667H12.7115ZM14.6565 11.0167C13.5834 11.0154 12.7127 10.1436 12.7115 9.06638L12.2115 9.06695C12.213 10.4187 13.306 11.5151 14.656 11.5167L14.6565 11.0167ZM20.5089 11.0167H14.6563V11.5167H20.5089V11.0167ZM22.4536 9.06638C22.4524 10.1436 21.5818 11.0154 20.5086 11.0167L20.5092 11.5167C21.8591 11.5151 22.9521 10.4187 22.9536 9.06695L22.4536 9.06638ZM22.4536 3.2V9.06667H22.9536V3.2H22.4536ZM20.5086 1.25C21.5818 1.25122 22.4524 2.12311 22.4536 3.20028L22.9536 3.19972C22.9521 1.84797 21.8591 0.751531 20.5092 0.75L20.5086 1.25ZM20.5094 10.05C21.0513 10.0489 21.4894 9.60896 21.4905 9.06716L20.9905 9.06617C20.9899 9.33372 20.7739 9.54947 20.5084 9.55L20.5094 10.05ZM14.6563 10.05H20.5089V9.55H14.6563V10.05ZM13.6747 9.06716C13.6757 9.60896 14.1138 10.0489 14.6558 10.05L14.6568 9.55C14.3913 9.54947 14.1752 9.33372 14.1747 9.06617L13.6747 9.06716ZM13.6747 3.2V9.06667H14.1747V3.2H13.6747ZM14.6558 2.21667C14.1138 2.21775 13.6757 2.65771 13.6747 3.1995L14.1747 3.2005C14.1752 2.93294 14.3913 2.7172 14.6568 2.71667L14.6558 2.21667ZM20.5089 2.21667H14.6563V2.71667H20.5089V2.21667ZM21.4905 3.1995C21.4894 2.65771 21.0513 2.21775 20.5094 2.21667L20.5084 2.71667C20.7739 2.7172 20.9899 2.93294 20.9905 3.2005L21.4905 3.1995ZM21.4905 9.06667V3.2H20.9905V9.06667H21.4905ZM8.80361 12.4833H2.95097V12.9833H8.80361V12.4833ZM11.2484 14.9331C11.2468 13.5813 10.1539 12.4849 8.80389 12.4833L8.80333 12.9833C9.87647 12.9846 10.7471 13.8564 10.7484 14.9336L11.2484 14.9331ZM11.2484 20.8V14.9333H10.7484V20.8H11.2484ZM8.80389 23.25C10.1539 23.2485 11.2468 22.152 11.2484 20.8003L10.7484 20.7997C10.7471 21.8769 9.87647 22.7488 8.80333 22.75L8.80389 23.25ZM2.95097 23.25H8.80361V22.75H2.95097V23.25ZM0.506226 20.8003C0.507751 22.152 1.60072 23.2485 2.95068 23.25L2.95125 22.75C1.87811 22.7488 1.00744 21.8769 1.00623 20.7997L0.506226 20.8003ZM0.506226 14.9333V20.8H1.00623V14.9333H0.506226ZM2.95068 12.4833C1.60072 12.4849 0.507751 13.5813 0.506226 14.9331L1.00623 14.9336C1.00744 13.8564 1.87811 12.9846 2.95125 12.9833L2.95068 12.4833ZM9.28519 20.7995C9.28466 21.0671 9.06857 21.2828 8.80311 21.2833L8.80411 21.7833C9.34606 21.7823 9.78411 21.3423 9.78519 20.8005L9.28519 20.7995ZM9.28519 14.9333V20.8H9.78519V14.9333H9.28519ZM8.80311 14.45C9.06857 14.4505 9.28466 14.6663 9.28519 14.9338L9.78519 14.9328C9.78411 14.391 9.34606 13.9511 8.80411 13.95L8.80311 14.45ZM2.95097 14.45H8.80361V13.95H2.95097V14.45ZM2.46939 14.9338C2.46992 14.6663 2.686 14.4505 2.95147 14.45L2.95047 13.95C2.40852 13.9511 1.97046 14.391 1.96939 14.9328L2.46939 14.9338ZM2.46939 20.8V14.9333H1.96939V20.8H2.46939ZM2.95147 21.2833C2.686 21.2828 2.46992 21.0671 2.46939 20.7995L1.96939 20.8005C1.97046 21.3423 2.40852 21.7823 2.95047 21.7833L2.95147 21.2833ZM8.80361 21.2833H2.95097V21.7833H8.80361V21.2833ZM19.5153 13.9154C21.1701 15.319 21.4755 17.7602 20.2173 19.5301L20.6249 19.8198C22.0333 17.8385 21.6917 15.1058 19.8388 13.5341L19.5153 13.9154ZM13.8767 14.1502C15.4095 12.614 17.8608 12.5119 19.5153 13.9154L19.8388 13.5341C17.9856 11.9621 15.2395 12.0765 13.5228 13.797L13.8767 14.1502ZM13.6417 19.8039C12.2415 18.1448 12.3437 15.6867 13.8767 14.1502L13.5228 13.797C11.8064 15.5173 11.692 18.269 13.2596 20.1264L13.6417 19.8039ZM19.2412 20.5084C17.476 21.7689 15.0416 21.4628 13.6417 19.8039L13.2596 20.1264C14.8274 21.9841 17.5544 22.3273 19.5318 20.9153L19.2412 20.5084ZM21.6317 22.6086L19.5635 20.5353L19.2095 20.8884L21.2777 22.9617L21.6317 22.6086ZM22.3032 22.5996C22.1175 22.7858 21.8175 22.7884 21.6286 22.6055L21.2808 22.9647C21.666 23.3377 22.2785 23.3323 22.6572 22.9528L22.3032 22.5996ZM22.3091 21.9217C22.4919 22.1114 22.4893 22.4132 22.3032 22.5996L22.6572 22.9528C23.0356 22.5735 23.0409 21.9605 22.6692 21.5747L22.3091 21.9217ZM20.2441 19.8515L22.3121 21.9248L22.6661 21.5716L20.5981 19.4984L20.2441 19.8515ZM16.851 13.95C15.0962 13.95 13.6747 15.3758 13.6747 17.1333H14.1747C14.1747 15.6508 15.3735 14.45 16.851 14.45V13.95ZM20.0273 17.1333C20.0273 15.3758 18.6058 13.95 16.851 13.95V14.45C18.3285 14.45 19.5273 15.6508 19.5273 17.1333H20.0273ZM16.851 20.3167C18.6058 20.3167 20.0273 18.8909 20.0273 17.1333H19.5273C19.5273 18.6159 18.3285 19.8167 16.851 19.8167V20.3167ZM13.6747 17.1337C13.677 18.89 15.097 20.3143 16.8507 20.3167L16.8513 19.8167C15.3744 19.8147 14.1767 18.6149 14.1747 17.133L13.6747 17.1337Z" fill="#ADADAD"/>
</svg>
