<svg width="14" height="14" viewBox="0 0 14 14" fill="none" xmlns="http://www.w3.org/2000/svg">
<path fill-rule="evenodd" clip-rule="evenodd" d="M9.87109 11.8125V10.7188C9.87109 10.4167 9.62628 10.1719 9.32422 10.1719C9.02216 10.1719 8.77734 10.4167 8.77734 10.7188V11.8125C8.77734 12.4156 8.28665 12.9062 7.68359 12.9062H2.1875C1.58444 12.9062 1.09375 12.4156 1.09375 11.8125V2.1875C1.09375 1.58444 1.58444 1.09375 2.1875 1.09375H7.68359C8.28665 1.09375 8.77734 1.58444 8.77734 2.1875V3.28125C8.77734 3.58331 9.02216 3.82812 9.32422 3.82812C9.62628 3.82812 9.87109 3.58331 9.87109 3.28125V2.1875C9.87109 0.981277 8.88982 0 7.68359 0H2.1875C0.981277 0 0 0.981277 0 2.1875V11.8125C0 13.0187 0.981277 14 2.1875 14H7.68359C8.88982 14 9.87109 13.0187 9.87109 11.8125ZM12.375 4.836L13.5996 6.06059C14.1327 6.59369 14.1327 7.461 13.5996 7.99409L12.375 9.21869C12.2682 9.3255 12.1282 9.37891 11.9882 9.37891C11.8483 9.37891 11.7084 9.3255 11.6015 9.21869C11.3879 9.00517 11.3879 8.65889 11.6015 8.44537L12.4726 7.57422H5.90625C5.60419 7.57422 5.35938 7.32941 5.35938 7.02734C5.35938 6.72528 5.60419 6.48047 5.90625 6.48047H12.4726L11.6015 5.60931C11.3879 5.3958 11.3879 5.04951 11.6015 4.836C11.8151 4.62238 12.1613 4.62238 12.375 4.836Z" fill="black"/>
</svg>
