<svg width="14" height="14" viewBox="0 0 14 14" fill="none" xmlns="http://www.w3.org/2000/svg">
<path fill-rule="evenodd" clip-rule="evenodd" d="M0 7C0 3.13075 3.13111 0 7 0C10.8693 0 14 3.13116 14 7C14 10.8693 10.8689 14 7 14C3.13075 14 0 10.8688 0 7ZM0.976746 7C0.976746 10.3213 3.67877 13.0233 7 13.0233C10.3212 13.0233 13.0233 10.3213 13.0233 7C13.0233 3.67875 10.3212 0.976746 7 0.976746C3.67877 0.976746 0.976746 3.67875 0.976746 7Z" fill="black"/>
<path d="M7.0005 5.83508C6.58586 5.83508 6.29102 6.01019 6.29102 6.26818V9.77874C6.29102 9.99989 6.58586 10.221 7.0005 10.221C7.39671 10.221 7.71918 9.99989 7.71918 9.77874V6.26813C7.71918 6.01017 7.39671 5.83508 7.0005 5.83508Z" fill="black"/>
<path d="M6.99968 3.66974C6.57582 3.66974 6.24414 3.9738 6.24414 4.32394C6.24414 4.6741 6.57585 4.98738 6.99968 4.98738C7.41432 4.98738 7.74605 4.6741 7.74605 4.32394C7.74605 3.9738 7.41429 3.66974 6.99968 3.66974Z" fill="black"/>
</svg>
