<svg width="14" height="14" viewBox="0 0 14 14" fill="none" xmlns="http://www.w3.org/2000/svg">
<path fill-rule="evenodd" clip-rule="evenodd" d="M7.76665 13.1761C5.86942 12.2565 4.20718 10.9569 2.82632 9.30626C1.68915 7.93991 0.923298 6.66059 0.415631 5.28264C0.0849223 4.39204 -0.0427197 3.6552 0.0123984 2.96187C0.0588137 2.40779 0.282187 1.92913 0.676717 1.5346L1.76167 0.449648C2.07208 0.153751 2.42599 0 2.79441 0C3.16573 0 3.51675 0.153751 3.81555 0.446747C4.01281 0.629507 4.21298 0.832574 4.40444 1.02984L4.4124 1.03803C4.50823 1.13668 4.60154 1.23274 4.70034 1.33154L5.56482 2.19602C5.88103 2.50932 6.04638 2.87194 6.04638 3.24036C6.04638 3.60879 5.87813 3.97141 5.56482 4.28471L5.56478 4.28475C5.47486 4.37467 5.38495 4.46458 5.29794 4.5545C5.05135 4.80688 4.79607 5.06506 4.52338 5.31165C4.71774 5.76129 4.99624 6.20224 5.41107 6.72731C6.23204 7.73394 7.09072 8.5172 8.03644 9.1177C8.13217 9.17862 8.2395 9.23373 8.35554 9.29175L8.35558 9.29177C8.4484 9.33818 8.54702 9.38749 8.64273 9.4426L9.68128 8.40406C9.98588 8.09946 10.3427 7.93701 10.714 7.93701C11.0853 7.93701 11.4393 8.09946 11.7352 8.40696L13.4786 10.1504C14.1023 10.7741 14.1023 11.5922 13.4844 12.2362C13.351 12.3755 13.2117 12.5118 13.0754 12.6424C13.0616 12.6557 13.0479 12.669 13.0342 12.6823C12.849 12.862 12.6722 13.0334 12.5155 13.2225C12.5126 13.2283 12.5068 13.2341 12.5039 13.237C12.031 13.7505 11.4509 14 10.7285 14C10.6645 14 10.6031 13.9973 10.5393 13.9945L10.5313 13.9942C9.455 13.9246 8.48898 13.5184 7.76665 13.1761ZM1.18148 2.03647C0.902991 2.31496 0.755042 2.63697 0.720231 3.02279C0.673816 3.60588 0.786953 4.247 1.08575 5.04476C1.56731 6.34438 2.29545 7.55698 3.3775 8.85951C4.69164 10.4318 6.27556 11.6705 8.07995 12.5437C8.74427 12.8599 9.62906 13.2312 10.5806 13.2922C10.6299 13.2951 10.6821 13.298 10.7314 13.298C11.2449 13.298 11.6423 13.1297 11.9759 12.77C12.1569 12.5533 12.3561 12.36 12.5489 12.1729C12.56 12.162 12.5711 12.1513 12.5822 12.1405C12.7186 12.0099 12.8462 11.8852 12.9681 11.7547C13.322 11.3862 13.3249 11.0091 12.9768 10.661L11.2275 8.91463C11.1143 8.79279 10.9345 8.65644 10.714 8.65644C10.5342 8.65644 10.3514 8.74637 10.1831 8.91463L9.09818 9.99959C9.04887 10.0489 8.89802 10.1968 8.66594 10.1968C8.57311 10.1968 8.48028 10.1736 8.38455 10.1243C8.37875 10.1214 8.37367 10.1185 8.3686 10.1156C8.36352 10.1127 8.35844 10.1098 8.35264 10.1069C8.25691 10.046 8.14957 9.99088 8.03353 9.93286C8.01259 9.92215 7.99139 9.91143 7.97004 9.90063C7.86422 9.84712 7.7544 9.79158 7.65061 9.724C6.64108 9.08288 5.72437 8.25031 4.85409 7.17696C4.36963 6.56776 4.05923 6.05719 3.83585 5.52051C3.8344 5.51616 3.83295 5.51254 3.8315 5.50891C3.83005 5.50528 3.8286 5.50166 3.82715 5.49731C3.76913 5.32325 3.73142 5.09407 3.9722 4.85329L3.9867 4.83879C4.24417 4.61082 4.47933 4.37293 4.72655 4.12284C4.74674 4.10242 4.767 4.08192 4.78737 4.06133C4.83233 4.01637 4.8773 3.97068 4.92226 3.92499C4.96723 3.8793 5.01219 3.83361 5.05716 3.78864C5.23701 3.60879 5.32985 3.42603 5.32985 3.24617C5.32985 3.06631 5.23701 2.88355 5.05716 2.70369L4.19267 1.8392C4.14227 1.78736 4.09186 1.73623 4.04182 1.68546C3.99105 1.63396 3.94064 1.58283 3.89097 1.5317C3.86474 1.50508 3.83876 1.47867 3.81298 1.45245C3.64489 1.28154 3.4851 1.11906 3.31658 0.963116C3.15123 0.794861 2.97137 0.710734 2.79441 0.710734C2.61455 0.710734 2.42889 0.794861 2.26064 0.957315L1.18148 2.03647Z" fill="black"/>
</svg>
