<svg width="387" height="133" viewBox="0 0 387 133" fill="none" xmlns="http://www.w3.org/2000/svg">
<mask id="path-1-outside-1_36_31762" maskUnits="userSpaceOnUse" x="0" y="0" width="387" height="133" fill="black">
<rect fill="white" width="387" height="133"/>
<path fill-rule="evenodd" clip-rule="evenodd" d="M169.434 123.047C176.541 125.682 184.563 127 193.5 127C202.545 127 210.621 125.682 217.728 123.047C224.834 120.412 230.837 116.594 235.737 111.593C240.636 106.591 244.405 100.488 247.043 93.2813C249.681 86.0751 251 77.8471 251 68.5973V64.4027C251 55.1529 249.681 46.9249 247.043 39.7187C244.405 32.5124 240.636 26.4087 235.737 21.4073C230.837 16.406 224.834 12.5878 217.728 9.95267C210.621 7.31756 202.545 6 193.5 6C184.563 6 176.541 7.31756 169.434 9.95267C162.327 12.5878 156.297 16.406 151.344 21.4073C146.391 26.4087 142.595 32.5124 139.957 39.7187C137.319 46.9249 136 55.1529 136 64.4027V68.5973C136 77.8471 137.319 86.0751 139.957 93.2813C142.595 100.488 146.391 106.591 151.344 111.593C156.297 116.594 162.327 120.412 169.434 123.047ZM224.673 102.477C217.351 110.006 206.96 113.771 193.5 113.771C180.04 113.771 169.649 110.006 162.327 102.477C155.005 94.9484 151.344 83.6551 151.344 68.5973V64.4027C151.344 49.3449 155.005 38.0516 162.327 30.5227C169.649 22.9938 180.04 19.2293 193.5 19.2293C206.96 19.2293 217.351 22.9938 224.673 30.5227C231.995 38.0516 235.656 49.3449 235.656 64.4027V68.5973C235.656 83.6551 231.995 94.9484 224.673 102.477ZM123 93.6712V80.4164H99.6V8H81.0414L6 82.3562V93.6712H84.4303V126H99.6V93.6712H123ZM84.4303 80.4164H26.011L84.4303 22.7096V80.4164ZM381 80.4164V93.6712H357.6V126H342.43V93.6712H264V82.3562L339.041 8H357.6V80.4164H381ZM284.011 80.4164H342.43V22.7096L284.011 80.4164Z"/>
</mask>
<path fill-rule="evenodd" clip-rule="evenodd" d="M169.434 123.047C176.541 125.682 184.563 127 193.5 127C202.545 127 210.621 125.682 217.728 123.047C224.834 120.412 230.837 116.594 235.737 111.593C240.636 106.591 244.405 100.488 247.043 93.2813C249.681 86.0751 251 77.8471 251 68.5973V64.4027C251 55.1529 249.681 46.9249 247.043 39.7187C244.405 32.5124 240.636 26.4087 235.737 21.4073C230.837 16.406 224.834 12.5878 217.728 9.95267C210.621 7.31756 202.545 6 193.5 6C184.563 6 176.541 7.31756 169.434 9.95267C162.327 12.5878 156.297 16.406 151.344 21.4073C146.391 26.4087 142.595 32.5124 139.957 39.7187C137.319 46.9249 136 55.1529 136 64.4027V68.5973C136 77.8471 137.319 86.0751 139.957 93.2813C142.595 100.488 146.391 106.591 151.344 111.593C156.297 116.594 162.327 120.412 169.434 123.047ZM224.673 102.477C217.351 110.006 206.96 113.771 193.5 113.771C180.04 113.771 169.649 110.006 162.327 102.477C155.005 94.9484 151.344 83.6551 151.344 68.5973V64.4027C151.344 49.3449 155.005 38.0516 162.327 30.5227C169.649 22.9938 180.04 19.2293 193.5 19.2293C206.96 19.2293 217.351 22.9938 224.673 30.5227C231.995 38.0516 235.656 49.3449 235.656 64.4027V68.5973C235.656 83.6551 231.995 94.9484 224.673 102.477ZM123 93.6712V80.4164H99.6V8H81.0414L6 82.3562V93.6712H84.4303V126H99.6V93.6712H123ZM84.4303 80.4164H26.011L84.4303 22.7096V80.4164ZM381 80.4164V93.6712H357.6V126H342.43V93.6712H264V82.3562L339.041 8H357.6V80.4164H381ZM284.011 80.4164H342.43V22.7096L284.011 80.4164Z" fill="#0085CF"/>
<path d="M169.434 123.047L167.348 128.673H167.348L169.434 123.047ZM217.728 123.047L219.813 128.673H219.814L217.728 123.047ZM235.737 111.593L240.023 115.791V115.791L235.737 111.593ZM247.043 93.2813L252.677 95.344L252.677 95.344L247.043 93.2813ZM247.043 39.7187L252.677 37.656L252.677 37.656L247.043 39.7187ZM235.737 21.4073L240.023 17.2086V17.2086L235.737 21.4073ZM217.728 9.95267L219.814 4.32694V4.32694L217.728 9.95267ZM169.434 9.95267L167.348 4.32694V4.32694L169.434 9.95267ZM224.673 102.477L228.974 106.66L224.673 102.477ZM162.327 102.477L158.026 106.66L162.327 102.477ZM162.327 30.5227L158.026 26.3395V26.3395L162.327 30.5227ZM224.673 30.5227L228.974 26.3395V26.3395L224.673 30.5227ZM123 80.4164H129V74.4164H123V80.4164ZM123 93.6712V99.6712H129V93.6712H123ZM99.6 80.4164H93.6V86.4164H99.6V80.4164ZM99.6 8H105.6V2H99.6V8ZM81.0414 8V2H78.5722L76.8182 3.73795L81.0414 8ZM6 82.3562L1.77686 78.0941L0 79.8547V82.3562H6ZM6 93.6712H0V99.6712H6V93.6712ZM84.4303 93.6712H90.4303V87.6712H84.4303V93.6712ZM84.4303 126H78.4303V132H84.4303V126ZM99.6 126V132H105.6V126H99.6ZM99.6 93.6712V87.6712H93.6V93.6712H99.6ZM26.011 80.4164L21.7945 76.1478L11.3991 86.4164H26.011V80.4164ZM84.4303 80.4164V86.4164H90.4303V80.4164H84.4303ZM84.4303 22.7096H90.4303V8.34906L80.2138 18.441L84.4303 22.7096ZM381 93.6712V99.6712H387V93.6712H381ZM381 80.4164H387V74.4164H381V80.4164ZM357.6 93.6712V87.6712H351.6V93.6712H357.6ZM357.6 126V132H363.6V126H357.6ZM342.43 126H336.43V132H342.43V126ZM342.43 93.6712H348.43V87.6712H342.43V93.6712ZM264 93.6712H258V99.6712H264V93.6712ZM264 82.3562L259.777 78.0941L258 79.8547V82.3562H264ZM339.041 8V2H336.572L334.818 3.73795L339.041 8ZM357.6 8H363.6V2H357.6V8ZM357.6 80.4164H351.6V86.4164H357.6V80.4164ZM342.43 80.4164V86.4164H348.43V80.4164H342.43ZM284.011 80.4164L279.795 76.1478L269.399 86.4164H284.011V80.4164ZM342.43 22.7096H348.43V8.34907L338.214 18.441L342.43 22.7096ZM193.5 121C185.15 121 177.851 119.769 171.52 117.422L167.348 128.673C175.23 131.596 183.975 133 193.5 133V121ZM215.642 117.422C209.318 119.766 201.967 121 193.5 121V133C203.123 133 211.924 131.598 219.813 128.673L215.642 117.422ZM231.451 107.394C227.22 111.712 221.988 115.068 215.642 117.422L219.814 128.673C227.68 125.756 234.454 121.476 240.023 115.791L231.451 107.394ZM241.409 91.2187C239.035 97.7029 235.699 103.057 231.451 107.394L240.023 115.791C245.573 110.125 249.775 103.272 252.677 95.344L241.409 91.2187ZM245 68.5973C245 77.2838 243.761 84.7933 241.409 91.2187L252.677 95.344C255.601 87.3569 257 78.4104 257 68.5973H245ZM245 64.4027V68.5973H257V64.4027H245ZM241.409 41.7813C243.761 48.2067 245 55.7162 245 64.4027H257C257 54.5896 255.601 45.6431 252.677 37.656L241.409 41.7813ZM231.451 25.606C235.699 29.9427 239.035 35.2971 241.409 41.7813L252.677 37.656C249.775 29.7278 245.573 22.8746 240.023 17.2086L231.451 25.606ZM215.642 15.5784C221.988 17.9317 227.22 21.2878 231.451 25.6061L240.023 17.2086C234.454 11.5242 227.68 7.24386 219.814 4.32694L215.642 15.5784ZM193.5 12C201.967 12 209.318 13.2335 215.642 15.5784L219.814 4.32694C211.924 1.40158 203.123 0 193.5 0V12ZM171.52 15.5784C177.851 13.2308 185.15 12 193.5 12V0C183.975 0 175.23 1.40433 167.348 4.32694L171.52 15.5784ZM155.607 25.6294C159.899 21.2956 165.169 17.9334 171.52 15.5784L167.348 4.32694C159.486 7.24211 152.695 11.5164 147.081 17.1853L155.607 25.6294ZM145.591 41.7813C147.96 35.3111 151.314 29.9643 155.607 25.6294L147.081 17.1853C141.468 22.8531 137.23 29.7138 134.323 37.656L145.591 41.7813ZM142 64.4027C142 55.7162 143.239 48.2067 145.591 41.7813L134.323 37.656C131.399 45.6431 130 54.5896 130 64.4027H142ZM142 68.5973V64.4027H130V68.5973H142ZM145.591 91.2187C143.239 84.7933 142 77.2838 142 68.5973H130C130 78.4104 131.399 87.3569 134.323 95.344L145.591 91.2187ZM155.607 107.371C151.314 103.036 147.96 97.6889 145.591 91.2187L134.323 95.344C137.23 103.286 141.468 110.147 147.081 115.815L155.607 107.371ZM171.52 117.422C165.169 115.067 159.899 111.704 155.607 107.371L147.081 115.815C152.695 121.484 159.486 125.758 167.348 128.673L171.52 117.422ZM193.5 119.771C208.1 119.771 220.227 115.655 228.974 106.66L220.371 98.2942C214.475 104.357 205.819 107.771 193.5 107.771V119.771ZM158.026 106.66C166.773 115.655 178.9 119.771 193.5 119.771V107.771C181.181 107.771 172.525 104.357 166.629 98.2942L158.026 106.66ZM145.344 68.5973C145.344 84.5387 149.219 97.6045 158.026 106.66L166.629 98.2942C160.792 92.2924 157.344 82.7715 157.344 68.5973H145.344ZM145.344 64.4027V68.5973H157.344V64.4027H145.344ZM158.026 26.3395C149.219 35.3955 145.344 48.4613 145.344 64.4027H157.344C157.344 50.2285 160.792 40.7076 166.629 34.7058L158.026 26.3395ZM193.5 13.2293C178.9 13.2293 166.773 17.3449 158.026 26.3395L166.629 34.7058C172.525 28.6426 181.181 25.2293 193.5 25.2293V13.2293ZM228.974 26.3395C220.227 17.3449 208.1 13.2293 193.5 13.2293V25.2293C205.819 25.2293 214.475 28.6426 220.371 34.7058L228.974 26.3395ZM241.656 64.4027C241.656 48.4613 237.781 35.3955 228.974 26.3395L220.371 34.7058C226.208 40.7076 229.656 50.2285 229.656 64.4027H241.656ZM241.656 68.5973V64.4027H229.656V68.5973H241.656ZM228.974 106.66C237.781 97.6045 241.656 84.5387 241.656 68.5973H229.656C229.656 82.7715 226.208 92.2924 220.371 98.2942L228.974 106.66ZM117 80.4164V93.6712H129V80.4164H117ZM99.6 86.4164H123V74.4164H99.6V86.4164ZM93.6 8V80.4164H105.6V8H93.6ZM81.0414 14H99.6V2H81.0414V14ZM10.2231 86.6182L85.2645 12.2621L76.8182 3.73795L1.77686 78.0941L10.2231 86.6182ZM12 93.6712V82.3562H0V93.6712H12ZM84.4303 87.6712H6V99.6712H84.4303V87.6712ZM90.4303 126V93.6712H78.4303V126H90.4303ZM99.6 120H84.4303V132H99.6V120ZM93.6 93.6712V126H105.6V93.6712H93.6ZM123 87.6712H99.6V99.6712H123V87.6712ZM26.011 86.4164H84.4303V74.4164H26.011V86.4164ZM80.2138 18.441L21.7945 76.1478L30.2276 84.685L88.6469 26.9782L80.2138 18.441ZM90.4303 80.4164V22.7096H78.4303V80.4164H90.4303ZM387 93.6712V80.4164H375V93.6712H387ZM357.6 99.6712H381V87.6712H357.6V99.6712ZM363.6 126V93.6712H351.6V126H363.6ZM342.43 132H357.6V120H342.43V132ZM336.43 93.6712V126H348.43V93.6712H336.43ZM264 99.6712H342.43V87.6712H264V99.6712ZM258 82.3562V93.6712H270V82.3562H258ZM334.818 3.73795L259.777 78.0941L268.223 86.6182L343.265 12.2621L334.818 3.73795ZM357.6 2H339.041V14H357.6V2ZM363.6 80.4164V8H351.6V80.4164H363.6ZM381 74.4164H357.6V86.4164H381V74.4164ZM342.43 74.4164H284.011V86.4164H342.43V74.4164ZM336.43 22.7096V80.4164H348.43V22.7096H336.43ZM288.228 84.685L346.647 26.9782L338.214 18.441L279.795 76.1478L288.228 84.685Z" fill="#F5F5F5" mask="url(#path-1-outside-1_36_31762)"/>
</svg>
