<svg width="90" height="20" viewBox="0 0 90 20" fill="none" xmlns="http://www.w3.org/2000/svg">
<path fill-rule="evenodd" clip-rule="evenodd" d="M5.77905 11.6238C5.77905 10.0393 4.48519 8.75381 2.88952 8.75381C1.29386 8.75381 0 10.0379 0 11.6238C0 13.2097 1.29386 14.4937 2.88952 14.4937C4.48519 14.4937 5.77905 13.2097 5.77905 11.6238Z" fill="#6BB240"/>
<ellipse cx="6.95414" cy="4.03527" rx="4.06462" ry="4.03527" fill="#0A93D2"/>
<path fill-rule="evenodd" clip-rule="evenodd" d="M51.6454 8.44502H50.5485C47.5765 8.44502 45.0224 10.9587 44.8743 14.0299L44.8575 14.3806C44.7094 17.4517 47.0218 19.9654 49.9952 19.9654H51.092C54.064 19.9654 56.6182 17.4517 56.7663 14.3806L56.7831 14.0299C56.9298 10.9573 54.6187 8.44502 51.6454 8.44502ZM53.8265 14.3456C53.7524 16.788 52.4795 18.7847 50.9956 18.7847H50.4479C48.9654 18.7847 47.8113 16.7866 47.8853 14.3456L47.8937 14.0662C47.9678 11.6238 49.2407 9.6271 50.7246 9.6271H51.2723C52.7548 9.6271 53.9089 11.6252 53.8348 14.0662L53.8265 14.3456ZM67.8144 11.6196C67.8144 9.95965 66.2662 8.6085 64.5937 8.6085H58.8384L58.341 18.5486C58.341 18.5486 58.1985 19.7237 59.4644 19.7237H61.0209L61.517 9.80595H63.7148C64.6566 9.80595 65.4209 10.6722 65.4209 11.737C65.4209 12.8017 64.6566 13.668 63.7148 13.668H62.6879C62.6879 13.668 62.3106 13.6498 62.1499 13.8887C61.9655 14.1305 62.115 14.4197 62.115 14.4197L64.9738 19.7237H67.5699L64.6789 14.6307H64.6817C66.6267 14.5678 67.813 13.2795 67.813 11.6182L67.8144 11.6196ZM29.0014 8.6085H21.7525L21.2551 18.5486C21.2551 18.5486 21.1125 19.7237 22.3784 19.7237H29.9432L30.0228 18.1573H24.22L24.3779 15.089H29.3214L29.3563 14.2939C29.3563 14.2939 29.3535 14.0117 29.1705 13.8692C28.8966 13.6442 28.3978 13.6903 28.3978 13.6903H24.4366L24.4422 13.5632L24.6154 10.1357H30.2492C30.646 9.18278 29.756 8.6099 29 8.6099L29.0014 8.6085ZM40.2088 16.7489C38.6704 13.9698 37.1852 11.3988 35.6635 8.6085H32.3437L31.8951 18.5486C31.8951 18.5486 31.9468 19.7237 33.0982 19.7237H34.4605L34.8406 10.9657L39.2168 18.5234C39.2168 18.5234 39.5451 19.1326 39.9028 19.3897C40.2899 19.6678 40.9801 19.7237 40.9801 19.7237H42.749L43.3051 8.6085H40.6168L40.2102 16.7489H40.2088ZM88.4197 8.6085C87.9041 8.6085 87.6428 9.02489 87.6428 9.02489L85.1767 13.1035L82.3067 8.60711H80.8075C79.4451 8.60711 80.0082 9.75286 80.0082 9.75286L83.261 14.959L83.0417 19.7223H85.6489L85.8557 15.2175L90 8.60711H88.4211L88.4197 8.6085ZM18.3376 13.4626H14.9045L14.8221 14.9227H16.8733L16.7224 18.2915C16.7224 18.2915 16.1034 18.4256 15.6227 18.4256H15.3712C12.729 18.4256 11.329 16.5198 11.4156 14.2702L11.4254 14.076C11.5134 11.825 13.0629 10.1343 15.2413 10.1343H19.0586C19.0586 10.1343 19.2514 8.85163 18.012 8.57218C17.2365 8.39892 15.0317 8.44363 15.0317 8.44363C11.2814 8.44363 8.47576 11.0076 8.32206 14.0802L8.30389 14.3722C8.15159 17.4447 10.3774 19.9668 14.7438 19.9668H15.4648C16.5896 19.9668 17.5328 19.8159 18.4801 19.5462C18.5947 19.5141 18.835 19.3981 18.9873 19.2137C19.1899 18.9566 19.2025 18.7051 19.2025 18.7051L19.2165 18.4102L19.4163 14.6488C19.4163 14.6488 19.556 13.4626 18.3376 13.4626ZM74.306 8.6085H76.7093L80.637 19.7237H77.8159L76.6926 16.5421H72.6531C72.6531 16.5421 72.5343 16.1816 72.8878 15.5752C73.2385 15.0876 74.1859 15.1616 74.1859 15.1616H76.2035L75.9981 14.5832L74.5799 10.5661L72.7271 14.4882L71.7519 16.5547L70.254 19.7251H69.649C68.0994 19.7251 68.6248 18.3586 68.6248 18.3586L72.8305 9.45803C72.8305 9.45803 73.0387 8.98856 73.3266 8.79434C73.6647 8.56379 74.3074 8.6099 74.3074 8.6099L74.306 8.6085Z" fill="#004994"/>
</svg>
