<svg width="90" height="20" viewBox="0 0 90 20" fill="none" xmlns="http://www.w3.org/2000/svg">
<path fill-rule="evenodd" clip-rule="evenodd" d="M11.5168 10.5032L7.54875 1.76924L3.55827 10.5032H11.5168ZM7.03118 0.539124H8.10944L15.1406 15.7444H13.9105L11.9912 11.5167H3.08384L1.16453 15.7444H0L7.03118 0.539124Z" fill="#007EB9"/>
<path fill-rule="evenodd" clip-rule="evenodd" d="M17.8237 4.74526H18.8804V6.79397C19.6136 5.50005 20.8429 4.48648 22.8484 4.48648C25.6304 4.48648 27.2487 6.38423 27.2487 9.01519V15.7445H26.1911V9.20928C26.1911 6.94492 24.9187 5.45692 22.6975 5.45692C20.541 5.45692 18.8804 7.09588 18.8804 9.3818V15.7445H17.8237V4.74526Z" fill="#007EB9"/>
<path fill-rule="evenodd" clip-rule="evenodd" d="M30.8276 0H31.8843V11.7971L38.6998 4.74526H40.1015L35.2916 9.61901L40.2525 15.7445H38.9155L34.5584 10.3738L31.8843 13.0704V15.7445H30.8276V0Z" fill="#007EB9"/>
<path fill-rule="evenodd" clip-rule="evenodd" d="M42.2868 18.7852L42.6534 17.8579C43.2357 18.1382 43.711 18.2676 44.5305 18.2676C45.6735 18.2676 46.4274 17.5991 47.2477 15.6798L41.9633 4.74527H43.1926L47.7653 14.5799L51.7333 4.74527H52.8978L48.1319 16.1326C47.1615 18.4401 46.0401 19.2596 44.4649 19.2596C43.6239 19.2596 43.02 19.1086 42.2868 18.7852Z" fill="#007EB9"/>
<path fill-rule="evenodd" clip-rule="evenodd" d="M55.4596 15.7445H56.5163V0H55.4596V15.7445Z" fill="#007EB9"/>
<path fill-rule="evenodd" clip-rule="evenodd" d="M69.7772 10.2875V10.2444C69.7772 7.59188 67.7923 5.47848 65.2476 5.47848C62.6382 5.47848 60.762 7.61345 60.762 10.2013V10.2444C60.762 12.8969 62.746 15.0112 65.2907 15.0112C67.9001 15.0112 69.7772 12.8754 69.7772 10.2875ZM59.619 10.2875V10.2444C59.619 7.16058 62.0128 4.48648 65.2907 4.48648C68.5479 4.48648 70.9201 7.11744 70.9201 10.2013V10.2444C70.9201 13.3282 68.5264 16.0032 65.2476 16.0032C61.9912 16.0032 59.619 13.3723 59.619 10.2875Z" fill="#007EB9"/>
<path fill-rule="evenodd" clip-rule="evenodd" d="M72.7496 14.3643L73.375 13.5232C74.5826 14.4505 75.9206 14.9681 77.3223 14.9681C78.8103 14.9681 79.9748 14.1486 79.9748 12.8754V12.8331C79.9748 11.5392 78.5947 11.0639 77.0635 10.6326C75.2727 10.115 73.2887 9.57588 73.2887 7.61344V7.57031C73.2887 5.80195 74.7767 4.5296 76.9126 4.5296C78.2281 4.5296 79.7161 5.00404 80.8159 5.73726L80.2552 6.62143C79.2416 5.95291 78.034 5.5216 76.8694 5.5216C75.3599 5.5216 74.367 6.34109 74.367 7.44091V7.48405C74.367 8.71327 75.855 9.16614 77.4301 9.61901C79.1985 10.115 81.0531 10.7629 81.0531 12.7037V12.7469C81.0531 14.7084 79.371 15.9601 77.2567 15.9601C75.6618 15.9601 73.9141 15.3131 72.7496 14.3643Z" fill="#007EB9"/>
<path fill-rule="evenodd" clip-rule="evenodd" d="M86.758 4.38853C87.2522 4.38853 87.529 4.13244 87.529 3.75595C87.529 3.34082 87.2325 3.14313 86.758 3.14313H85.8289V4.38853H86.758ZM85.2745 2.64893H86.8173C87.529 2.64893 88.1023 3.02453 88.1023 3.71641C88.1023 4.28969 87.7267 4.62575 87.2522 4.76502L88.2209 6.10926H87.529L86.6583 4.8441H85.8289V6.10926H85.2745V2.64893ZM89.6046 4.44873V4.42807C89.6046 2.74777 88.2999 1.364 86.5594 1.364C84.8405 1.364 83.5151 2.76754 83.5151 4.44873V4.4685C83.5151 6.1488 84.8198 7.53257 86.5594 7.53257C88.2802 7.53257 89.6046 6.12903 89.6046 4.44873ZM83.1198 4.4685V4.44873C83.1198 2.56986 84.6419 0.988403 86.5594 0.988403C88.4976 0.988403 90 2.55009 90 4.42807V4.44873C90 6.32581 88.4779 7.90816 86.5594 7.90816C84.6222 7.90816 83.1198 6.34648 83.1198 4.4685Z" fill="#007EB9"/>
</svg>
