<svg width="90" height="33" viewBox="0 0 90 33" fill="none" xmlns="http://www.w3.org/2000/svg">
<path fill-rule="evenodd" clip-rule="evenodd" d="M62.5483 7.8957C62.6311 7.8957 62.7035 7.93071 62.7653 7.99956L63.378 8.70207C62.9917 9.19337 62.5179 9.57263 61.9554 9.8387C61.393 10.1059 60.722 10.239 59.9401 10.239C59.2469 10.239 58.6203 10.1129 58.0601 9.8597C57.5 9.60764 57.0227 9.25405 56.6282 8.80243C56.2326 8.35082 55.9292 7.81168 55.7168 7.18502C55.5033 6.55952 55.3971 5.87101 55.3971 5.11948C55.3971 4.36796 55.5103 3.67828 55.7367 3.05045C55.9631 2.42262 56.2805 1.88232 56.6913 1.42953C57.102 0.977918 57.5933 0.626661 58.1663 0.375763C58.7393 0.124865 59.3706 0 60.0591 0C60.7476 0 61.3486 0.116697 61.8738 0.351257C62.3977 0.585817 62.854 0.897398 63.2403 1.28716L62.7338 2.04569C62.6988 2.09704 62.6568 2.14138 62.609 2.17756C62.5611 2.2149 62.4946 2.23357 62.4117 2.23357C62.3242 2.23357 62.2239 2.1904 62.1118 2.10521C61.9998 2.02002 61.8574 1.92433 61.6835 1.82047C61.5097 1.71661 61.2926 1.62092 61.0312 1.53573C60.7698 1.44937 60.4442 1.40736 60.0533 1.40736C59.6017 1.40736 59.1862 1.49138 58.8093 1.65826C58.4312 1.82514 58.1068 2.06903 57.8349 2.38878C57.563 2.70853 57.3506 3.0983 57.2001 3.55692C57.0484 4.01553 56.9725 4.53717 56.9725 5.12182C56.9725 5.70647 57.0519 6.23627 57.2094 6.69722C57.3669 7.15818 57.5852 7.54794 57.8617 7.86536C58.1383 8.18277 58.4627 8.4255 58.8361 8.59238C59.2096 8.75925 59.611 8.84328 60.0416 8.84328C60.3054 8.84328 60.5411 8.82811 60.75 8.79776C60.9589 8.76742 61.1502 8.71841 61.3265 8.65189C61.5015 8.58421 61.6672 8.50019 61.8236 8.3975C61.98 8.29597 62.134 8.16994 62.288 8.02173C62.3756 7.93771 62.4631 7.89687 62.5518 7.89687L62.5483 7.8957ZM52.4832 3.56975C52.6302 4.02837 52.7037 4.54534 52.7037 5.12065C52.7037 5.70063 52.6302 6.21993 52.4832 6.67855C52.3361 7.13717 52.1249 7.52577 51.8507 7.84319C51.5764 8.1606 51.2439 8.4045 50.8529 8.57371C50.462 8.74408 50.0185 8.82811 49.5354 8.82811C49.0523 8.82811 48.6158 8.74292 48.2249 8.57371C47.834 8.4045 47.5002 8.1606 47.2237 7.84319C46.9471 7.52577 46.7347 7.13717 46.5853 6.67855C46.436 6.21993 46.3613 5.69597 46.3613 5.12065C46.3613 4.54534 46.436 4.02837 46.5853 3.56975C46.7335 3.11113 46.9471 2.72137 47.2237 2.40162C47.5002 2.08187 47.834 1.83564 48.2249 1.6641C48.6158 1.49255 49.0476 1.4062 49.5354 1.4062C50.0232 1.4062 50.462 1.49255 50.8529 1.6641C51.2439 1.83564 51.5764 2.08187 51.8507 2.40162C52.1249 2.72137 52.3361 3.11113 52.4832 3.56975ZM53.9361 7.17218C54.1636 6.54669 54.278 5.86284 54.278 5.12065C54.278 4.37963 54.1648 3.69462 53.9361 3.06912C53.7073 2.44246 53.3852 1.90216 52.971 1.44821C52.5555 0.994256 52.0572 0.639498 51.4761 0.383932C50.8938 0.128366 50.2438 0.00116697 49.5366 0.00116697C48.8294 0.00116697 48.1852 0.129533 47.6041 0.383932C47.0218 0.639498 46.5223 0.994256 46.1057 1.44821C45.6879 1.90332 45.3658 2.44363 45.1371 3.06912C44.9096 3.69462 44.7952 4.37846 44.7952 5.12065C44.7952 5.86284 44.9084 6.54669 45.1371 7.17218C45.3658 7.79884 45.6891 8.33681 46.1057 8.7896C46.5235 9.24238 47.0218 9.59597 47.6041 9.85037C48.1852 10.1059 48.8247 10.2331 49.5366 10.2331C50.2484 10.2331 50.8938 10.1059 51.4761 9.85037C52.0572 9.5948 52.5555 9.24121 52.971 8.7896C53.3864 8.33681 53.7073 7.79767 53.9361 7.17218ZM42.1018 5.12065C42.1018 4.54534 42.0283 4.02837 41.8813 3.56975C41.7342 3.11113 41.523 2.7237 41.2488 2.40862C40.9745 2.09354 40.642 1.85081 40.251 1.6816C39.8601 1.51239 39.4213 1.42837 38.9347 1.42837H36.8995V8.8141H38.9347C39.4225 8.8141 39.8613 8.73008 40.251 8.5632C40.642 8.39633 40.9745 8.1536 41.2488 7.83618C41.523 7.51877 41.7342 7.13134 41.8813 6.67505C42.0283 6.21877 42.1018 5.70063 42.1018 5.12065ZM43.6761 5.12065C43.6761 5.86284 43.5617 6.54085 43.3342 7.15468C43.1054 7.76967 42.7845 8.29597 42.3691 8.73708C41.9536 9.17819 41.4565 9.52012 40.8742 9.76285C40.2919 10.0067 39.6465 10.1281 38.9347 10.1281H35.3521V0.113196H38.9347C39.6454 0.113196 40.2919 0.23456 40.8742 0.478456C41.4553 0.722353 41.9536 1.06427 42.3691 1.50422C42.7845 1.94417 43.1054 2.47164 43.3342 3.08663C43.5629 3.70045 43.6761 4.37963 43.6761 5.12065ZM71.9832 29.9315C71.9634 29.9607 71.9435 29.9817 71.9249 29.9957C71.9062 30.0097 71.884 30.0179 71.8572 30.0179C71.8292 30.0179 71.8 30.0039 71.7673 29.9759C71.7358 29.9479 71.6973 29.9175 71.6518 29.8837C71.6074 29.8499 71.5526 29.8195 71.4884 29.7915C71.4242 29.7635 71.3472 29.7495 71.2562 29.7495C71.1652 29.7495 71.0835 29.7647 71.0123 29.795C70.9411 29.8253 70.8804 29.8662 70.8314 29.9175C70.7824 29.9689 70.7462 30.0307 70.7205 30.1007C70.696 30.1708 70.6832 30.2466 70.6832 30.3283C70.6832 30.41 70.7019 30.48 70.738 30.5349C70.7742 30.5897 70.8232 30.6376 70.8839 30.6784C70.9446 30.7192 71.0123 30.7554 71.0893 30.7869C71.1652 30.8196 71.2433 30.8523 71.3239 30.8861C71.4044 30.92 71.4826 30.9585 71.5584 31.0016C71.6343 31.0448 71.7031 31.0985 71.7638 31.1615C71.8245 31.2245 71.8723 31.3016 71.9097 31.3914C71.9459 31.4813 71.9645 31.5898 71.9645 31.7158C71.9645 31.892 71.9365 32.0589 71.8805 32.2153C71.8245 32.3728 71.7451 32.5105 71.6424 32.6272C71.5397 32.7451 71.4137 32.8373 71.2655 32.9061C71.1173 32.975 70.9504 33.0088 70.7661 33.0088C70.668 33.0088 70.5735 32.9972 70.4813 32.9738C70.3891 32.9516 70.3028 32.919 70.2222 32.877C70.1417 32.835 70.067 32.7848 69.9994 32.7264C69.9317 32.6669 69.871 32.6016 69.8196 32.528L70.0029 32.2538C70.018 32.234 70.0379 32.2165 70.06 32.2013C70.0822 32.1873 70.1055 32.1803 70.1312 32.1803C70.1651 32.1803 70.2001 32.199 70.2363 32.2351C70.2724 32.2713 70.3156 32.3122 70.3681 32.3565C70.4206 32.4008 70.4836 32.4417 70.5572 32.4779C70.6319 32.514 70.724 32.5327 70.8337 32.5327C70.9294 32.5327 71.017 32.5164 71.094 32.4849C71.171 32.4522 71.2375 32.4078 71.2912 32.3495C71.3449 32.2911 71.3857 32.22 71.4149 32.1359C71.4429 32.0519 71.4581 31.9597 71.4581 31.8582C71.4581 31.7707 71.4394 31.6972 71.4032 31.64C71.367 31.5828 71.318 31.5338 71.2585 31.4929C71.199 31.4521 71.1313 31.4171 71.0555 31.3891C70.9796 31.3599 70.9014 31.3296 70.8232 31.2981C70.7439 31.2654 70.6669 31.2292 70.591 31.1872C70.5152 31.1452 70.4475 31.0938 70.388 31.0297C70.3284 30.9666 70.2806 30.8873 70.2432 30.7939C70.2071 30.7006 70.1884 30.585 70.1884 30.4497C70.1884 30.2956 70.2141 30.1486 70.2654 30.0074C70.3168 29.8662 70.3903 29.7413 70.4883 29.6328C70.5852 29.5243 70.703 29.4379 70.8407 29.3726C70.9784 29.3072 71.1348 29.2745 71.3087 29.2745C71.3974 29.2745 71.4814 29.2839 71.5619 29.3037C71.6424 29.3235 71.7183 29.3516 71.7906 29.3877C71.8618 29.4239 71.9272 29.4671 71.9844 29.5184C72.0427 29.5698 72.0941 29.6246 72.1396 29.6865L71.9855 29.9304L71.9832 29.9315ZM45.807 30.4298C45.8478 30.571 45.8676 30.7297 45.8676 30.9036V30.9048C45.8676 31.1522 45.8396 31.3751 45.7824 31.5758C45.7264 31.7753 45.6459 31.9469 45.5421 32.0881C45.4382 32.2293 45.3133 32.3378 45.1686 32.4148C45.0239 32.4919 44.8629 32.5304 44.6855 32.5304C44.5478 32.5304 44.4241 32.5035 44.3156 32.4487C44.207 32.395 44.116 32.3168 44.0402 32.2165C43.9643 32.1161 43.9071 31.9947 43.8663 31.8535C43.8254 31.7123 43.8056 31.5548 43.8056 31.3809C43.8056 31.1358 43.8348 30.913 43.892 30.7122C43.9491 30.5127 44.0297 30.3411 44.1324 30.1988C44.2351 30.0564 44.3599 29.9467 44.5046 29.8697C44.6493 29.7927 44.8104 29.7542 44.9854 29.7542C45.1219 29.7542 45.2445 29.781 45.3542 29.8347C45.4627 29.8895 45.5561 29.9665 45.6319 30.0669C45.7078 30.1673 45.7661 30.2886 45.807 30.4298ZM46.3473 31.4719C46.3881 31.2876 46.4079 31.0938 46.4079 30.8908H46.4091C46.4091 30.6597 46.3776 30.445 46.3146 30.2478C46.2527 30.0506 46.1617 29.8802 46.0438 29.7355C45.926 29.5908 45.7836 29.4788 45.6156 29.3971C45.4475 29.3165 45.2585 29.2757 45.0496 29.2757C44.8792 29.2757 44.717 29.3002 44.563 29.3481C44.4089 29.3959 44.2666 29.4648 44.1347 29.5534C44.0028 29.6421 43.8838 29.7495 43.7764 29.8767C43.6702 30.0027 43.5792 30.1451 43.5045 30.3026C43.4298 30.4602 43.3715 30.6306 43.3307 30.8149C43.2898 30.9993 43.2688 31.1942 43.2688 31.3984C43.2688 31.6295 43.3003 31.8442 43.3633 32.0402C43.4252 32.2363 43.5162 32.4055 43.6329 32.549C43.7496 32.6914 43.8931 32.8034 44.0612 32.8851C44.2304 32.9657 44.4194 33.0065 44.6283 33.0065C44.7999 33.0065 44.9609 32.982 45.1149 32.9341C45.269 32.8863 45.4114 32.8174 45.5432 32.7288C45.6751 32.6401 45.7941 32.5327 45.9015 32.4067C46.0077 32.2806 46.0987 32.1394 46.1745 31.9831C46.2492 31.8267 46.3076 31.6563 46.3473 31.4719ZM35.3381 32.9692H35.8644L36.274 29.3142H35.7477L35.3381 32.9692ZM37.4655 29.4076C37.4433 29.3656 37.4223 29.3399 37.4013 29.3294V29.3306C37.3803 29.32 37.3464 29.3154 37.2998 29.3154H37.0279L36.6159 32.9692H37.0769L37.3605 30.4438C37.3639 30.4135 37.3663 30.3808 37.3686 30.3458C37.371 30.3108 37.3733 30.2735 37.3768 30.2349L38.7433 32.8641C38.7666 32.9015 38.7912 32.9271 38.818 32.9435C38.8448 32.9598 38.8787 32.968 38.9207 32.968H39.1856L39.5999 29.3142H39.1366L38.8577 31.7882C38.853 31.8255 38.8495 31.8652 38.846 31.9072L38.8433 31.9418L38.841 31.9753C38.8397 31.9955 38.8383 32.016 38.8367 32.0367L37.4655 29.4076ZM40.7248 29.3294C40.7458 29.3399 40.7668 29.3656 40.789 29.4076L42.1602 32.0367C42.1618 32.0161 42.1632 31.9956 42.1646 31.9755L42.1678 31.9297L42.1695 31.9072C42.173 31.8652 42.1765 31.8255 42.1812 31.7882L42.4613 29.3142H42.9245L42.5103 32.968H42.2454C42.2034 32.968 42.1695 32.9598 42.1427 32.9435C42.117 32.9271 42.0913 32.9015 42.068 32.8641L40.7015 30.2349L40.6988 30.2662L40.6974 30.2861L40.6942 30.3326V30.3327L40.6933 30.3458C40.691 30.3808 40.6886 30.4135 40.6851 30.4438L40.4016 32.9692H39.9406L40.3526 29.3154H40.6245C40.6711 29.3154 40.705 29.32 40.726 29.3306L40.7248 29.3294ZM46.6705 29.3142H47.0918C47.1361 29.3142 47.1723 29.327 47.2003 29.3527C47.2272 29.3784 47.2447 29.4099 47.2505 29.4496L47.7535 31.8734C47.7686 31.9376 47.7826 32.0076 47.7955 32.0823C47.8083 32.1581 47.8188 32.2363 47.8281 32.3168C47.8526 32.2351 47.8783 32.1569 47.9063 32.0823C47.9332 32.0064 47.9623 31.9376 47.9915 31.8734L49.0348 29.4496C49.0476 29.4157 49.071 29.3854 49.106 29.3574C49.141 29.3294 49.1807 29.3154 49.2262 29.3154H49.6474L47.988 32.9692H47.5131L46.6728 29.3154L46.6705 29.3142ZM50.1007 31.6038H50.1002V31.605L50.1007 31.6038ZM50.1007 31.6038H51.1528L50.8903 30.2361C50.8809 30.1836 50.8704 30.1241 50.8599 30.0564L50.8564 30.0336C50.8468 29.9723 50.8366 29.9064 50.8272 29.8358C50.8004 29.9152 50.7747 29.9899 50.7467 30.0576L50.7255 30.1116C50.707 30.1588 50.69 30.2019 50.6755 30.242L50.1007 31.6038ZM51.5554 32.9692H51.9592L51.1493 29.3154H50.616L48.9846 32.9692H49.3942C49.4374 32.9692 49.4759 32.9552 49.5097 32.9283C49.5436 32.9015 49.5681 32.8711 49.5833 32.835L49.9275 32.0157H51.231L51.3921 32.835C51.4026 32.8758 51.4212 32.9085 51.4469 32.933C51.4726 32.9563 51.5088 32.9692 51.5554 32.9692ZM54.558 29.3142L54.502 29.7915H53.5521L53.1939 32.9692H52.6722L53.0281 29.7915H52.0747L52.1261 29.3142H54.558ZM54.5931 32.9692H55.1182L55.5278 29.3142H55.0027L54.5931 32.9692ZM58.4744 30.9036C58.4744 30.7297 58.4545 30.571 58.4137 30.4298C58.3729 30.2886 58.3145 30.1673 58.2387 30.0669C58.1628 29.9665 58.0694 29.8895 57.9609 29.8347C57.8512 29.781 57.7287 29.7542 57.5922 29.7542C57.4171 29.7542 57.2561 29.7927 57.1114 29.8697C56.9667 29.9467 56.8418 30.0564 56.7391 30.1988C56.6364 30.3411 56.5559 30.5127 56.4987 30.7122C56.4415 30.913 56.4124 31.1358 56.4124 31.3809C56.4124 31.5548 56.4322 31.7123 56.473 31.8535C56.5127 31.9947 56.5711 32.1161 56.6469 32.2165C56.7228 32.3168 56.8138 32.395 56.9223 32.4487C57.0308 32.5035 57.1545 32.5304 57.2922 32.5304C57.4696 32.5304 57.6307 32.4919 57.7754 32.4148C57.9201 32.3378 58.0449 32.2293 58.1488 32.0881C58.2527 31.9469 58.3332 31.7753 58.3892 31.5758C58.4464 31.3751 58.4744 31.1522 58.4744 30.9048V30.9036ZM59.0147 30.8908C59.0147 31.0938 58.9949 31.2876 58.954 31.4719C58.9132 31.6563 58.856 31.8267 58.7801 31.9831C58.7043 32.1394 58.6133 32.2806 58.5071 32.4067C58.3997 32.5327 58.2807 32.6401 58.1488 32.7288C58.0169 32.8174 57.8746 32.8863 57.7205 32.9341C57.5665 32.982 57.4054 33.0065 57.2339 33.0065C57.0238 33.0065 56.836 32.9657 56.6668 32.8851C56.4987 32.8034 56.3552 32.6914 56.2385 32.549C56.1218 32.4055 56.0308 32.2363 55.9689 32.0402C55.9059 31.8442 55.8744 31.6295 55.8744 31.3984C55.8744 31.1942 55.8954 30.9993 55.9362 30.8149C55.9771 30.6306 56.0354 30.4602 56.1101 30.3026C56.1848 30.1451 56.2758 30.0027 56.382 29.8767C56.4894 29.7495 56.6084 29.6421 56.7403 29.5534C56.8721 29.4648 57.0145 29.3959 57.1685 29.3481C57.3226 29.3002 57.4848 29.2757 57.6552 29.2757C57.8641 29.2757 58.0531 29.3165 58.2212 29.3971C58.3892 29.4788 58.5316 29.5908 58.6494 29.7355C58.7673 29.8802 58.8583 30.0506 58.9202 30.2478C58.9832 30.445 59.0147 30.6597 59.0147 30.8908ZM60.2085 29.4076C60.1863 29.3656 60.1653 29.3399 60.1443 29.3294V29.3306C60.1233 29.32 60.0895 29.3154 60.0428 29.3154H59.7709L59.3589 32.9692H59.8199L60.1035 30.4438C60.107 30.4135 60.1093 30.3808 60.1116 30.3458L60.1125 30.3327V30.3326C60.1146 30.3015 60.1167 30.2687 60.1198 30.2349L61.4863 32.8641C61.5097 32.9015 61.5342 32.9271 61.561 32.9435C61.5879 32.9598 61.6217 32.968 61.6637 32.968H61.9286L62.3429 29.3142H61.8796L61.6007 31.7882C61.596 31.8255 61.5925 31.8652 61.589 31.9072L61.5865 31.9406L61.583 31.9905L61.5818 32.009L61.5797 32.0367L60.2085 29.4076ZM66.3047 32.9692H65.7784L65.9616 31.3342H64.4446L64.2602 32.9692H63.7351L64.147 29.3142H64.6757L64.4913 30.9235H66.0083L66.1904 29.3142H66.719L66.3047 32.9692ZM67.8013 31.6038H67.8008V31.605L67.8013 31.6038ZM67.8013 31.6038H68.8534L68.5908 30.2361C68.5815 30.1836 68.571 30.1241 68.5605 30.0564L68.5569 30.0331C68.5473 29.9719 68.5371 29.9062 68.5278 29.8358C68.501 29.9152 68.4753 29.9899 68.4473 30.0576L68.4261 30.1117C68.4075 30.1588 68.3906 30.202 68.3761 30.242L67.8013 31.6038ZM69.256 32.9692H69.6598L68.8499 29.3154H68.3166L66.6852 32.9692H67.0948C67.1379 32.9692 67.1765 32.9552 67.2103 32.9283C67.2441 32.9015 67.2686 32.8711 67.2838 32.835L67.6281 32.0157H68.9316L69.0926 32.835C69.1031 32.8758 69.1218 32.9085 69.1475 32.933C69.1731 32.9563 69.2093 32.9692 69.256 32.9692ZM74.0574 31.6038H74.0569V31.605L74.0574 31.6038ZM74.0574 31.6038H75.1095L74.8469 30.2361C74.8376 30.1836 74.8271 30.1241 74.8166 30.0564L74.813 30.0331L74.801 29.9553C74.7952 29.9171 74.7894 29.8773 74.7839 29.8358C74.7571 29.9152 74.7314 29.9899 74.7034 30.0576L74.6822 30.1117C74.6636 30.1588 74.6467 30.202 74.6322 30.242L74.0574 31.6038ZM75.5121 32.9692H75.9159L75.106 29.3154H74.5727L72.9413 32.9692H73.3509C73.3941 32.9692 73.4326 32.9552 73.4664 32.9283C73.5003 32.9015 73.5248 32.8711 73.5399 32.835L73.8842 32.0157H75.1877L75.3487 32.835C75.3592 32.8758 75.3779 32.9085 75.4036 32.933C75.4293 32.9563 75.4654 32.9692 75.5121 32.9692ZM77.9896 29.3294C78.0106 29.3399 78.0316 29.3656 78.0538 29.4076L79.4249 32.0367C79.4273 31.9924 79.4308 31.9492 79.4343 31.9072C79.4378 31.8652 79.4413 31.8255 79.446 31.7882L79.7249 29.3142H80.1881L79.7739 32.968H79.509C79.467 32.968 79.4331 32.9598 79.4063 32.9435C79.3794 32.9271 79.3549 32.9015 79.3316 32.8641L77.9651 30.2349C77.9623 30.2656 77.9602 30.2954 77.9584 30.324L77.9569 30.3458C77.9546 30.3808 77.9522 30.4135 77.9487 30.4438L77.6652 32.9692H77.2042L77.6161 29.3154H77.8881C77.9347 29.3154 77.9686 29.32 77.9896 29.3306V29.3294ZM81.2692 31.6038H81.2688V31.605L81.2692 31.6038ZM81.2692 31.6038H82.3214L82.0588 30.2361C82.0495 30.1836 82.0389 30.1241 82.0284 30.0564L82.0248 30.0331L82.0247 30.0326C82.0152 29.9716 82.0051 29.906 81.9958 29.8358C81.9689 29.9152 81.9433 29.9899 81.9153 30.0576L81.8835 30.1384C81.8691 30.1753 81.8558 30.2096 81.8441 30.242L81.2692 31.6038ZM82.724 32.9692H83.1277L82.3179 29.3154H81.7845L80.1531 32.9692H80.5627C80.6059 32.9692 80.6444 32.9552 80.6783 32.9283C80.7121 32.9015 80.7366 32.8711 80.7518 32.835L81.096 32.0157H82.3995L82.5606 32.835C82.5711 32.8758 82.5898 32.9085 82.6154 32.933C82.6411 32.9563 82.6773 32.9692 82.724 32.9692ZM85.278 31.7646L85.2853 31.7971L85.2936 31.8349C85.3111 31.7929 85.3286 31.7508 85.3473 31.71C85.366 31.6692 85.3858 31.6295 85.408 31.591L86.6438 29.4087C86.6765 29.3702 86.7045 29.3446 86.729 29.3329C86.7535 29.3212 86.7873 29.3154 86.8329 29.3154H87.2261L86.8142 32.9692H86.3556L86.6391 30.4473C86.6438 30.4088 86.6508 30.3645 86.659 30.3166C86.6634 30.2906 86.6682 30.2639 86.6731 30.2369L86.6855 30.17L86.6858 30.1684L85.4617 32.353C85.415 32.437 85.3485 32.4802 85.2621 32.4802H85.1898C85.1489 32.4802 85.1139 32.4697 85.0824 32.4487C85.0521 32.4277 85.0287 32.3962 85.0147 32.353L84.2702 30.1708C84.269 30.2198 84.2667 30.2665 84.2644 30.312C84.262 30.3563 84.2597 30.3983 84.2562 30.438L83.9726 32.9703H83.5117L83.9236 29.3165H84.3145C84.3379 29.3165 84.3577 29.3177 84.3729 29.32C84.3881 29.3224 84.4021 29.327 84.4149 29.3341C84.4277 29.3411 84.4394 29.3504 84.4499 29.3621C84.4604 29.3737 84.4721 29.3901 84.4849 29.4099L85.2341 31.5921C85.2469 31.6306 85.2574 31.6703 85.2668 31.7112L85.2656 31.71L85.278 31.7646ZM89.8576 29.7787L89.9113 29.3142H87.98L87.568 32.9692H89.5017L89.5554 32.5047H88.1445L88.2776 31.3494H89.3943L89.448 30.9036H88.3266L88.4538 29.7787H89.8576ZM71.2398 1.46921V0.113196H63.7853V1.46921H66.7482V10.1293H68.2827V1.46921H71.2398ZM79.523 5.12065C79.523 4.54534 79.4494 4.02837 79.3024 3.56975C79.1554 3.11113 78.9442 2.72137 78.6699 2.40162C78.3957 2.08187 78.0631 1.83564 77.6722 1.6641C77.2812 1.49255 76.8424 1.4062 76.3547 1.4062C75.8669 1.4062 75.4351 1.49255 75.0442 1.6641C74.6532 1.83564 74.3195 2.08187 74.0429 2.40162C73.7663 2.72137 73.5528 3.11113 73.4046 3.56975C73.2552 4.02837 73.1805 4.54534 73.1805 5.12065C73.1805 5.69597 73.2552 6.21993 73.4046 6.67855C73.5539 7.13717 73.7663 7.52577 74.0429 7.84319C74.3195 8.1606 74.6532 8.4045 75.0442 8.57371C75.4351 8.74292 75.8715 8.82811 76.3547 8.82811C76.8378 8.82811 77.2812 8.74408 77.6722 8.57371C78.0631 8.4045 78.3957 8.1606 78.6699 7.84319C78.9442 7.52577 79.1554 7.13717 79.3024 6.67855C79.4494 6.21993 79.523 5.70063 79.523 5.12065ZM81.0972 5.12065C81.0972 5.86284 80.9828 6.54669 80.7553 7.17218C80.5266 7.79767 80.2056 8.33681 79.7902 8.7896C79.3748 9.24121 78.8765 9.5948 78.2953 9.85037C77.713 10.1059 77.0677 10.2331 76.3558 10.2331C75.644 10.2331 75.0045 10.1059 74.4233 9.85037C73.841 9.59597 73.3427 9.24238 72.9249 8.7896C72.5072 8.33681 72.1851 7.79884 71.9564 7.17218C71.7276 6.54669 71.6144 5.86284 71.6144 5.12065C71.6144 4.37846 71.7288 3.69462 71.9564 3.06912C72.1851 2.44363 72.5072 1.90332 72.9249 1.44821C73.3415 0.994256 73.841 0.639498 74.4233 0.383932C75.0045 0.129533 75.6498 0.00116697 76.3558 0.00116697C77.0618 0.00116697 77.713 0.128366 78.2953 0.383932C78.8765 0.639498 79.3748 0.994256 79.7902 1.44821C80.2045 1.90216 80.5266 2.44246 80.7553 3.06912C80.984 3.69462 81.0972 4.37963 81.0972 5.12065ZM85.534 4.91293H84.3227V4.91176V1.38519H85.5737C86.268 1.38519 86.785 1.52989 87.1281 1.81697C87.47 2.10521 87.6416 2.52182 87.6416 3.06912C87.6416 3.34336 87.5972 3.59192 87.5097 3.81715C87.421 4.04237 87.2903 4.23609 87.1141 4.3983C86.939 4.56051 86.7197 4.68654 86.4559 4.77756C86.1922 4.86742 85.8853 4.91293 85.534 4.91293ZM84.3227 10.1293V6.09507V6.09274H85.1793C85.3555 6.09274 85.4873 6.11841 85.5749 6.16975C85.6624 6.2211 85.7441 6.30512 85.8188 6.42065L88.0313 9.79435C88.1539 10.0172 88.3522 10.1281 88.6241 10.1281H90L87.4385 6.30979C87.3031 6.09157 87.1374 5.92236 86.9449 5.80216C87.2915 5.69947 87.6019 5.55826 87.8761 5.37738C88.1515 5.1965 88.3814 4.98412 88.5681 4.73789C88.7548 4.49282 88.8972 4.21859 88.9964 3.91751C89.0956 3.61643 89.1446 3.29201 89.1446 2.94426C89.1446 2.51831 89.0746 2.13088 88.9369 1.78313C88.7992 1.43537 88.5845 1.13779 88.2951 0.889229C88.0045 0.640665 87.6357 0.449282 87.1853 0.315081C86.7348 0.18088 86.198 0.113196 85.5749 0.113196H82.7823V10.1293H84.3227ZM43.3575 14.9594C43.2688 15.1006 43.1766 15.2067 43.0798 15.2768C42.9829 15.3468 42.858 15.383 42.704 15.383C42.5686 15.383 42.4228 15.3398 42.2675 15.2546C42.1112 15.1694 41.935 15.0737 41.7377 14.9675C41.5405 14.8613 41.3153 14.7656 41.0621 14.6804C40.8088 14.5953 40.5206 14.5521 40.1973 14.5521C39.6384 14.5521 39.2218 14.6711 38.9475 14.9092C38.6733 15.1472 38.5368 15.4693 38.5368 15.8754C38.5368 16.1345 38.6196 16.3492 38.7841 16.5196C38.9487 16.69 39.1646 16.837 39.433 16.9607C39.7002 17.0844 40.0071 17.1976 40.3514 17.3003C40.6956 17.403 41.0469 17.5185 41.4063 17.6445C41.7658 17.7717 42.117 17.9199 42.4613 18.0903C42.8055 18.2607 43.1113 18.4789 43.3797 18.7438C43.6481 19.0087 43.864 19.3308 44.0285 19.7101C44.193 20.0893 44.2759 20.548 44.2759 21.0824C44.2759 21.6764 44.1732 22.2331 43.9666 22.7512C43.7601 23.2693 43.4614 23.7209 43.0704 24.106C42.6783 24.4911 42.1964 24.7945 41.6222 25.0151C41.0481 25.2357 40.3969 25.3465 39.6664 25.3465C39.2661 25.3465 38.8588 25.3057 38.4434 25.2228C38.028 25.14 37.6265 25.0244 37.2379 24.8739C36.8493 24.7234 36.4841 24.546 36.1433 24.3394C35.8025 24.134 35.505 23.9042 35.2517 23.6509L36.1351 22.2564C36.2063 22.156 36.2985 22.0732 36.4129 22.0043C36.5272 21.9366 36.6521 21.9028 36.7875 21.9028C36.9637 21.9028 37.1422 21.9588 37.3219 22.0708C37.5017 22.1829 37.7047 22.3066 37.9311 22.4419C38.1575 22.5773 38.4177 22.701 38.7118 22.813C39.0059 22.9251 39.3536 22.9811 39.7539 22.9811C40.2954 22.9811 40.7166 22.8621 41.0166 22.624C41.3165 22.3859 41.467 22.0078 41.467 21.4897C41.467 21.1898 41.3842 20.9459 41.2196 20.7568C41.0551 20.569 40.838 20.4126 40.5708 20.2889C40.3024 20.1652 39.999 20.0567 39.657 19.9621C39.3151 19.8676 38.965 19.7638 38.6068 19.6482C38.2473 19.5327 37.8973 19.3927 37.5565 19.2246C37.2146 19.0566 36.91 18.836 36.6428 18.5629C36.3744 18.2899 36.1585 17.948 35.9939 17.5383C35.8294 17.1299 35.7465 16.6246 35.7465 16.0248C35.7465 15.5428 35.8434 15.0714 36.0383 14.6128C36.232 14.1541 36.5179 13.7445 36.8948 13.3863C37.2718 13.0269 37.7339 12.7398 38.2812 12.5251C38.8285 12.3103 39.4552 12.203 40.1612 12.203C40.5556 12.203 40.9395 12.2333 41.313 12.2963C41.6864 12.3582 42.0412 12.4492 42.3761 12.5706C42.7122 12.6908 43.0249 12.8355 43.3167 13.0035C43.6084 13.1716 43.8686 13.3618 44.0974 13.573L43.3563 14.9594H43.3575ZM54.2336 20.7685C54.1333 20.5153 54.0282 20.2679 53.9197 20.0263L53.9174 20.0275C53.8089 19.7859 53.6957 19.5537 53.5778 19.3296L50.2671 12.8051C50.2088 12.6931 50.1481 12.6067 50.0862 12.5449C50.0244 12.483 49.9544 12.4375 49.8785 12.4084C49.8027 12.3792 49.7151 12.3617 49.6183 12.3558C49.5214 12.35 49.4082 12.3465 49.2787 12.3465H47.0008V25.2088H49.6311V17.8103C49.6311 17.6399 49.6253 17.4532 49.6136 17.2501C49.6019 17.0471 49.5844 16.8428 49.5611 16.6363L52.9861 23.2577C53.0923 23.4642 53.2347 23.6194 53.4144 23.7256C53.5941 23.8318 53.7984 23.8843 54.0282 23.8843H54.4343C54.6642 23.8843 54.8685 23.8318 55.0482 23.7256C55.2279 23.6194 55.3703 23.4642 55.4764 23.2577L58.884 16.6456C58.849 17.0634 58.8315 17.452 58.8315 17.8103V25.2088H61.463V12.3465H59.1851C59.0555 12.3465 58.9423 12.35 58.8455 12.3558C58.7486 12.3617 58.6611 12.3792 58.5853 12.4084C58.5082 12.4375 58.4394 12.483 58.3775 12.5449C58.3157 12.6067 58.255 12.6931 58.1966 12.8051L54.8953 19.3028C54.7716 19.5269 54.6549 19.7614 54.5464 20.0088C54.4378 20.2562 54.334 20.5094 54.2336 20.7685ZM64.9242 12.3453H67.9257V25.2077H64.9242V12.3453ZM79.1367 22.8247H74.3696V12.3453H71.3857V25.2088H79.1367V22.8247ZM89.9066 12.3453V14.6408H84.6273V17.6422H88.6708V19.8501H84.6273V22.9134H89.9066V25.2088H81.627V12.3453H89.9066ZM1.08878 17.5325C3.40054 23.7945 9.41976 28.2604 16.4799 28.2604L16.4787 28.2616C23.4794 28.2616 29.4519 23.8738 31.8045 17.7006C28.0235 21.1139 22.6812 23.2577 16.5383 23.2577C10.3953 23.2577 4.87909 21.0451 1.08878 17.5325ZM0 16.5371C0 7.45342 7.36356 0.0898565 16.4472 0.0910234V0.0898565C25.5297 0.0898565 32.8945 7.45342 32.8945 16.5371C32.8945 25.6208 25.5309 32.9843 16.4472 32.9843C7.36356 32.9843 0 25.6208 0 16.5371Z" fill="#F07C18"/>
</svg>
