<svg width="90" height="23" viewBox="0 0 90 23" fill="none" xmlns="http://www.w3.org/2000/svg">
<path fill-rule="evenodd" clip-rule="evenodd" d="M89.3039 2.24993C89.3039 3.18797 88.5939 3.87019 87.6698 3.87019C86.7456 3.87019 86.0237 3.18698 86.0237 2.24993C86.0237 1.31287 86.7456 0.629662 87.6698 0.629662C88.5939 0.629662 89.3039 1.29899 89.3039 2.24993ZM90 2.24993C90 0.978703 88.943 0 87.6698 0C86.3966 0 85.3534 0.978703 85.3534 2.24993C85.3534 3.52115 86.3985 4.51373 87.6698 4.51373C88.941 4.51373 90 3.53503 90 2.24993ZM62.5735 2.46213L66.4397 14.0628L71.9213 2.12796L77.3175 14.036L81.2413 2.46213H84.7743L77.9293 22.6321L71.9213 9.52921L65.8269 22.6044L59.0395 2.46213H62.5735ZM0.367881 8.93624H7.58272C9.30313 8.93624 10.9928 8.48308 12.4822 7.62337L20.2533 3.13641C20.5785 2.94801 20.4457 2.45122 20.0699 2.45122H12.855C11.1356 2.45122 9.44493 2.90339 7.95555 3.76409L0.184436 8.25105C0.0575124 8.32443 0 8.44441 0 8.56439C0 8.7518 0.138823 8.93624 0.367881 8.93624ZM0.367881 15.4034H7.58272C9.30313 15.4034 10.9928 14.9503 12.4822 14.0905L20.2533 9.60358C20.5785 9.41617 20.4457 8.91839 20.0699 8.91839H12.855C11.1356 8.91839 9.44493 9.37155 7.95555 10.2313L0.184436 14.7182C0.0575124 14.7916 0 14.9116 0 15.0316C0 15.219 0.138823 15.4034 0.367881 15.4034ZM7.58272 21.8884H0.367881C0.138823 21.8884 0 21.704 0 21.5166C0 21.3966 0.0575124 21.2766 0.184436 21.2032L7.95555 16.7163C9.44493 15.8566 11.1356 15.4034 12.855 15.4034H20.0699C20.4457 15.4034 20.5785 15.9002 20.2533 16.0886L12.4822 20.5756C10.9928 21.4353 9.30313 21.8884 7.58272 21.8884ZM32.8604 15.093L38.5075 2.46213H42.2072L32.8604 22.6877L23.5394 2.46213H27.2391L32.8604 15.093ZM56.8976 12.1996C56.8976 15.8992 55.0612 18.7104 49.9694 18.7104H46.7427V5.60548H49.9426C55.0612 5.60548 56.8976 8.41565 56.8976 12.1996ZM60.3752 12.1996C60.3752 6.52468 56.7588 2.46213 50.1925 2.46213H43.2642V21.8537H50.2193C56.7856 21.8537 60.3742 17.9032 60.3742 12.1996H60.3752ZM87.7233 2.15672C87.8839 2.15672 87.991 2.03574 87.991 1.86221C87.991 1.71546 87.8829 1.59448 87.7362 1.59448H87.4149V2.15672H87.7233ZM87.763 1.09968C88.2052 1.09968 88.5265 1.41996 88.5265 1.83544H88.5275C88.5275 2.11606 88.4065 2.34413 88.1794 2.47898L88.701 3.33473H88.0446L87.6162 2.59897H87.4149V3.33473H86.8527V1.09968H87.763Z" fill="#0A70A9"/>
</svg>
