<svg width="90" height="42" viewBox="0 0 90 42" fill="none" xmlns="http://www.w3.org/2000/svg">
<rect width="90" height="41.2227" rx="8" fill="#F58220"/>
<path fill-rule="evenodd" clip-rule="evenodd" d="M38.4552 13.0162C38.1576 13.0606 37.8947 13.1379 37.7672 13.3718C37.5585 13.7467 37.7073 14.3632 37.6976 14.8039C38.0629 14.8116 38.3837 14.8599 38.7799 14.8386C38.7799 14.8386 38.7799 14.8348 38.7799 14.8328C38.7934 14.8328 38.805 14.8328 38.8166 14.8328C38.9751 14.311 39.0118 13.4935 39.0273 12.9485C38.8359 12.9756 38.6369 12.9891 38.4552 13.0162Z" fill="white"/>
<path fill-rule="evenodd" clip-rule="evenodd" d="M27.6499 15.7373C27.563 15.745 27.4818 15.7566 27.4045 15.7663C26.3532 15.9151 26.2507 16.4504 26.3203 17.8033C26.3377 17.8033 26.3551 17.8013 26.3705 17.7994C27.0914 17.9598 27.648 17.411 27.7543 16.6456C27.791 16.3731 27.8142 15.9538 27.6499 15.7373Z" fill="white"/>
<path fill-rule="evenodd" clip-rule="evenodd" d="M59.9188 14.5159C59.799 13.6578 60.0599 12.7978 60.5527 12.3939C61.03 12.0035 61.8611 11.8566 61.7374 12.848C61.6465 13.5824 60.6107 14.2492 59.9169 14.5159H59.9188ZM54.3316 24.9095C54.2195 25.4487 53.8716 26.4749 53.4677 26.3532C53.116 26.1483 53.0966 25.5318 53.1875 24.8863C53.344 23.7963 53.7479 22.1343 54.2697 21.9217C54.78 21.6994 54.5403 23.9413 54.3297 24.9095H54.3316ZM54.5848 15.7102C54.577 16.462 54.5596 17.1481 54.061 17.5945C53.5856 18.0217 52.7932 18.1318 52.455 17.525C51.8598 16.4543 52.4512 14.3439 53.6416 14.139C54.635 13.969 54.5925 14.9932 54.5848 15.7102ZM14.081 24.6215C13.6326 24.9404 13.047 25.097 12.3977 25.2129C12.7475 23.7229 13.5476 22.3333 14.3516 21.1873C14.3921 22.2019 14.1699 23.4929 14.0829 24.6215H14.081ZM10.5462 23.1083C10.5617 24.1674 10.5134 24.9037 10.2563 25.7927C9.85436 25.955 9.62438 25.984 9.07552 26.0517C9.17601 25.3424 8.83781 22.1555 9.39633 21.6414C9.67463 21.3883 10.3047 21.3747 10.4767 21.7458C10.5984 22.0048 10.5404 22.629 10.5482 23.1083H10.5462ZM7.79033 26.1077H7.05593C7.16609 25.4023 7.44439 24.867 7.79033 24.3974C7.89662 24.7645 7.90049 25.642 7.79033 26.1077ZM6.98829 29.8067C6.07417 29.6792 6.70227 27.534 6.81436 26.8054C6.82016 26.7841 6.84914 26.7706 6.88393 26.7706C7.1545 26.7919 7.71496 26.7551 7.72075 26.8054C7.5101 27.9147 7.34583 29.8203 6.98829 29.8067ZM2.17221 23.6649C2.40219 25.4429 4.31742 25.7115 6.39884 26.0613C6.70033 25.2477 6.91099 24.6138 7.30138 23.8388C7.427 23.5915 7.68597 23.2745 7.68597 23.0696C7.68597 22.8783 7.37675 22.3546 7.19702 22.0917C6.72932 21.4153 5.87511 20.7795 4.68268 20.9399C3.61395 21.0848 1.97702 22.1652 2.17028 23.661L2.17221 23.6649ZM67.1197 13.1205C66.2945 11.9474 67.1951 10.3182 67.3999 9.10649C66.9593 9.29396 66.3486 9.87954 66.2481 9.84089C65.7997 9.52007 65.9833 8.8997 65.5504 8.58469C64.5919 7.88508 63.8826 9.05818 63.8748 9.8061C63.8652 10.7183 64.673 11.0932 64.3619 12.0402C63.9444 13.3177 62.5877 15.0164 61.5364 15.4242C60.974 15.6426 60.3266 15.6349 60.2454 15.0416C61.0552 14.4328 62.5723 13.5129 62.5143 12.1446C62.464 10.9753 60.9334 10.9038 60.1062 11.273C58.6123 11.9397 57.7214 13.6849 57.8354 15.8706C57.4141 16.3113 56.9522 16.8196 56.3705 17.1017C56.2603 16.319 56.4304 14.9101 56.3705 13.8569C56.3415 13.3447 56.3029 12.7572 55.9183 12.6702C55.1703 12.4982 54.8747 13.1882 54.7336 13.7177C54.1093 13.7119 53.9972 13.3892 53.3711 13.4375C53.0754 13.4607 52.7894 13.5612 52.6038 13.6462C51.8366 13.9999 50.9128 14.9391 50.648 15.8088C50.4567 16.4427 50.447 17.3414 50.0547 17.9038C49.8846 18.1453 49.5078 18.4874 49.2546 18.5319C48.7367 18.6208 48.468 18.2265 48.2767 17.9733C48.0506 17.6776 47.8709 17.2467 47.6834 16.8215C47.523 16.4582 47.3278 15.8513 47.0553 15.6697C46.0619 15.0068 45.1265 16.3654 44.7883 16.5413C44.4598 16.2726 43.9457 15.9499 43.8452 16.0175C42.7436 16.7597 41.8082 18.1473 40.7762 19.158C40.2853 19.6373 39.4524 20.5109 38.9267 19.8209C38.7083 19.2991 39.2031 18.1763 38.7876 17.7279C38.3817 17.2911 37.313 17.9231 37.2859 18.0758C37.2705 19.7842 36.4162 21.0675 35.2257 21.7748C35.0769 21.1737 35.1098 20.766 34.8083 20.3427C34.4218 19.8035 33.5521 19.6045 33.2023 19.1909C32.9723 18.9184 32.7578 18.0603 32.2959 18.0738C31.8475 18.0874 31.4881 19.0691 31.2832 19.5407C30.7092 20.8665 30.3787 21.5274 29.5728 22.6464C29.2501 23.0948 28.7631 23.8253 28.2799 23.8678C26.9 23.9876 27.8837 20.4819 27.5127 20.4838C26.8962 20.451 26.0825 20.6094 26.0458 20.764C25.9956 22.3488 25.0041 24.2311 23.918 25.1607C23.4175 25.5898 22.542 25.9782 21.825 25.8584C20.7118 25.6748 20.0953 24.4109 20.3949 23.0329C20.5031 22.5324 20.8142 21.5545 21.4075 21.2182C23.2203 20.1862 23.2841 24.0688 21.9351 23.9026C21.68 23.8697 21.6375 23.404 21.3998 23.4465C21.1795 23.4813 21.4443 24.1751 21.508 24.5964C21.5583 24.7336 22.0608 24.7974 22.6637 24.3587C23.7653 23.5547 23.7847 20.2731 21.6511 20.5901C21.4307 20.623 21.1505 20.7408 20.9882 20.8336C20.5958 21.0559 20.1842 21.5951 19.9059 22.1265C19.5329 22.8339 19.4305 23.4697 19.2778 24.3587C19.1367 25.1897 18.7231 26.0285 18.0912 26.3821C16.6147 27.2112 15.6097 25.5917 15.6638 24.3568C16.0813 23.9606 16.634 23.5431 16.9393 23.0329C16.3402 23.1547 16.0813 23.6166 15.5788 23.8369C15.4899 21.0307 16.0484 19.0749 16.8002 17.065C15.9054 17.4863 15.515 18.3811 14.9835 19.1947C14.653 19.703 14.3226 20.248 14.0404 20.764C13.4316 21.885 12.8673 23.0387 12.1561 24.0804C12.0459 23.0832 12.4962 21.1428 11.7715 20.4857C10.9888 19.7745 9.71135 20.7563 9.11997 21.1138C8.17492 20.3195 6.96317 19.531 5.38615 19.8576C3.70671 20.2055 1.59243 21.6588 1.58277 23.4175C1.57504 24.7974 2.51042 25.3695 3.51538 25.8217C4.39279 26.214 5.39775 26.4285 6.2597 26.6295C6.07417 27.7504 5.73403 29.2675 6.04904 30.3286C6.26356 31.0513 6.93611 30.9895 7.4096 30.5392C8.28894 29.7043 8.62522 28.0964 9.01367 26.7706C9.41566 26.7764 9.84277 26.6836 10.2061 26.5793C10.2254 27.4412 9.97418 28.6394 10.3047 29.3526C10.7627 30.3479 11.4449 28.8714 11.5261 28.479C11.729 27.5127 11.93 26.8537 12.1522 26.127C12.875 25.9531 13.478 25.642 14.168 25.2322C14.1235 26.7049 14.8656 28.2703 16.0986 28.2703C16.7751 28.2703 17.7974 27.5842 18.1917 27.2576C18.671 26.8634 18.9435 26.2507 19.5174 26.1058C20.0064 26.6411 20.4934 27.217 21.4365 27.2228C23.5837 27.2344 24.6872 25.0274 25.6941 23.9065C25.6071 24.9849 26.1463 26.2701 27.159 25.8951C27.7581 25.6748 28.4713 25.124 28.9389 24.6389C29.225 24.3452 29.4917 23.8968 29.7777 23.4871C30.5952 22.3217 31.1962 20.6925 31.8707 19.5446C32.7385 19.8847 33.4323 21.4095 33.1269 22.4396C32.8544 23.3576 32.006 23.4252 31.0668 23.7325C31.1692 24.1809 31.633 24.3722 32.0794 24.3954C33.2757 24.4573 34.2652 23.4562 35.046 22.7894C35.8461 22.1072 36.3621 21.1737 37.1042 20.7312C37.0153 21.5738 37.3226 22.5266 38.0454 22.5807C38.5286 22.6155 39.0349 22.142 39.3712 21.8134C40.4593 20.7486 41.4758 19.4402 42.4769 18.5686C42.6219 19.5291 42.3011 20.3756 42.3378 21.5004C42.9388 21.6453 43.4529 21.4076 43.8027 21.1873C44.168 20.2751 43.9071 17.5095 45.0589 17.3491C45.3894 17.3027 45.7488 17.5559 45.9305 17.7665C46.3943 18.3096 46.6958 19.5291 47.1867 19.9659C47.5423 20.2828 48.1376 20.1649 48.4796 20.0007C49.2952 19.6064 49.9252 18.7928 50.5379 18.1163C51.0867 18.4797 51.4694 18.9223 52.1439 19.0943C53.3518 19.3996 54.1847 18.1434 55.0041 17.8033C54.5384 19.8808 53.4097 21.1641 52.9459 23.3866C52.7256 24.4515 52.5091 26.5909 52.7372 27.5746C52.9169 28.3554 53.5972 28.6027 54.1325 28.0287C54.4186 27.7215 54.6717 27.103 54.9017 26.529C55.5259 24.9636 55.9859 22.7334 56.0091 20.7621C56.0149 20.2306 55.9917 19.6914 56.0265 19.2179C56.1289 17.8168 57.1107 17.0051 58.0461 16.3267C58.4693 16.7075 59.0452 16.9162 59.7159 17.0032C61.7412 17.266 63.5289 15.1285 64.1493 13.7912C64.445 13.1495 64.8199 12.361 64.9513 11.559C65.0711 11.2362 65.3707 11.0739 65.6838 11.1396C65.3108 12.8075 65.4113 15.2851 67.3941 15.258C67.9913 15.2483 68.575 14.9816 68.9654 14.6995C69.5587 14.2666 69.9896 13.5225 70.1172 12.7437C69.3152 13.3177 67.9295 14.284 67.1139 13.1283L67.1197 13.1205Z" fill="white"/>
<path fill-rule="evenodd" clip-rule="evenodd" d="M79.0382 13.2171C76.2533 12.3127 73.3215 12.0189 70.5772 12.2528C72.9002 12.1561 75.3353 12.4576 77.6583 13.2113C83.5064 15.1092 86.8247 19.272 86.1696 23.2706C86.8866 24.3935 86.5812 25.8584 85.354 26.6681C85.2786 27.0527 85.0796 27.4161 84.722 27.7195C83.7461 28.5466 82.8339 29.513 81.6047 30.143C80.8491 30.5295 80.5418 30.6184 79.6508 30.8097C79.5561 30.831 79.2817 30.9025 79.1793 30.9257C78.8353 31.0494 78.5067 31.1924 78.1666 31.3238C77.695 31.5055 77.1887 31.5866 76.6785 31.5866C76.1064 31.6987 75.4783 31.7374 74.829 31.7045C74.3671 31.6813 73.2558 31.8263 72.5523 31.8128C71.4759 31.7915 70.4323 31.6504 69.3732 31.5093C76.5142 33.239 84.206 31.1789 87.0933 26.5812C90.1875 21.6491 86.5812 15.6677 79.0401 13.2191L79.0382 13.2171Z" fill="#120C15"/>
<path fill-rule="evenodd" clip-rule="evenodd" d="M82.1671 16.2881C79.962 14.9527 77.3568 14.1197 74.6975 13.7873C76.9046 14.1584 79.0421 14.8985 80.8838 16.0137C86.4904 19.4073 87.2286 24.9733 82.5362 28.4462C77.8419 31.9172 69.493 31.9809 63.8865 28.5853C60.3247 26.4285 58.7322 23.3943 59.2424 20.5785C58.3534 23.7345 60.0174 27.2364 64.0566 29.6831C70.0303 33.3009 78.9261 33.2352 83.9258 29.5342C88.9255 25.8352 88.1389 19.904 82.1671 16.2881Z" fill="white"/>
<path fill-rule="evenodd" clip-rule="evenodd" d="M65.3089 22.0821L63.9541 22.8242L63.958 23.9007L65.3147 23.1605L65.336 27.1938L66.7236 27.1861L66.6965 22.0763L65.3089 22.0821Z" fill="white"/>
<path fill-rule="evenodd" clip-rule="evenodd" d="M70.6893 25.0931C70.8226 25.2264 70.8864 25.4216 70.8883 25.669C70.8883 25.9318 70.8284 26.1328 70.7047 26.2681C70.581 26.4034 70.4032 26.471 70.1539 26.4729C69.9143 26.4729 69.7268 26.4072 69.6012 26.2739C69.4756 26.1405 69.4137 25.9376 69.4118 25.6767C69.4118 25.4293 69.4717 25.2341 69.6051 25.0989C69.7288 24.9558 69.9143 24.8882 70.1462 24.8863C70.3781 24.8863 70.5636 24.952 70.6893 25.0931ZM69.6379 22.9285C69.7442 22.8164 69.9124 22.7546 70.1346 22.7546C70.3569 22.7546 70.5269 22.8126 70.6429 22.9247C70.7588 23.0445 70.813 23.2165 70.8149 23.4542C70.8149 23.6707 70.755 23.8369 70.639 23.9567C70.525 24.0765 70.3549 24.1383 70.1423 24.1383C69.9298 24.1383 69.7597 24.0804 69.6437 23.9605C69.5278 23.8407 69.4737 23.6764 69.4717 23.46C69.4717 23.2204 69.522 23.0483 69.6379 22.9285ZM68.2522 24.9636C68.0938 25.182 68.0145 25.4371 68.0165 25.7347C68.0184 26.1985 68.2155 26.5638 68.6001 26.8459C68.9924 27.1204 69.5084 27.2595 70.1578 27.2576C70.8072 27.2537 71.3212 27.1088 71.7116 26.8305C72.0923 26.5445 72.2856 26.1773 72.2837 25.7134C72.2837 25.4139 72.2006 25.1607 72.0402 24.9442C71.8798 24.7278 71.6478 24.5577 71.3348 24.4398C71.5841 24.3258 71.7696 24.1751 71.901 23.9953C72.0247 23.8156 72.0866 23.5972 72.0846 23.3498C72.0827 22.9382 71.903 22.6019 71.5377 22.3507C71.1802 22.0975 70.7086 21.9738 70.1307 21.9757C69.5432 21.9796 69.0833 22.1091 68.7277 22.3642C68.374 22.6212 68.1981 22.9575 68.2001 23.3692C68.2001 23.6165 68.2638 23.833 68.3895 24.0108C68.5151 24.1905 68.7025 24.3393 68.9518 24.4495C68.6407 24.5712 68.403 24.7433 68.2522 24.9616V24.9636ZM75.5343 25.0679C75.6677 25.2013 75.7315 25.3965 75.7334 25.6439C75.7334 25.9067 75.6735 26.1077 75.5498 26.243C75.4261 26.3782 75.2483 26.4459 74.999 26.4478C74.7594 26.4478 74.5719 26.3821 74.4463 26.2488C74.3207 26.1154 74.2588 25.9125 74.2569 25.6516C74.2569 25.4042 74.3168 25.209 74.4501 25.0737C74.5738 24.9307 74.7594 24.8631 74.9913 24.8611C75.2232 24.8611 75.4087 24.9269 75.5343 25.0679ZM74.483 22.9034C74.5893 22.7913 74.7574 22.7295 74.9797 22.7295C75.2019 22.7295 75.372 22.7874 75.488 22.8995C75.6039 23.0194 75.658 23.1914 75.66 23.4291C75.66 23.6455 75.6 23.8117 75.4841 23.9316C75.3701 24.0514 75.2 24.1132 74.9874 24.1132C74.7748 24.1132 74.6047 24.0552 74.4888 23.9354C74.3728 23.8156 74.3187 23.6513 74.3168 23.4349C74.3168 23.1952 74.369 23.0232 74.483 22.9034ZM73.0973 24.9384C72.9388 25.1568 72.8596 25.4119 72.8615 25.7096C72.8635 26.1734 73.0606 26.5387 73.4452 26.8208C73.8375 27.0952 74.3535 27.2344 75.0029 27.2325C75.6522 27.2286 76.1663 27.0837 76.5567 26.8054C76.9374 26.5193 77.1307 26.1521 77.1287 25.6864C77.1287 25.3868 77.0456 25.1336 76.8852 24.9172C76.7248 24.7007 76.4929 24.5307 76.1798 24.4128C76.4272 24.2988 76.6147 24.148 76.7461 23.9683C76.8698 23.7885 76.9297 23.5702 76.9297 23.3247C76.9278 22.9131 76.748 22.5768 76.3828 22.3255C76.0252 22.0724 75.5537 21.9487 74.9758 21.9506C74.3883 21.9545 73.9283 22.084 73.5727 22.3391C73.2191 22.5961 73.0432 22.9324 73.0451 23.344C73.0451 23.5914 73.1089 23.8079 73.2345 23.9857C73.3601 24.1654 73.5476 24.3142 73.7969 24.4244C73.4858 24.5461 73.2481 24.7201 73.0973 24.9365V24.9384ZM80.3794 25.0428C80.5128 25.1762 80.5765 25.3714 80.5785 25.6187C80.5785 25.8816 80.5186 26.0826 80.3949 26.2178C80.2712 26.3531 80.0934 26.4208 79.8441 26.4227C79.6044 26.4227 79.417 26.357 79.2913 26.2236C79.1657 26.0903 79.1019 25.8874 79.1019 25.6265C79.1019 25.3791 79.1619 25.1839 79.2952 25.0486C79.4189 24.9056 79.6044 24.838 79.8363 24.836C80.0683 24.836 80.2538 24.9017 80.3794 25.0428ZM79.3281 22.8783C79.4344 22.7662 79.6025 22.7043 79.8247 22.7043C80.047 22.7043 80.2171 22.7623 80.333 22.8744C80.449 22.9942 80.5031 23.1662 80.505 23.4039C80.505 23.6204 80.4451 23.7866 80.3292 23.9064C80.2132 24.0263 80.0451 24.0881 79.8325 24.0881C79.6199 24.0881 79.4498 24.0301 79.3339 23.9103C79.2179 23.7905 79.1638 23.6262 79.1619 23.4097C79.1619 23.1701 79.214 22.9981 79.3281 22.8783ZM77.9424 24.9133C77.7839 25.1317 77.7047 25.3868 77.7066 25.6844C77.7085 26.1483 77.9057 26.5135 78.2902 26.7957C78.6826 27.0701 79.1986 27.2093 79.8479 27.2073C80.4973 27.2035 81.0114 27.0585 81.4018 26.7802C81.7825 26.4942 81.9757 26.127 81.9738 25.6632C81.9738 25.3636 81.8907 25.1104 81.7303 24.894C81.5699 24.6775 81.338 24.5075 81.0249 24.3896C81.2723 24.2756 81.4597 24.1248 81.5912 23.9451C81.7148 23.7653 81.7748 23.547 81.7748 23.2996C81.7728 22.8879 81.5931 22.5517 81.2278 22.3004C80.8703 22.0473 80.3987 21.9236 79.8209 21.9255C79.2334 21.9294 78.7734 22.0588 78.4178 22.314C78.0641 22.571 77.8883 22.9073 77.8902 23.3189C77.8902 23.5663 77.954 23.7827 78.0796 23.9625C78.2052 24.1422 78.3927 24.291 78.642 24.4012C78.3308 24.5229 78.0931 24.6949 77.9424 24.9133Z" fill="white"/>
<path fill-rule="evenodd" clip-rule="evenodd" d="M64.7871 20.364C64.9436 20.4046 65.106 20.422 65.2722 20.422C65.5659 20.422 65.8056 20.3466 65.9776 20.2016C66.1573 20.0625 66.2462 19.8712 66.2443 19.6315C66.2443 19.4576 66.1998 19.3204 66.1109 19.2063C66.0201 19.0923 65.8288 18.9628 65.5331 18.8198C65.5215 18.814 65.5022 18.8024 65.479 18.7966C65.1002 18.613 64.9146 18.4526 64.9127 18.3135C64.9127 18.242 64.9417 18.1821 65.0016 18.1453C65.0673 18.1028 65.1504 18.0854 65.2644 18.0835C65.3901 18.0835 65.5157 18.1067 65.6548 18.1473C65.792 18.1878 65.9428 18.2594 66.1109 18.3483V17.8207C65.9756 17.7433 65.8384 17.6892 65.6935 17.6544C65.5563 17.6197 65.4055 17.6023 65.2548 17.6023C64.9726 17.6023 64.7523 17.6699 64.59 17.8033C64.4296 17.9366 64.3465 18.1163 64.3465 18.3444C64.3465 18.5183 64.3967 18.6671 64.4875 18.787C64.5842 18.9068 64.7581 19.0247 65.0113 19.1561C65.0596 19.1793 65.1253 19.216 65.2103 19.2566C65.5041 19.3996 65.6548 19.5291 65.6568 19.6431C65.6568 19.7339 65.6162 19.7997 65.5389 19.8538C65.4616 19.9079 65.3533 19.933 65.2161 19.933C65.0905 19.933 64.9514 19.904 64.8025 19.8518C64.6518 19.7919 64.4953 19.7165 64.3329 19.6083L64.3368 20.1842C64.4875 20.2673 64.6363 20.3273 64.7871 20.362V20.364ZM66.8202 17.0747C66.8801 17.1346 66.9516 17.1636 67.0367 17.1636C67.1198 17.1636 67.1932 17.1326 67.2512 17.0727C67.3111 17.0128 67.3401 16.9413 67.3401 16.8563C67.3401 16.7732 67.3092 16.6997 67.2492 16.6418C67.1893 16.5818 67.1178 16.5529 67.0328 16.5529C66.9497 16.5529 66.8762 16.5838 66.8183 16.6437C66.7584 16.7036 66.7294 16.7751 66.7294 16.8601C66.7294 16.9432 66.7603 17.0167 66.8202 17.0747ZM67.3227 20.3562L67.3092 17.6525H66.77L66.7835 20.3582H67.3227V20.3562ZM68.5692 20.3504L68.5596 18.4024C68.6601 18.2767 68.7625 18.1859 68.863 18.1318C68.9654 18.0777 69.091 18.0526 69.2282 18.0526C69.4196 18.0526 69.5645 18.1047 69.6611 18.2072C69.752 18.3154 69.8003 18.4758 69.8022 18.6923L69.81 20.3466H70.3492L70.3395 18.5512C70.3395 18.2574 70.2525 18.0236 70.0844 17.8516C69.9163 17.6854 69.6824 17.6023 69.3886 17.6042C69.2321 17.6042 69.0891 17.6351 68.9577 17.697C68.8263 17.7569 68.689 17.8477 68.5576 17.9811V17.6506L68.0165 17.6525L68.03 20.3562H68.5692V20.3504ZM72.763 19.8248C72.6374 19.8557 72.506 19.8731 72.3745 19.875C72.0866 19.875 71.8527 19.7939 71.6711 19.6276C71.4971 19.4614 71.4063 19.245 71.4044 18.9822C71.4044 18.7251 71.4913 18.5087 71.6653 18.3463C71.8373 18.1782 72.0653 18.0932 72.3417 18.0912C72.4673 18.0912 72.5929 18.1086 72.7127 18.1434C72.8384 18.1782 72.9582 18.2323 73.0857 18.3096L73.0819 17.7337C72.9563 17.6738 72.8364 17.6332 72.7089 17.61C72.5775 17.581 72.4518 17.5694 72.3185 17.5694C71.8933 17.5713 71.5396 17.7047 71.2594 17.9772C70.9792 18.2478 70.8362 18.584 70.8381 18.986C70.84 19.3938 70.985 19.7339 71.2691 19.9968C71.5512 20.2596 71.9126 20.3891 72.3552 20.3872C72.4808 20.3872 72.6065 20.3736 72.7379 20.3485C72.8635 20.3234 72.9949 20.2867 73.1321 20.2384V19.6876C73.0104 19.7475 72.8848 19.7958 72.7591 19.8267L72.763 19.8248ZM76.0272 19.4846C75.8301 19.6122 75.6387 19.7146 75.4532 19.7745C75.2677 19.8422 75.0879 19.8731 74.914 19.8731C74.657 19.8731 74.4521 19.8035 74.3014 19.6605C74.1506 19.5175 74.0656 19.3204 74.0463 19.0633L76.0716 19.0537V18.9764C76.0697 18.5396 75.9537 18.1975 75.7238 17.9405C75.4938 17.6834 75.1826 17.5597 74.7922 17.5617C74.3961 17.5636 74.0791 17.6912 73.8356 17.9443C73.5902 18.1975 73.4723 18.528 73.4742 18.93C73.4761 19.3745 73.6037 19.7262 73.8627 19.989C74.1158 20.2519 74.4579 20.3814 74.8831 20.3794C75.086 20.3794 75.2851 20.3466 75.4764 20.2925C75.6619 20.2326 75.8475 20.1475 76.0272 20.0258V19.4866H76.0253L76.0272 19.4846ZM74.2936 18.1936C74.4192 18.0796 74.5874 18.0236 74.7903 18.0236C74.9758 18.0236 75.1324 18.0816 75.258 18.2014C75.3836 18.3212 75.4571 18.4758 75.4764 18.6729L74.0443 18.6807C74.0849 18.4642 74.1622 18.3019 74.2936 18.1936Z" fill="#231F20"/>
</svg>
