<svg width="20" height="20" viewBox="0 0 20 20" fill="none" xmlns="http://www.w3.org/2000/svg">
<path fill-rule="evenodd" clip-rule="evenodd" d="M17.6562 1.5625H16.7188V0H15.1562V1.5625H4.84375V0H3.28125V1.5625H2.34375C1.05141 1.5625 0 2.61391 0 3.90625V17.6562C0 18.9486 1.05141 20 2.34375 20H17.6562C18.9486 20 20 18.9486 20 17.6562V3.90625C20 2.61391 18.9486 1.5625 17.6562 1.5625ZM18.4375 17.6562C18.4375 18.087 18.087 18.4375 17.6562 18.4375H2.34375C1.91297 18.4375 1.5625 18.087 1.5625 17.6562V7.34375H18.4375V17.6562ZM1.5625 5.78125H18.4375V3.90625C18.4375 3.47547 18.087 3.125 17.6562 3.125H16.7188V4.6875H15.1562V3.125H4.84375V4.6875H3.28125V3.125H2.34375C1.91297 3.125 1.5625 3.47547 1.5625 3.90625V5.78125ZM2.96875 8.98438H4.53125V10.5469H2.96875V8.98438ZM7.65625 8.98438H6.09375V10.5469H7.65625V8.98438ZM9.21875 8.98438H10.7812V10.5469H9.21875V8.98438ZM13.9062 8.98438H12.3438V10.5469H13.9062V8.98438ZM15.4688 8.98438H17.0312V10.5469H15.4688V8.98438ZM4.53125 12.1094H2.96875V13.6719H4.53125V12.1094ZM6.09375 12.1094H7.65625V13.6719H6.09375V12.1094ZM10.7812 12.1094H9.21875V13.6719H10.7812V12.1094ZM12.3438 12.1094H13.9062V13.6719H12.3438V12.1094ZM4.53125 15.2344H2.96875V16.7969H4.53125V15.2344ZM6.09375 15.2344H7.65625V16.7969H6.09375V15.2344ZM10.7812 15.2344H9.21875V16.7969H10.7812V15.2344ZM12.3438 15.2344H13.9062V16.7969H12.3438V15.2344ZM17.0312 12.1094H15.4688V13.6719H17.0312V12.1094Z" fill="#B2C8DA"/>
</svg>
