<svg width="1120" height="308" viewBox="0 0 1120 308" fill="none" xmlns="http://www.w3.org/2000/svg">
<path fill-rule="evenodd" clip-rule="evenodd" d="M514.266 78.3859C512.888 95.57 516.913 134.913 525.104 143.63C526.944 145.589 528.867 146 530.16 146C541.308 146 542.27 134.127 543.289 121.555L543.289 121.553C544.658 104.615 546.619 92.6232 559.5 92.6232C572.381 92.6232 574.342 104.615 575.711 121.553L575.711 121.555C576.73 134.128 577.692 146 588.841 146C590.133 146 592.056 145.588 593.896 143.63C602.09 134.91 606.115 95.5443 604.733 78.3691C942.666 83.9782 1120 151.647 1120 151.647V311H0V151.647C0 151.647 176.984 84.1118 514.266 78.3859Z" fill="url(#paint0_linear_36_31772)"/>
<mask id="mask0_36_31772" style="mask-type:luminance" maskUnits="userSpaceOnUse" x="0" y="78" width="1120" height="233">
<path fill-rule="evenodd" clip-rule="evenodd" d="M514.266 78.3859C512.888 95.57 516.913 134.913 525.104 143.63C526.944 145.589 528.867 146 530.16 146C541.308 146 542.27 134.127 543.289 121.555L543.289 121.553C544.658 104.615 546.619 92.6232 559.5 92.6232C572.381 92.6232 574.342 104.615 575.711 121.553L575.711 121.555C576.73 134.128 577.692 146 588.841 146C590.133 146 592.056 145.588 593.896 143.63C602.09 134.91 606.115 95.5443 604.733 78.3691C942.666 83.9782 1120 151.647 1120 151.647V311H0V151.647C0 151.647 176.984 84.1118 514.266 78.3859Z" fill="white"/>
</mask>
<g mask="url(#mask0_36_31772)">
<path fill-rule="evenodd" clip-rule="evenodd" d="M-2.71797e-05 264.25C4.07865 257.841 10.982 262.893 19.292 268.975C28.8096 275.94 40.1723 284.256 51.25 278.25C64.105 271.28 51.629 234.086 42.4736 206.792C36.8508 190.029 32.4805 177 36 177C39.2044 177 44.1191 188.101 50.3177 202.103C62.0121 228.518 78.2767 265.256 96.25 257.25C113.758 249.451 110.189 231.923 107.542 218.926C106.031 211.509 104.821 205.567 108 203.75C111.48 201.761 115.91 208.198 121.353 216.105C129.592 228.077 140.152 243.42 153.25 238C165.916 232.759 159.845 201.66 154.886 176.251C151.328 158.027 148.342 142.731 153.25 142C158.124 141.274 163.47 154.999 169.825 171.312C178.792 194.33 189.765 222.5 204.25 222.5C217.916 222.5 216.49 206.036 215.166 190.743C214.092 178.339 213.085 166.705 220.25 165.25C227.121 163.854 230.119 172.601 233.561 182.641C238.133 195.98 243.489 211.603 259.75 208.75C276.921 205.738 270.588 170.601 265.738 143.689C262.538 125.932 259.983 111.756 265.25 112.75C270.518 113.744 274.166 126.359 278.457 141.196C284.957 163.673 292.932 191.25 310.25 191.25C326.368 191.25 325.985 173.021 325.665 157.751C325.414 145.783 325.201 135.633 333 137.5C340.496 139.295 343.177 148.448 346.032 158.197C349.938 171.532 354.17 185.983 371.5 184.25C388.507 182.549 384.544 153.772 381.155 129.164C378.566 110.365 376.313 94 384 94C391.875 94 394.829 110.139 398.036 127.661C402.058 149.634 406.478 173.782 421.5 171C435.799 168.352 436.004 152.171 436.19 137.533C436.355 124.533 436.504 112.75 446.5 112.75C456.589 112.75 458.394 124.978 460.263 137.636C462.33 151.639 464.475 166.169 478 165.25C493.651 164.186 495.079 143.452 496.262 126.284C497.025 115.206 497.686 105.613 502 103.75C506.586 101.769 507.913 111.698 509.55 123.948C511.84 141.079 514.736 162.75 528 162.75C552.128 162.75 553.198 151.599 555.86 123.876L555.861 123.869C556.26 119.709 556.696 115.175 557.25 110.25C557.682 106.412 558.103 100.9 558.486 94.9217C546.891 95.9896 545.021 109.611 543.701 128.537L543.701 128.539C542.676 143.177 541.709 157 530.5 157C529.2 157 527.267 156.521 525.417 154.24C516.954 143.812 512.914 95.7326 514.647 76.6834C523.799 76.0814 538.161 75.5 559.5 75.5C559.52 75.5 559.539 75.5 559.559 75.5C559.706 72.4829 559.833 69.7082 559.938 67.3659C560.042 69.7083 560.169 72.4831 560.316 75.5003C581.256 75.5149 595.844 76.0912 605.353 76.6867C607.086 95.7381 603.045 143.812 594.583 154.24C592.733 156.521 590.799 157 589.5 157C578.291 157 577.324 143.177 576.299 128.538L576.299 128.537C574.974 109.543 573.096 95.8915 561.388 94.9106C561.772 100.893 562.193 106.409 562.625 110.25C563.179 115.175 563.615 119.709 564.014 123.869L564.015 123.876C566.677 151.599 567.747 162.75 591.875 162.75C605.139 162.75 608.035 141.079 610.325 123.948C611.962 111.698 613.289 101.769 617.875 103.75C622.189 105.613 622.85 115.206 623.613 126.284V126.284C624.796 143.452 626.224 164.186 641.875 165.25C655.4 166.169 657.545 151.639 659.612 137.636C661.481 124.978 663.286 112.75 673.375 112.75C683.371 112.75 683.52 124.533 683.685 137.533C683.871 152.171 684.076 168.352 698.375 171C713.397 173.782 717.817 149.634 721.839 127.661C725.046 110.139 728 94 735.875 94C743.562 94 741.309 110.365 738.72 129.164C735.331 153.772 731.368 182.549 748.375 184.25C765.705 185.983 769.937 171.532 773.843 158.197C776.698 148.448 779.379 139.295 786.875 137.5C794.674 135.633 794.461 145.783 794.21 157.751C793.89 173.021 793.507 191.25 809.625 191.25C826.943 191.25 834.918 163.673 841.418 141.196C845.709 126.359 849.357 113.744 854.625 112.75C859.892 111.756 857.337 125.932 854.137 143.689C849.287 170.601 842.954 205.738 860.125 208.75C876.386 211.603 881.742 195.98 886.314 182.641C889.756 172.601 892.754 163.854 899.625 165.25C906.79 166.705 905.783 178.339 904.709 190.743C903.385 206.036 901.959 222.5 915.625 222.5C930.109 222.5 941.083 194.33 950.05 171.312C956.405 154.999 961.751 141.274 966.625 142C971.532 142.731 968.547 158.027 964.989 176.251C960.03 201.66 953.959 232.759 966.625 238C979.723 243.42 990.283 228.077 998.522 216.105C1003.96 208.198 1008.39 201.761 1011.88 203.75C1015.05 205.567 1013.84 211.509 1012.33 218.926C1009.69 231.923 1006.12 249.451 1023.62 257.25C1041.6 265.256 1057.86 228.518 1069.56 202.103C1075.76 188.101 1080.67 177 1083.88 177C1087.39 177 1083.02 190.029 1077.4 206.792C1068.25 234.086 1055.77 271.28 1068.62 278.25C1079.7 284.256 1091.07 275.94 1100.58 268.975C1108.89 262.893 1115.8 257.841 1119.88 264.25C1128.62 278 1119.88 60 1119.88 60H560.25H559.625H-2.71797e-05C-2.71797e-05 60 -8.75003 278 -2.71797e-05 264.25Z" fill="#D8D8D8"/>
</g>
<mask id="mask1_36_31772" style="mask-type:luminance" maskUnits="userSpaceOnUse" x="514" y="75" width="92" height="82">
<path fill-rule="evenodd" clip-rule="evenodd" d="M605.353 76.6867C595.721 76.0835 580.878 75.5 559.5 75.5C538.161 75.5 523.799 76.0814 514.647 76.6834C512.914 95.7326 516.954 143.812 525.417 154.24C527.267 156.521 529.2 157 530.5 157C541.709 157 542.676 143.177 543.7 128.539L543.701 128.537C545.077 108.816 547.049 94.8541 560 94.8541C572.951 94.8541 574.923 108.816 576.299 128.537L576.299 128.538C577.324 143.177 578.291 157 589.5 157C590.8 157 592.733 156.521 594.583 154.24C603.045 143.812 607.086 95.7381 605.353 76.6867Z" fill="white"/>
</mask>
<g mask="url(#mask1_36_31772)">
</g>
<g filter="url(#filter0_b_36_31772)">
<path d="M497.117 31.3263C495.903 17.4559 483.824 2.93928 468.429 4.28619C461.318 4.90831 456.342 6.20952 451.529 7.46416C446.842 8.68869 442.419 9.84516 436.061 10.4015C429.702 10.9577 425.145 10.5869 420.317 10.1948C415.36 9.79499 410.234 9.3776 403.122 9.99975C387.727 11.3467 378.352 27.7403 379.566 41.6106C380.385 50.9792 389.517 71.1826 397.402 84.0941C396.134 100.182 404.812 153.523 414.767 163.81C416.809 165.921 418.777 166.23 420.071 166.117C431.238 165.14 430.996 151.284 430.741 136.611C430.393 116.845 431.141 102.765 444.043 101.636C456.944 100.507 460.126 114.244 463.216 133.77C465.512 148.264 467.68 161.951 478.847 160.974C480.141 160.861 482.026 160.215 483.67 157.782C491.687 145.923 490.971 91.887 486.929 76.2624C492.451 62.1773 497.936 40.6948 497.117 31.3263Z" fill="url(#paint1_linear_36_31772)"/>
<path d="M451.403 6.98032L451.402 6.98039L451.397 6.9819C446.715 8.20511 442.328 9.35123 436.017 9.90336C429.706 10.4555 425.186 10.0885 420.362 9.69683L420.358 9.69646L420.357 9.69644L420.303 9.69206C415.359 9.29327 410.209 8.87787 403.079 9.50165C395.202 10.1907 388.886 14.7293 384.703 20.8261C380.524 26.918 378.45 34.5986 379.068 41.6542C379.485 46.4259 382.003 53.8837 385.375 61.7214C388.731 69.5212 392.959 77.7593 396.891 84.2168C396.288 92.401 398.15 109.695 401.385 126.224C403.015 134.552 404.998 142.708 407.2 149.433C408.301 152.795 409.46 155.807 410.66 158.308C411.857 160.802 413.109 162.816 414.407 164.158C416.56 166.384 418.679 166.74 420.115 166.615C423.02 166.361 425.217 165.261 426.852 163.497C428.476 161.746 429.513 159.372 430.176 156.617C431.494 151.135 431.369 143.953 431.242 136.659L431.241 136.602L430.741 136.611L431.241 136.602C431.067 126.704 431.172 118.32 432.904 112.272C433.767 109.259 435.024 106.866 436.817 105.16C438.602 103.461 440.957 102.408 444.086 102.134C447.215 101.86 449.717 102.489 451.77 103.852C453.832 105.22 455.486 107.358 456.859 110.177C459.615 115.831 461.174 124.07 462.722 133.848L463.216 133.77L462.722 133.848L462.73 133.904C463.872 141.109 464.996 148.204 467.246 153.373C468.377 155.972 469.811 158.129 471.714 159.573C473.63 161.026 475.985 161.727 478.89 161.473C480.326 161.347 482.351 160.627 484.084 158.062C485.13 156.515 486.013 154.314 486.759 151.65C487.507 148.979 488.124 145.812 488.625 142.309C489.626 135.305 490.162 126.928 490.322 118.444C490.637 101.604 489.468 84.2502 487.453 76.2945C490.204 69.2521 492.938 60.4047 494.888 52.1405C496.847 43.8363 498.032 36.0543 497.615 31.2827C496.997 24.2271 493.621 17.0233 488.448 11.7496C483.27 6.47173 476.261 3.099 468.385 3.78809C461.256 4.41181 456.256 5.71513 451.456 6.96643L451.403 6.98032Z" stroke="#979797" stroke-opacity="0.187582"/>
<path d="M451.403 6.98032L451.402 6.98039L451.397 6.9819C446.715 8.20511 442.328 9.35123 436.017 9.90336C429.706 10.4555 425.186 10.0885 420.362 9.69683L420.358 9.69646L420.357 9.69644L420.303 9.69206C415.359 9.29327 410.209 8.87787 403.079 9.50165C395.202 10.1907 388.886 14.7293 384.703 20.8261C380.524 26.918 378.45 34.5986 379.068 41.6542C379.485 46.4259 382.003 53.8837 385.375 61.7214C388.731 69.5212 392.959 77.7593 396.891 84.2168C396.288 92.401 398.15 109.695 401.385 126.224C403.015 134.552 404.998 142.708 407.2 149.433C408.301 152.795 409.46 155.807 410.66 158.308C411.857 160.802 413.109 162.816 414.407 164.158C416.56 166.384 418.679 166.74 420.115 166.615C423.02 166.361 425.217 165.261 426.852 163.497C428.476 161.746 429.513 159.372 430.176 156.617C431.494 151.135 431.369 143.953 431.242 136.659L431.241 136.602L430.741 136.611L431.241 136.602C431.067 126.704 431.172 118.32 432.904 112.272C433.767 109.259 435.024 106.866 436.817 105.16C438.602 103.461 440.957 102.408 444.086 102.134C447.215 101.86 449.717 102.489 451.77 103.852C453.832 105.22 455.486 107.358 456.859 110.177C459.615 115.831 461.174 124.07 462.722 133.848L463.216 133.77L462.722 133.848L462.73 133.904C463.872 141.109 464.996 148.204 467.246 153.373C468.377 155.972 469.811 158.129 471.714 159.573C473.63 161.026 475.985 161.727 478.89 161.473C480.326 161.347 482.351 160.627 484.084 158.062C485.13 156.515 486.013 154.314 486.759 151.65C487.507 148.979 488.124 145.812 488.625 142.309C489.626 135.305 490.162 126.928 490.322 118.444C490.637 101.604 489.468 84.2502 487.453 76.2945C490.204 69.2521 492.938 60.4047 494.888 52.1405C496.847 43.8363 498.032 36.0543 497.615 31.2827C496.997 24.2271 493.621 17.0233 488.448 11.7496C483.27 6.47173 476.261 3.099 468.385 3.78809C461.256 4.41181 456.256 5.71513 451.456 6.96643L451.403 6.98032Z" stroke="white" stroke-opacity="0.5"/>
</g>
<mask id="mask2_36_31772" style="mask-type:luminance" maskUnits="userSpaceOnUse" x="378" y="3" width="121" height="165">
<path d="M497.117 31.3263C495.903 17.4559 483.824 2.93928 468.429 4.28619C461.318 4.90831 456.342 6.20952 451.529 7.46416C446.842 8.68869 442.419 9.84516 436.061 10.4015C429.702 10.9577 425.145 10.5869 420.317 10.1948C415.36 9.79499 410.234 9.3776 403.122 9.99975C387.727 11.3467 378.352 27.7403 379.566 41.6106C380.385 50.9792 389.517 71.1826 397.402 84.0941C396.134 100.182 404.812 153.523 414.767 163.81C416.809 165.921 418.777 166.23 420.071 166.117C431.238 165.14 430.996 151.284 430.741 136.611C430.393 116.845 431.141 102.765 444.043 101.636C456.944 100.507 460.126 114.244 463.216 133.77C465.512 148.264 467.68 161.951 478.847 160.974C480.141 160.861 482.026 160.215 483.67 157.782C491.687 145.923 490.971 91.887 486.929 76.2624C492.451 62.1773 497.936 40.6948 497.117 31.3263Z" fill="white"/>
<path d="M451.403 6.98032L451.402 6.98039L451.397 6.9819C446.715 8.20511 442.328 9.35123 436.017 9.90336C429.706 10.4555 425.186 10.0885 420.362 9.69683L420.358 9.69646L420.357 9.69644L420.303 9.69206C415.359 9.29327 410.209 8.87787 403.079 9.50165C395.202 10.1907 388.886 14.7293 384.703 20.8261C380.524 26.918 378.45 34.5986 379.068 41.6542C379.485 46.4259 382.003 53.8837 385.375 61.7214C388.731 69.5212 392.959 77.7593 396.891 84.2168C396.288 92.401 398.15 109.695 401.385 126.224C403.015 134.552 404.998 142.708 407.2 149.433C408.301 152.795 409.46 155.807 410.66 158.308C411.857 160.802 413.109 162.816 414.407 164.158C416.56 166.384 418.679 166.74 420.115 166.615C423.02 166.361 425.217 165.261 426.852 163.497C428.476 161.746 429.513 159.372 430.176 156.617C431.494 151.135 431.369 143.953 431.242 136.659L431.241 136.602L430.741 136.611L431.241 136.602C431.067 126.704 431.172 118.32 432.904 112.272C433.767 109.259 435.024 106.866 436.817 105.16C438.602 103.461 440.957 102.408 444.086 102.134C447.215 101.86 449.717 102.489 451.77 103.852C453.832 105.22 455.486 107.358 456.859 110.177C459.615 115.831 461.174 124.07 462.722 133.848L463.216 133.77L462.722 133.848L462.73 133.904C463.872 141.109 464.996 148.204 467.246 153.373C468.377 155.972 469.811 158.129 471.714 159.573C473.63 161.026 475.985 161.727 478.89 161.473C480.326 161.347 482.351 160.627 484.084 158.062C485.13 156.515 486.013 154.314 486.759 151.65C487.507 148.979 488.124 145.812 488.625 142.309C489.626 135.305 490.162 126.928 490.322 118.444C490.637 101.604 489.468 84.2502 487.453 76.2945C490.204 69.2521 492.938 60.4047 494.888 52.1405C496.847 43.8363 498.032 36.0543 497.615 31.2827C496.997 24.2271 493.621 17.0233 488.448 11.7496C483.27 6.47173 476.261 3.099 468.385 3.78809C461.256 4.41181 456.256 5.71513 451.456 6.96643L451.403 6.98032Z" stroke="white"/>
</mask>
<g mask="url(#mask2_36_31772)">
<path fill-rule="evenodd" clip-rule="evenodd" d="M411.369 9.27734L454.952 5.46428C454.952 5.46428 444.617 14.3991 433.733 15.3513C422.85 16.3034 411.369 9.27734 411.369 9.27734Z" fill="#E6E6E6"/>
<path fill-rule="evenodd" clip-rule="evenodd" d="M397.331 84.037C397.331 84.037 407.723 150.315 417.855 152.258C427.986 154.201 419.546 94.1393 443.206 92.0693C466.865 89.9994 468.209 154.126 477.639 150.039C487.069 145.951 483.487 85.4764 488.909 83.8046C494.331 82.1327 499.474 138.592 499.474 138.592L481.104 169.561L451.965 172.11L408.132 175.945L391.901 96.5579L397.331 84.037Z" fill="#F5F5F5"/>
</g>
<g filter="url(#filter1_b_36_31772)">
<path d="M740.669 39.6099C741.882 25.7395 732.507 9.34587 717.112 7.99897C710.001 7.37684 704.875 7.79424 699.917 8.19404C695.089 8.58608 690.532 8.95697 684.174 8.40068C677.815 7.84438 673.392 6.68788 668.706 5.46338C663.893 4.20876 658.917 2.90756 651.806 2.28541C636.411 0.938503 624.331 15.4551 623.118 29.3255C622.298 38.6941 627.783 60.1763 633.306 74.2607C629.264 89.8844 628.547 143.921 636.564 155.781C638.209 158.215 640.093 158.86 641.388 158.974C652.555 159.951 654.723 146.263 657.019 131.769C660.109 112.243 663.29 98.5065 676.192 99.6353C689.094 100.764 689.841 114.844 689.494 134.61C689.238 149.283 688.996 163.139 700.163 164.116C701.458 164.229 703.426 163.92 705.468 161.81C715.422 151.522 724.1 98.1833 722.833 82.0942C730.717 69.1821 739.849 48.9784 740.669 39.6099Z" fill="url(#paint2_linear_36_31772)"/>
<path d="M699.877 7.69566L699.877 7.69568L699.871 7.69616C695.048 8.08777 690.528 8.4547 684.217 7.90258C677.906 7.3504 673.519 6.20409 668.836 4.98078L668.832 4.97962L668.832 4.97955L668.779 4.96583C663.979 3.71449 658.979 2.41109 651.849 1.78731C643.973 1.09822 636.964 4.47095 631.787 9.74883C626.613 15.0225 623.237 22.2263 622.62 29.2819C622.202 34.0536 623.387 41.8354 625.347 50.1395C627.297 58.4035 630.031 67.2507 632.781 74.2928C630.767 82.2481 629.597 99.6023 629.913 116.442C630.072 124.927 630.609 133.303 631.61 140.308C632.11 143.811 632.728 146.978 633.475 149.649C634.221 152.313 635.104 154.514 636.15 156.061C637.884 158.627 639.909 159.346 641.344 159.472C644.249 159.726 646.604 159.025 648.52 157.572C650.424 156.128 651.857 153.971 652.988 151.373C655.239 146.203 656.362 139.108 657.504 131.903L657.513 131.847L657.019 131.769L657.513 131.847C659.06 122.069 660.62 113.831 663.375 108.176C664.749 105.358 666.402 103.219 668.464 101.851C670.518 100.488 673.019 99.8596 676.148 100.133C679.278 100.407 681.632 101.46 683.417 103.159C685.211 104.865 686.467 107.258 687.331 110.272C689.063 116.319 689.168 124.703 688.994 134.602L689.494 134.61L688.994 134.602L688.993 134.658C688.866 141.952 688.741 149.134 690.059 154.616C690.722 157.372 691.759 159.745 693.382 161.497C695.017 163.261 697.215 164.36 700.12 164.614C701.555 164.74 703.674 164.382 705.827 162.157C707.126 160.815 708.378 158.801 709.575 156.307C710.775 153.807 711.933 150.794 713.034 147.432C715.236 140.708 717.219 132.552 718.849 124.224C722.084 107.695 723.946 90.4015 723.344 82.2169C727.275 75.7592 731.504 67.5208 734.859 59.7208C738.231 51.883 740.749 44.4251 741.167 39.6534C741.784 32.5978 739.71 24.9172 735.531 18.8253C731.349 12.7285 725.032 8.18996 717.156 7.50087C710.027 6.87715 704.876 7.29248 699.932 7.69123L699.877 7.69566Z" stroke="#979797" stroke-opacity="0.187582"/>
<path d="M699.877 7.69566L699.877 7.69568L699.871 7.69616C695.048 8.08777 690.528 8.4547 684.217 7.90258C677.906 7.3504 673.519 6.20409 668.836 4.98078L668.832 4.97962L668.832 4.97955L668.779 4.96583C663.979 3.71449 658.979 2.41109 651.849 1.78731C643.973 1.09822 636.964 4.47095 631.787 9.74883C626.613 15.0225 623.237 22.2263 622.62 29.2819C622.202 34.0536 623.387 41.8354 625.347 50.1395C627.297 58.4035 630.031 67.2507 632.781 74.2928C630.767 82.2481 629.597 99.6023 629.913 116.442C630.072 124.927 630.609 133.303 631.61 140.308C632.11 143.811 632.728 146.978 633.475 149.649C634.221 152.313 635.104 154.514 636.15 156.061C637.884 158.627 639.909 159.346 641.344 159.472C644.249 159.726 646.604 159.025 648.52 157.572C650.424 156.128 651.857 153.971 652.988 151.373C655.239 146.203 656.362 139.108 657.504 131.903L657.513 131.847L657.019 131.769L657.513 131.847C659.06 122.069 660.62 113.831 663.375 108.176C664.749 105.358 666.402 103.219 668.464 101.851C670.518 100.488 673.019 99.8596 676.148 100.133C679.278 100.407 681.632 101.46 683.417 103.159C685.211 104.865 686.467 107.258 687.331 110.272C689.063 116.319 689.168 124.703 688.994 134.602L689.494 134.61L688.994 134.602L688.993 134.658C688.866 141.952 688.741 149.134 690.059 154.616C690.722 157.372 691.759 159.745 693.382 161.497C695.017 163.261 697.215 164.36 700.12 164.614C701.555 164.74 703.674 164.382 705.827 162.157C707.126 160.815 708.378 158.801 709.575 156.307C710.775 153.807 711.933 150.794 713.034 147.432C715.236 140.708 717.219 132.552 718.849 124.224C722.084 107.695 723.946 90.4015 723.344 82.2169C727.275 75.7592 731.504 67.5208 734.859 59.7208C738.231 51.883 740.749 44.4251 741.167 39.6534C741.784 32.5978 739.71 24.9172 735.531 18.8253C731.349 12.7285 725.032 8.18996 717.156 7.50087C710.027 6.87715 704.876 7.29248 699.932 7.69123L699.877 7.69566Z" stroke="white" stroke-opacity="0.5"/>
</g>
<mask id="mask3_36_31772" style="mask-type:luminance" maskUnits="userSpaceOnUse" x="622" y="1" width="120" height="165">
<path d="M740.669 39.6099C741.882 25.7395 732.507 9.34587 717.112 7.99897C710.001 7.37684 704.875 7.79424 699.917 8.19404C695.089 8.58608 690.532 8.95697 684.174 8.40068C677.815 7.84438 673.392 6.68788 668.706 5.46338C663.893 4.20876 658.917 2.90756 651.806 2.28541C636.411 0.938503 624.331 15.4551 623.118 29.3255C622.298 38.6941 627.783 60.1763 633.306 74.2607C629.264 89.8844 628.547 143.921 636.564 155.781C638.209 158.215 640.093 158.86 641.388 158.974C652.555 159.951 654.723 146.263 657.019 131.769C660.109 112.243 663.29 98.5065 676.192 99.6353C689.094 100.764 689.841 114.844 689.494 134.61C689.238 149.283 688.996 163.139 700.163 164.116C701.458 164.229 703.426 163.92 705.468 161.81C715.422 151.522 724.1 98.1833 722.833 82.0942C730.717 69.1821 739.849 48.9784 740.669 39.6099Z" fill="white"/>
<path d="M699.877 7.69566L699.877 7.69568L699.871 7.69616C695.048 8.08777 690.528 8.4547 684.217 7.90258C677.906 7.3504 673.519 6.20409 668.836 4.98078L668.832 4.97962L668.832 4.97955L668.779 4.96583C663.979 3.71449 658.979 2.41109 651.849 1.78731C643.973 1.09822 636.964 4.47095 631.787 9.74883C626.613 15.0225 623.237 22.2263 622.62 29.2819C622.202 34.0536 623.387 41.8354 625.347 50.1395C627.297 58.4035 630.031 67.2507 632.781 74.2928C630.767 82.2481 629.597 99.6023 629.913 116.442C630.072 124.927 630.609 133.303 631.61 140.308C632.11 143.811 632.728 146.978 633.475 149.649C634.221 152.313 635.104 154.514 636.15 156.061C637.884 158.627 639.909 159.346 641.344 159.472C644.249 159.726 646.604 159.025 648.52 157.572C650.424 156.128 651.857 153.971 652.988 151.373C655.239 146.203 656.362 139.108 657.504 131.903L657.513 131.847L657.019 131.769L657.513 131.847C659.06 122.069 660.62 113.831 663.375 108.176C664.749 105.358 666.402 103.219 668.464 101.851C670.518 100.488 673.019 99.8596 676.148 100.133C679.278 100.407 681.632 101.46 683.417 103.159C685.211 104.865 686.467 107.258 687.331 110.272C689.063 116.319 689.168 124.703 688.994 134.602L689.494 134.61L688.994 134.602L688.993 134.658C688.866 141.952 688.741 149.134 690.059 154.616C690.722 157.372 691.759 159.745 693.382 161.497C695.017 163.261 697.215 164.36 700.12 164.614C701.555 164.74 703.674 164.382 705.827 162.157C707.126 160.815 708.378 158.801 709.575 156.307C710.775 153.807 711.933 150.794 713.034 147.432C715.236 140.708 717.219 132.552 718.849 124.224C722.084 107.695 723.946 90.4015 723.344 82.2169C727.275 75.7592 731.504 67.5208 734.859 59.7208C738.231 51.883 740.749 44.4251 741.167 39.6534C741.784 32.5978 739.71 24.9172 735.531 18.8253C731.349 12.7285 725.032 8.18996 717.156 7.50087C710.027 6.87715 704.876 7.29248 699.932 7.69123L699.877 7.69566Z" stroke="white"/>
</mask>
<g mask="url(#mask3_36_31772)">
<path fill-rule="evenodd" clip-rule="evenodd" d="M660.052 3.00781L703.636 6.82088C703.636 6.82088 691.906 13.8252 681.022 12.873C670.139 11.9208 660.052 3.00781 660.052 3.00781Z" fill="#E6E6E6"/>
<path fill-rule="evenodd" clip-rule="evenodd" d="M633.246 74.1915C633.246 74.1915 631.972 141.267 641.612 144.94C651.252 148.613 653.369 87.9979 677.029 90.0679C700.689 92.1378 690.877 155.524 700.873 153.136C710.869 150.748 717.843 90.5699 723.473 89.865C729.103 89.16 724.364 145.655 724.364 145.655L700.895 172.963L671.756 170.414L627.924 166.579L625.725 85.5793L633.246 74.1915Z" fill="#F5F5F5"/>
</g>
<path d="M253.598 68.4348C249.995 54.9859 235.578 42.7874 220.651 46.7872C213.756 48.6346 209.081 50.7801 204.559 52.8515C200.156 54.8713 196.001 56.7782 189.836 58.4302C183.671 60.0822 179.119 60.5082 174.296 60.9605C169.345 61.4276 164.224 61.9067 157.329 63.7542C142.401 67.754 136.015 85.5266 139.619 98.9755C142.053 108.059 154.555 126.37 164.561 137.716C166.107 153.78 183.915 204.803 195.505 213.206C197.883 214.93 199.874 214.893 201.129 214.556C211.957 211.655 209.313 198.051 206.513 183.646C202.739 164.241 201.03 150.245 213.54 146.893C226.049 143.541 231.568 156.516 238.001 175.209C242.78 189.084 247.291 202.187 258.119 199.286C259.374 198.95 261.118 197.986 262.315 195.305C268.151 182.233 258.062 129.143 251.368 114.457C254.361 99.6274 256.032 77.5187 253.598 68.4348Z" fill="url(#paint3_linear_36_31772)"/>
<path d="M204.351 52.3969L204.351 52.397L204.346 52.3995C199.947 54.4171 195.826 56.3076 189.707 57.9472C183.587 59.587 179.072 60.0104 174.254 60.4622L174.249 60.4627L174.249 60.4627L174.195 60.4678C169.256 60.9337 164.112 61.4189 157.199 63.2713C149.562 65.3176 144.13 70.884 141.07 77.6145C138.012 84.3396 137.303 92.2636 139.136 99.1049C140.376 103.732 144.151 110.639 148.832 117.772C153.491 124.871 159.086 132.249 164.079 137.926C164.907 146.09 169.744 162.798 175.8 178.514C178.851 186.433 182.221 194.121 185.557 200.361C187.225 203.481 188.889 206.246 190.505 208.5C192.117 210.748 193.699 212.515 195.212 213.611C197.718 215.429 199.867 215.412 201.259 215.039C204.076 214.284 206.049 212.82 207.352 210.799C208.647 208.792 209.257 206.275 209.431 203.446C209.777 197.819 208.407 190.767 207.015 183.606L207.004 183.551L206.513 183.646L207.004 183.551C205.114 173.833 203.762 165.558 204.417 159.302C204.744 156.184 205.566 153.609 207.036 151.618C208.499 149.635 210.635 148.189 213.669 147.376C216.703 146.563 219.276 146.747 221.535 147.733C223.803 148.722 225.803 150.541 227.644 153.078C231.34 158.168 234.307 166.011 237.529 175.372L238.001 175.209L237.529 175.372L237.547 175.425C239.922 182.323 242.261 189.114 245.375 193.815C246.94 196.178 248.726 198.053 250.851 199.144C252.991 200.242 255.432 200.524 258.248 199.769C259.64 199.396 261.509 198.336 262.771 195.508C263.533 193.803 264.02 191.482 264.292 188.729C264.565 185.969 264.623 182.742 264.507 179.206C264.277 172.134 263.351 163.792 262.034 155.408C259.421 138.77 255.256 121.883 251.89 114.398C253.376 106.985 254.532 97.7972 255.017 89.3199C255.505 80.8016 255.321 72.9321 254.081 68.3054C252.248 61.4642 247.672 54.9561 241.662 50.6609C235.646 46.3623 228.158 44.2579 220.521 46.3042C213.609 48.1564 208.911 50.3081 204.401 52.3739L204.351 52.3969Z" stroke="#979797" stroke-opacity="0.187582"/>
<mask id="mask4_36_31772" style="mask-type:luminance" maskUnits="userSpaceOnUse" x="137" y="45" width="129" height="171">
<path d="M253.598 68.4348C249.995 54.9859 235.578 42.7874 220.651 46.7872C213.756 48.6346 209.081 50.7801 204.559 52.8515C200.156 54.8713 196.001 56.7782 189.836 58.4302C183.671 60.0822 179.119 60.5082 174.296 60.9605C169.345 61.4276 164.224 61.9067 157.329 63.7542C142.401 67.754 136.015 85.5266 139.619 98.9755C142.053 108.059 154.555 126.37 164.561 137.716C166.107 153.78 183.915 204.803 195.505 213.206C197.883 214.93 199.874 214.893 201.129 214.556C211.957 211.655 209.313 198.051 206.513 183.646C202.739 164.241 201.03 150.245 213.54 146.893C226.049 143.541 231.568 156.516 238.001 175.209C242.78 189.084 247.291 202.187 258.119 199.286C259.374 198.95 261.118 197.986 262.315 195.305C268.151 182.233 258.062 129.143 251.368 114.457C254.361 99.6274 256.032 77.5187 253.598 68.4348Z" fill="white"/>
<path d="M204.351 52.3969L204.351 52.397L204.346 52.3995C199.947 54.4171 195.826 56.3076 189.707 57.9472C183.587 59.587 179.072 60.0104 174.254 60.4622L174.249 60.4627L174.249 60.4627L174.195 60.4678C169.256 60.9337 164.112 61.4189 157.199 63.2713C149.562 65.3176 144.13 70.884 141.07 77.6145C138.012 84.3396 137.303 92.2636 139.136 99.1049C140.376 103.732 144.151 110.639 148.832 117.772C153.491 124.871 159.086 132.249 164.079 137.926C164.907 146.09 169.744 162.798 175.8 178.514C178.851 186.433 182.221 194.121 185.557 200.361C187.225 203.481 188.889 206.246 190.505 208.5C192.117 210.748 193.699 212.515 195.212 213.611C197.718 215.429 199.867 215.412 201.259 215.039C204.076 214.284 206.049 212.82 207.352 210.799C208.647 208.792 209.257 206.275 209.431 203.446C209.777 197.819 208.407 190.767 207.015 183.606L207.004 183.551L206.513 183.646L207.004 183.551C205.114 173.833 203.762 165.558 204.417 159.302C204.744 156.184 205.566 153.609 207.036 151.618C208.499 149.635 210.635 148.189 213.669 147.376C216.703 146.563 219.276 146.747 221.535 147.733C223.803 148.722 225.803 150.541 227.644 153.078C231.34 158.168 234.307 166.011 237.529 175.372L238.001 175.209L237.529 175.372L237.547 175.425C239.922 182.323 242.261 189.114 245.375 193.815C246.94 196.178 248.726 198.053 250.851 199.144C252.991 200.242 255.432 200.524 258.248 199.769C259.64 199.396 261.509 198.336 262.771 195.508C263.533 193.803 264.02 191.482 264.292 188.729C264.565 185.969 264.623 182.742 264.507 179.206C264.277 172.134 263.351 163.792 262.034 155.408C259.421 138.77 255.256 121.883 251.89 114.398C253.376 106.985 254.532 97.7972 255.017 89.3199C255.505 80.8016 255.321 72.9321 254.081 68.3054C252.248 61.4642 247.672 54.9561 241.662 50.6609C235.646 46.3623 228.158 44.2579 220.521 46.3042C213.609 48.1564 208.911 50.3081 204.401 52.3739L204.351 52.3969Z" stroke="white"/>
</mask>
<g mask="url(#mask4_36_31772)">
<path fill-rule="evenodd" clip-rule="evenodd" d="M165.324 61.6113L207.584 50.288C207.584 50.288 198.957 60.8818 188.404 63.7094C177.851 66.537 165.324 61.6113 165.324 61.6113Z" fill="#E6E6E6"/>
<path fill-rule="evenodd" clip-rule="evenodd" d="M164.481 137.671C164.481 137.671 186.225 201.138 196.54 201.292C206.855 201.446 188.113 143.762 211.054 137.615C233.995 131.468 246.454 194.388 255.031 188.725C263.607 183.062 249.579 124.128 254.628 121.54C259.678 118.952 274.547 173.661 274.547 173.661L261.833 207.349L233.579 214.92L191.079 226.308L161.309 150.945L164.481 137.671Z" fill="#F5F5F5"/>
</g>
<path d="M980.995 97.9751C984.598 84.5262 978.213 66.7537 963.285 62.7539C956.39 60.9064 951.27 60.4273 946.318 59.9601C941.494 59.5077 936.943 59.0818 930.778 57.4298C924.612 55.7778 920.457 53.8708 916.054 51.8511C911.533 49.7798 906.858 47.6343 899.963 45.7868C885.036 41.787 870.619 53.9855 867.016 67.4344C864.582 76.5184 866.253 98.6267 869.246 113.456C862.552 128.141 852.463 181.232 858.299 194.304C859.496 196.986 861.24 197.949 862.495 198.286C873.323 201.187 877.834 188.084 882.612 174.209C889.046 155.516 894.564 142.54 907.074 145.892C919.584 149.244 917.875 163.241 914.1 182.646C911.301 197.051 908.657 210.655 919.484 213.556C920.74 213.892 922.731 213.93 925.109 212.206C936.699 203.803 954.507 152.782 956.052 136.717C966.059 125.37 978.561 107.059 980.995 97.9751Z" fill="url(#paint4_linear_36_31772)"/>
<path d="M946.365 59.4623L946.364 59.4623L946.358 59.4617C941.54 59.0098 937.026 58.5864 930.907 56.9468C924.787 55.3071 920.666 53.4163 916.267 51.3985L916.263 51.3966L916.263 51.3965L916.213 51.3739C911.703 49.308 907.006 47.1562 900.093 45.3038C892.456 43.2575 884.968 45.3619 878.952 49.6605C872.942 53.9558 868.366 60.4638 866.533 67.305C865.293 71.9317 865.109 79.8011 865.596 88.3193C866.082 96.7964 867.238 105.984 868.724 113.397C865.358 120.881 861.193 137.769 858.58 154.407C857.263 162.791 856.337 171.133 856.106 178.206C855.991 181.742 856.049 184.968 856.322 187.729C856.593 190.482 857.081 192.802 857.843 194.508C859.104 197.336 860.973 198.395 862.365 198.768C865.182 199.523 867.623 199.242 869.763 198.143C871.887 197.053 873.674 195.177 875.239 192.814C878.353 188.114 880.692 181.322 883.067 174.425L883.085 174.371L882.612 174.209L883.085 174.371C886.307 165.011 889.273 157.168 892.969 152.077C894.811 149.541 896.811 147.722 899.079 146.732C901.338 145.747 903.91 145.562 906.945 146.375C909.979 147.188 912.115 148.634 913.578 150.617C915.048 152.609 915.87 155.183 916.197 158.301C916.852 164.558 915.5 172.833 913.61 182.55L914.1 182.646L913.61 182.55L913.599 182.606C912.207 189.767 910.837 196.818 911.183 202.446C911.357 205.274 911.967 207.792 913.261 209.799C914.565 211.82 916.538 213.284 919.355 214.039C920.747 214.412 922.896 214.428 925.402 212.611C926.914 211.514 928.497 209.748 930.109 207.5C931.725 205.246 933.389 202.481 935.057 199.361C938.393 193.121 941.762 185.433 944.814 177.514C950.87 161.799 955.706 145.091 956.534 136.926C961.528 131.249 967.122 123.871 971.781 116.772C976.463 109.639 980.238 102.731 981.478 98.1045C983.311 91.2633 982.602 83.3392 979.544 76.6141C976.484 69.8837 971.052 64.3172 963.415 62.2709C956.502 60.4187 951.358 59.9334 946.419 59.4675L946.365 59.4623Z" stroke="#979797" stroke-opacity="0.187582"/>
<mask id="mask5_36_31772" style="mask-type:luminance" maskUnits="userSpaceOnUse" x="855" y="44" width="128" height="171">
<path d="M980.995 97.9751C984.598 84.5262 978.213 66.7537 963.285 62.7539C956.39 60.9064 951.27 60.4273 946.318 59.9601C941.494 59.5077 936.943 59.0818 930.778 57.4298C924.612 55.7778 920.457 53.8708 916.054 51.8511C911.533 49.7798 906.858 47.6343 899.963 45.7868C885.036 41.787 870.619 53.9855 867.016 67.4344C864.582 76.5184 866.253 98.6267 869.246 113.456C862.552 128.141 852.463 181.232 858.299 194.304C859.496 196.986 861.24 197.949 862.495 198.286C873.323 201.187 877.834 188.084 882.612 174.209C889.046 155.516 894.564 142.54 907.074 145.892C919.584 149.244 917.875 163.241 914.1 182.646C911.301 197.051 908.657 210.655 919.484 213.556C920.74 213.892 922.731 213.93 925.109 212.206C936.699 203.803 954.507 152.782 956.052 136.717C966.059 125.37 978.561 107.059 980.995 97.9751Z" fill="white"/>
<path d="M946.365 59.4623L946.364 59.4623L946.358 59.4617C941.54 59.0098 937.026 58.5864 930.907 56.9468C924.787 55.3071 920.666 53.4163 916.267 51.3985L916.263 51.3966L916.263 51.3965L916.213 51.3739C911.703 49.308 907.006 47.1562 900.093 45.3038C892.456 43.2575 884.968 45.3619 878.952 49.6605C872.942 53.9558 868.366 60.4638 866.533 67.305C865.293 71.9317 865.109 79.8011 865.596 88.3193C866.082 96.7964 867.238 105.984 868.724 113.397C865.358 120.881 861.193 137.769 858.58 154.407C857.263 162.791 856.337 171.133 856.106 178.206C855.991 181.742 856.049 184.968 856.322 187.729C856.593 190.482 857.081 192.802 857.843 194.508C859.104 197.336 860.973 198.395 862.365 198.768C865.182 199.523 867.623 199.242 869.763 198.143C871.887 197.053 873.674 195.177 875.239 192.814C878.353 188.114 880.692 181.322 883.067 174.425L883.085 174.371L882.612 174.209L883.085 174.371C886.307 165.011 889.273 157.168 892.969 152.077C894.811 149.541 896.811 147.722 899.079 146.732C901.338 145.747 903.91 145.562 906.945 146.375C909.979 147.188 912.115 148.634 913.578 150.617C915.048 152.609 915.87 155.183 916.197 158.301C916.852 164.558 915.5 172.833 913.61 182.55L914.1 182.646L913.61 182.55L913.599 182.606C912.207 189.767 910.837 196.818 911.183 202.446C911.357 205.274 911.967 207.792 913.261 209.799C914.565 211.82 916.538 213.284 919.355 214.039C920.747 214.412 922.896 214.428 925.402 212.611C926.914 211.514 928.497 209.748 930.109 207.5C931.725 205.246 933.389 202.481 935.057 199.361C938.393 193.121 941.762 185.433 944.814 177.514C950.87 161.799 955.706 145.091 956.534 136.926C961.528 131.249 967.122 123.871 971.781 116.772C976.463 109.639 980.238 102.731 981.478 98.1045C983.311 91.2633 982.602 83.3392 979.544 76.6141C976.484 69.8837 971.052 64.3172 963.415 62.2709C956.502 60.4187 951.358 59.9334 946.419 59.4675L946.365 59.4623Z" stroke="white"/>
</mask>
<g mask="url(#mask5_36_31772)">
<path fill-rule="evenodd" clip-rule="evenodd" d="M907.959 47.9297L950.218 59.253C950.218 59.253 937.45 64.114 926.897 61.2864C916.345 58.4588 907.959 47.9297 907.959 47.9297Z" fill="#E6E6E6"/>
<path fill-rule="evenodd" clip-rule="evenodd" d="M869.199 113.378C869.199 113.378 856.296 179.213 865.152 184.504C874.008 189.795 886.619 130.469 909.56 136.616C932.501 142.763 911.831 203.482 922.09 202.866C932.349 202.25 949.667 144.197 955.334 144.481C961.001 144.764 946.524 199.578 946.524 199.578L918.669 222.396L890.415 214.826L847.915 203.438L859.815 123.286L869.199 113.378Z" fill="#F5F5F5"/>
</g>
<path d="M134.952 103.661C130.19 90.5776 114.765 79.682 100.243 84.9675C93.5354 87.4089 89.0659 89.9536 84.7416 92.4112C80.5312 94.8071 76.5584 97.0689 70.5606 99.2519C64.5628 101.435 60.0653 102.256 55.3002 103.127C50.4082 104.024 45.3486 104.947 38.6407 107.389C24.1187 112.675 19.3062 130.936 24.0682 144.02C27.2847 152.857 41.3347 170.008 52.2919 180.439C55.2315 196.307 77.4194 245.584 89.6975 252.945C92.2162 254.455 94.1969 254.244 95.4181 253.8C105.952 249.966 102.132 236.644 98.0876 222.538C92.636 203.536 89.7138 189.741 101.884 185.312C114.054 180.882 120.682 193.328 128.72 211.389C134.69 224.794 140.326 237.454 150.86 233.62C152.081 233.176 153.734 232.064 154.693 229.288C159.367 215.758 144.69 163.749 136.742 149.703C138.43 134.669 138.168 112.498 134.952 103.661Z" fill="url(#paint5_linear_36_31772)"/>
<path d="M84.4945 91.9765L84.4943 91.9766L84.4891 91.9796C80.2832 94.3729 76.3425 96.6154 70.3896 98.7821C64.4361 100.949 59.9753 101.764 55.2148 102.634L55.2103 102.635L55.21 102.635L55.1565 102.645C50.2774 103.54 45.1951 104.471 38.4697 106.919C31.0401 109.623 26.1135 115.642 23.6515 122.614C21.1914 129.58 21.176 137.535 23.5984 144.191C25.2366 148.692 29.5994 155.244 34.8848 161.941C40.1447 168.607 46.3611 175.47 51.8303 180.69C53.3666 188.751 59.6407 204.974 67.0437 220.102C70.7737 227.725 74.8001 235.09 78.6677 241.015C80.6015 243.978 82.5 246.588 84.3062 248.693C86.1079 250.792 87.8385 252.413 89.4405 253.374C92.096 254.966 94.2349 254.762 95.5891 254.269C98.3293 253.272 100.167 251.642 101.29 249.515C102.405 247.402 102.793 244.841 102.719 242.008C102.574 236.372 100.594 229.467 98.5838 222.454L98.5682 222.4L98.0876 222.538L98.5682 222.4C95.8382 212.884 93.7698 204.758 93.8775 198.469C93.9312 195.334 94.526 192.698 95.8165 190.586C97.1015 188.483 99.103 186.856 102.055 185.782C105.007 184.707 107.586 184.667 109.922 185.452C112.268 186.24 114.418 187.878 116.474 190.244C120.6 194.993 124.238 202.547 128.264 211.592L128.72 211.389L128.264 211.592L128.286 211.643C131.254 218.308 134.176 224.87 137.687 229.281C139.453 231.498 141.396 233.211 143.607 234.112C145.835 235.02 148.291 235.088 151.031 234.09C152.385 233.597 154.155 232.378 155.165 229.452C155.775 227.686 156.059 225.332 156.089 222.566C156.12 219.792 155.897 216.573 155.474 213.061C154.628 206.035 152.978 197.805 150.936 189.569C146.883 173.222 141.261 156.761 137.257 149.598C138.091 142.084 138.441 132.83 138.186 124.343C137.929 115.815 137.06 107.991 135.422 103.49C132.999 96.8348 127.874 90.7503 121.512 86.9953C115.144 83.2374 107.502 81.7935 100.072 84.4977C93.3472 86.9453 88.8552 89.4982 84.5424 91.9493L84.4945 91.9765Z" stroke="#979797" stroke-opacity="0.187582"/>
<mask id="mask6_36_31772" style="mask-type:luminance" maskUnits="userSpaceOnUse" x="21" y="82" width="136" height="174">
<path d="M134.952 103.661C130.19 90.5776 114.765 79.682 100.243 84.9675C93.5354 87.4089 89.0659 89.9536 84.7416 92.4112C80.5312 94.8071 76.5584 97.0689 70.5606 99.2519C64.5628 101.435 60.0653 102.256 55.3002 103.127C50.4082 104.024 45.3486 104.947 38.6407 107.389C24.1187 112.675 19.3062 130.936 24.0682 144.02C27.2847 152.857 41.3347 170.008 52.2919 180.439C55.2315 196.307 77.4194 245.584 89.6975 252.945C92.2162 254.455 94.1969 254.244 95.4181 253.8C105.952 249.966 102.132 236.644 98.0876 222.538C92.636 203.536 89.7138 189.741 101.884 185.312C114.054 180.882 120.682 193.328 128.72 211.389C134.69 224.794 140.326 237.454 150.86 233.62C152.081 233.176 153.734 232.064 154.693 229.288C159.367 215.758 144.69 163.749 136.742 149.703C138.43 134.669 138.168 112.498 134.952 103.661Z" fill="white"/>
<path d="M84.4945 91.9765L84.4943 91.9766L84.4891 91.9796C80.2832 94.3729 76.3425 96.6154 70.3896 98.7821C64.4361 100.949 59.9753 101.764 55.2148 102.634L55.2103 102.635L55.21 102.635L55.1565 102.645C50.2774 103.54 45.1951 104.471 38.4697 106.919C31.0401 109.623 26.1135 115.642 23.6515 122.614C21.1914 129.58 21.176 137.535 23.5984 144.191C25.2366 148.692 29.5994 155.244 34.8848 161.941C40.1447 168.607 46.3611 175.47 51.8303 180.69C53.3666 188.751 59.6407 204.974 67.0437 220.102C70.7737 227.725 74.8001 235.09 78.6677 241.015C80.6015 243.978 82.5 246.588 84.3062 248.693C86.1079 250.792 87.8385 252.413 89.4405 253.374C92.096 254.966 94.2349 254.762 95.5891 254.269C98.3293 253.272 100.167 251.642 101.29 249.515C102.405 247.402 102.793 244.841 102.719 242.008C102.574 236.372 100.594 229.467 98.5838 222.454L98.5682 222.4L98.0876 222.538L98.5682 222.4C95.8382 212.884 93.7698 204.758 93.8775 198.469C93.9312 195.334 94.526 192.698 95.8165 190.586C97.1015 188.483 99.103 186.856 102.055 185.782C105.007 184.707 107.586 184.667 109.922 185.452C112.268 186.24 114.418 187.878 116.474 190.244C120.6 194.993 124.238 202.547 128.264 211.592L128.72 211.389L128.264 211.592L128.286 211.643C131.254 218.308 134.176 224.87 137.687 229.281C139.453 231.498 141.396 233.211 143.607 234.112C145.835 235.02 148.291 235.088 151.031 234.09C152.385 233.597 154.155 232.378 155.165 229.452C155.775 227.686 156.059 225.332 156.089 222.566C156.12 219.792 155.897 216.573 155.474 213.061C154.628 206.035 152.978 197.805 150.936 189.569C146.883 173.222 141.261 156.761 137.257 149.598C138.091 142.084 138.441 132.83 138.186 124.343C137.929 115.815 137.06 107.991 135.422 103.49C132.999 96.8348 127.874 90.7503 121.512 86.9953C115.144 83.2374 107.502 81.7935 100.072 84.4977C93.3472 86.9453 88.8552 89.4982 84.5424 91.9493L84.4945 91.9765Z" stroke="white"/>
</mask>
<g mask="url(#mask6_36_31772)">
<path fill-rule="evenodd" clip-rule="evenodd" d="M46.4194 104.559L87.5309 89.5952C87.5309 89.5952 79.86 100.901 69.5938 104.637C59.3277 108.374 46.4194 104.559 46.4194 104.559Z" fill="#E6E6E6"/>
<path fill-rule="evenodd" clip-rule="evenodd" d="M52.2086 180.402C52.2086 180.402 79.401 241.732 89.6901 240.986C99.9792 240.241 76.2814 184.41 98.5991 176.287C120.917 168.164 138.812 229.758 146.863 223.37C154.913 216.981 135.802 159.493 140.606 156.475C145.411 153.457 164.992 206.661 164.992 206.661L155.262 241.33L127.776 251.334L86.4297 266.383L50.2049 193.901L52.2086 180.402Z" fill="#F5F5F5"/>
</g>
<path d="M1096.51 147.021C1101.27 133.937 1096.46 115.675 1081.94 110.39C1075.23 107.949 1070.17 107.025 1065.28 106.128C1060.52 105.257 1056.02 104.436 1050.02 102.253C1044.02 100.07 1040.05 97.808 1035.84 95.4122C1031.52 92.9547 1027.05 90.41 1020.34 87.9685C1005.82 82.6829 990.391 93.5786 985.629 106.662C982.412 115.499 982.151 137.669 983.839 152.703C975.892 166.748 961.214 218.759 965.888 232.289C966.847 235.065 968.5 236.177 969.721 236.621C980.255 240.455 985.891 227.795 991.86 214.389C999.899 196.329 1006.53 183.883 1018.7 188.313C1030.87 192.742 1027.94 206.536 1022.49 225.539C1018.45 239.645 1014.63 252.967 1025.16 256.801C1026.38 257.245 1028.36 257.456 1030.88 255.946C1043.16 248.585 1065.35 199.31 1068.29 183.441C1079.25 173.009 1093.3 155.858 1096.51 147.021Z" fill="url(#paint6_linear_36_31772)"/>
<path d="M1065.37 105.636L1065.37 105.636L1065.36 105.635C1060.6 104.765 1056.14 103.95 1050.19 101.783C1044.24 99.6161 1040.3 97.3733 1036.09 94.9799L1036.09 94.9776L1036.09 94.9775L1036.04 94.9506C1031.73 92.4995 1027.23 89.9465 1020.51 87.4986C1013.08 84.7945 1005.44 86.2383 999.069 89.9963C992.707 93.7513 987.581 99.8358 985.159 106.491C983.521 110.992 982.651 118.816 982.395 127.344C982.14 135.831 982.49 145.084 983.325 152.598C979.32 159.761 973.698 176.221 969.645 192.569C967.603 200.806 965.953 209.036 965.107 216.061C964.684 219.574 964.461 222.793 964.491 225.567C964.522 228.333 964.806 230.687 965.416 232.453C966.426 235.38 968.196 236.598 969.55 237.091C972.29 238.089 974.746 238.021 976.973 237.113C979.185 236.212 981.128 234.499 982.894 232.282C986.405 227.871 989.327 221.309 992.294 214.644L992.317 214.593L991.86 214.389L992.317 214.593C996.343 205.548 999.981 197.994 1004.11 193.245C1006.16 190.878 1008.31 189.241 1010.66 188.453C1013 187.668 1015.57 187.708 1018.53 188.783C1021.48 189.857 1023.48 191.484 1024.76 193.587C1026.05 195.699 1026.65 198.335 1026.7 201.47C1026.81 207.759 1024.74 215.885 1022.01 225.401L1022.49 225.539L1022.01 225.401L1022 225.455C1019.99 232.468 1018.01 239.373 1017.86 245.009C1017.79 247.842 1018.18 250.403 1019.29 252.516C1020.41 254.643 1022.25 256.273 1024.99 257.27C1026.35 257.763 1028.49 257.967 1031.14 256.375C1032.74 255.414 1034.47 253.793 1036.27 251.694C1038.08 249.589 1039.98 246.979 1041.91 244.017C1045.78 238.091 1049.81 230.726 1053.54 223.104C1060.94 207.976 1067.21 191.753 1068.75 183.692C1074.22 178.472 1080.44 171.608 1085.7 164.943C1090.98 158.245 1095.34 151.693 1096.98 147.192C1099.4 140.536 1099.39 132.58 1096.93 125.614C1094.47 118.643 1089.54 112.624 1082.11 109.92C1075.39 107.472 1070.3 106.541 1065.43 105.646L1065.37 105.636Z" stroke="#979797" stroke-opacity="0.187582"/>
<mask id="mask7_36_31772" style="mask-type:luminance" maskUnits="userSpaceOnUse" x="963" y="85" width="137" height="174">
<path d="M1096.51 147.021C1101.27 133.937 1096.46 115.675 1081.94 110.39C1075.23 107.949 1070.17 107.025 1065.28 106.128C1060.52 105.257 1056.02 104.436 1050.02 102.253C1044.02 100.07 1040.05 97.808 1035.84 95.4122C1031.52 92.9547 1027.05 90.41 1020.34 87.9685C1005.82 82.6829 990.391 93.5786 985.629 106.662C982.412 115.499 982.151 137.669 983.839 152.703C975.892 166.748 961.214 218.759 965.888 232.289C966.847 235.065 968.5 236.177 969.721 236.621C980.255 240.455 985.891 227.795 991.86 214.389C999.899 196.329 1006.53 183.883 1018.7 188.313C1030.87 192.742 1027.94 206.536 1022.49 225.539C1018.45 239.645 1014.63 252.967 1025.16 256.801C1026.38 257.245 1028.36 257.456 1030.88 255.946C1043.16 248.585 1065.35 199.31 1068.29 183.441C1079.25 173.009 1093.3 155.858 1096.51 147.021Z" fill="white"/>
<path d="M1065.37 105.636L1065.37 105.636L1065.36 105.635C1060.6 104.765 1056.14 103.95 1050.19 101.783C1044.24 99.6161 1040.3 97.3733 1036.09 94.9799L1036.09 94.9776L1036.09 94.9775L1036.04 94.9506C1031.73 92.4995 1027.23 89.9465 1020.51 87.4986C1013.08 84.7945 1005.44 86.2383 999.069 89.9963C992.707 93.7513 987.581 99.8358 985.159 106.491C983.521 110.992 982.651 118.816 982.395 127.344C982.14 135.831 982.49 145.084 983.325 152.598C979.32 159.761 973.698 176.221 969.645 192.569C967.603 200.806 965.953 209.036 965.107 216.061C964.684 219.574 964.461 222.793 964.491 225.567C964.522 228.333 964.806 230.687 965.416 232.453C966.426 235.38 968.196 236.598 969.55 237.091C972.29 238.089 974.746 238.021 976.973 237.113C979.185 236.212 981.128 234.499 982.894 232.282C986.405 227.871 989.327 221.309 992.294 214.644L992.317 214.593L991.86 214.389L992.317 214.593C996.343 205.548 999.981 197.994 1004.11 193.245C1006.16 190.878 1008.31 189.241 1010.66 188.453C1013 187.668 1015.57 187.708 1018.53 188.783C1021.48 189.857 1023.48 191.484 1024.76 193.587C1026.05 195.699 1026.65 198.335 1026.7 201.47C1026.81 207.759 1024.74 215.885 1022.01 225.401L1022.49 225.539L1022.01 225.401L1022 225.455C1019.99 232.468 1018.01 239.373 1017.86 245.009C1017.79 247.842 1018.18 250.403 1019.29 252.516C1020.41 254.643 1022.25 256.273 1024.99 257.27C1026.35 257.763 1028.49 257.967 1031.14 256.375C1032.74 255.414 1034.47 253.793 1036.27 251.694C1038.08 249.589 1039.98 246.979 1041.91 244.017C1045.78 238.091 1049.81 230.726 1053.54 223.104C1060.94 207.976 1067.21 191.753 1068.75 183.692C1074.22 178.472 1080.44 171.608 1085.7 164.943C1090.98 158.245 1095.34 151.693 1096.98 147.192C1099.4 140.536 1099.39 132.58 1096.93 125.614C1094.47 118.643 1089.54 112.624 1082.11 109.92C1075.39 107.472 1070.3 106.541 1065.43 105.646L1065.37 105.636Z" stroke="white"/>
</mask>
<g mask="url(#mask7_36_31772)">
<path fill-rule="evenodd" clip-rule="evenodd" d="M1028.12 90.7988L1069.23 105.762C1069.23 105.762 1056.08 109.492 1045.82 105.755C1035.55 102.019 1028.12 90.7988 1028.12 90.7988Z" fill="#E6E6E6"/>
<path fill-rule="evenodd" clip-rule="evenodd" d="M983.8 152.622C983.8 152.622 965.208 217.082 973.57 223.124C981.931 229.167 999.664 171.166 1021.98 179.289C1044.3 187.412 1018.42 246.099 1028.69 246.379C1038.96 246.66 1061.28 190.337 1066.9 191.114C1072.52 191.89 1053.32 245.233 1053.32 245.233L1023.58 265.537L996.094 255.533L954.747 240.484L973.588 161.675L983.8 152.622Z" fill="#F5F5F5"/>
</g>
<path d="M19.3851 146.68C13.5009 134.061 -2.81491 124.551 -16.821 131.082C-23.2903 134.099 -27.521 137.023 -31.6147 139.849C-35.6002 142.602 -39.3607 145.202 -45.1455 147.899C-50.9302 150.597 -55.339 151.807 -60.0101 153.09C-64.8053 154.409 -69.7651 155.77 -76.2347 158.787C-90.2408 165.318 -93.4434 183.93 -87.5592 196.549C-83.5847 205.072 -68.0933 220.933 -56.2687 230.37C-51.9573 245.921 -25.5591 293.077 -12.6861 299.339C-10.0454 300.624 -8.09063 300.241 -6.91285 299.692C3.24658 294.955 -1.71965 282.017 -6.97812 268.317C-14.0652 249.862 -18.1785 236.375 -6.44078 230.902C5.29691 225.428 12.9845 237.248 22.5664 254.54C29.6813 267.375 36.3999 279.495 46.5593 274.758C47.7371 274.209 49.2869 272.957 49.9999 270.108C53.4774 256.222 34.3231 205.69 25.1809 192.39C25.5527 177.266 23.3596 155.203 19.3851 146.68Z" fill="url(#paint7_linear_36_31772)"/>
<path d="M-31.8987 139.437L-31.8989 139.437L-31.9038 139.441C-35.8851 142.191 -39.6154 144.769 -45.3568 147.446C-51.0987 150.123 -55.4715 151.324 -60.138 152.606L-60.1425 152.607L-60.1427 152.607L-60.1952 152.622C-64.9778 153.938 -69.9595 155.309 -76.446 158.334C-83.6117 161.675 -87.995 168.101 -89.84 175.26C-91.6835 182.414 -91.0055 190.341 -88.0123 196.76C-85.988 201.101 -81.0708 207.248 -75.2218 213.46C-69.4009 219.641 -62.61 225.936 -56.7067 230.66C-54.4737 238.556 -46.8095 254.17 -38.1162 268.596C-33.7361 275.864 -29.083 282.851 -24.7137 288.416C-22.5291 291.199 -20.4104 293.634 -18.4275 295.573C-16.4498 297.507 -14.5845 298.972 -12.9049 299.789C-10.1207 301.144 -8.00764 300.754 -6.70154 300.145C-4.05869 298.913 -2.36968 297.129 -1.43672 294.912C-0.510178 292.71 -0.347209 290.125 -0.666964 287.309C-1.30305 281.707 -3.87705 275.001 -6.49117 268.19L-6.51133 268.138L-6.97812 268.317L-6.51136 268.138C-10.0604 258.896 -12.8291 250.981 -13.27 244.706C-13.4897 241.579 -13.127 238.901 -12.0254 236.684C-10.9286 234.477 -9.07646 232.682 -6.22947 231.355C-3.38248 230.027 -0.816998 229.762 1.57864 230.34C3.98454 230.921 6.26937 232.365 8.52379 234.544C13.0474 238.915 17.3307 246.123 22.129 254.782L22.5664 254.54L22.1291 254.782L22.1563 254.832C25.6933 261.212 29.176 267.495 33.0586 271.583C35.0103 273.638 37.0952 275.175 39.3773 275.88C41.6752 276.59 44.1278 276.443 46.7706 275.211C48.0768 274.602 49.7332 273.233 50.485 270.23C50.9387 268.418 51.0159 266.048 50.8054 263.289C50.5944 260.524 50.0915 257.336 49.3639 253.874C47.9088 246.949 45.5481 238.894 42.7957 230.867C37.3332 214.935 30.2986 199.028 25.6846 192.241C25.8608 184.683 25.4035 175.434 24.4094 167.001C23.4106 158.527 21.8626 150.809 19.8383 146.468C16.8451 140.049 11.2086 134.435 4.54341 131.249C-2.1271 128.06 -9.86663 127.288 -17.0323 130.629C-23.5182 133.653 -27.7706 136.588 -31.8533 139.406L-31.8987 139.437Z" stroke="#979797" stroke-opacity="0.187582"/>
<mask id="mask8_36_31772" style="mask-type:luminance" maskUnits="userSpaceOnUse" x="-92" y="127" width="144" height="175">
<path d="M19.3851 146.68C13.5009 134.061 -2.81491 124.551 -16.821 131.082C-23.2903 134.099 -27.521 137.023 -31.6147 139.849C-35.6002 142.602 -39.3607 145.202 -45.1455 147.899C-50.9302 150.597 -55.339 151.807 -60.0101 153.09C-64.8053 154.409 -69.7651 155.77 -76.2347 158.787C-90.2408 165.318 -93.4434 183.93 -87.5592 196.549C-83.5847 205.072 -68.0933 220.933 -56.2687 230.37C-51.9573 245.921 -25.5591 293.077 -12.6861 299.339C-10.0454 300.624 -8.09063 300.241 -6.91285 299.692C3.24658 294.955 -1.71965 282.017 -6.97812 268.317C-14.0652 249.862 -18.1785 236.375 -6.44078 230.902C5.29691 225.428 12.9845 237.248 22.5664 254.54C29.6813 267.375 36.3999 279.495 46.5593 274.758C47.7371 274.209 49.2869 272.957 49.9999 270.108C53.4774 256.222 34.3231 205.69 25.1809 192.39C25.5527 177.266 23.3596 155.203 19.3851 146.68Z" fill="white"/>
<path d="M-31.8987 139.437L-31.8989 139.437L-31.9038 139.441C-35.8851 142.191 -39.6154 144.769 -45.3568 147.446C-51.0987 150.123 -55.4715 151.324 -60.138 152.606L-60.1425 152.607L-60.1427 152.607L-60.1952 152.622C-64.9778 153.938 -69.9595 155.309 -76.446 158.334C-83.6117 161.675 -87.995 168.101 -89.84 175.26C-91.6835 182.414 -91.0055 190.341 -88.0123 196.76C-85.988 201.101 -81.0708 207.248 -75.2218 213.46C-69.4009 219.641 -62.61 225.936 -56.7067 230.66C-54.4737 238.556 -46.8095 254.17 -38.1162 268.596C-33.7361 275.864 -29.083 282.851 -24.7137 288.416C-22.5291 291.199 -20.4104 293.634 -18.4275 295.573C-16.4498 297.507 -14.5845 298.972 -12.9049 299.789C-10.1207 301.144 -8.00764 300.754 -6.70154 300.145C-4.05869 298.913 -2.36968 297.129 -1.43672 294.912C-0.510178 292.71 -0.347209 290.125 -0.666964 287.309C-1.30305 281.707 -3.87705 275.001 -6.49117 268.19L-6.51133 268.138L-6.97812 268.317L-6.51136 268.138C-10.0604 258.896 -12.8291 250.981 -13.27 244.706C-13.4897 241.579 -13.127 238.901 -12.0254 236.684C-10.9286 234.477 -9.07646 232.682 -6.22947 231.355C-3.38248 230.027 -0.816998 229.762 1.57864 230.34C3.98454 230.921 6.26937 232.365 8.52379 234.544C13.0474 238.915 17.3307 246.123 22.129 254.782L22.5664 254.54L22.1291 254.782L22.1563 254.832C25.6933 261.212 29.176 267.495 33.0586 271.583C35.0103 273.638 37.0952 275.175 39.3773 275.88C41.6752 276.59 44.1278 276.443 46.7706 275.211C48.0768 274.602 49.7332 273.233 50.485 270.23C50.9387 268.418 51.0159 266.048 50.8054 263.289C50.5944 260.524 50.0915 257.336 49.3639 253.874C47.9088 246.949 45.5481 238.894 42.7957 230.867C37.3332 214.935 30.2986 199.028 25.6846 192.241C25.8608 184.683 25.4035 175.434 24.4094 167.001C23.4106 158.527 21.8626 150.809 19.8383 146.468C16.8451 140.049 11.2086 134.435 4.54341 131.249C-2.1271 128.06 -9.86663 127.288 -17.0323 130.629C-23.5182 133.653 -27.7706 136.588 -31.8533 139.406L-31.8987 139.437Z" stroke="white"/>
</mask>
<g mask="url(#mask8_36_31772)">
<path fill-rule="evenodd" clip-rule="evenodd" d="M-56.3549 230.339C-56.3549 230.339 -23.9208 289.065 -13.7358 287.426C-3.55087 285.786 -32.0244 232.234 -10.4996 222.197C11.0252 212.16 34.2209 271.959 41.6839 264.893C49.1469 257.827 25.0976 202.224 29.621 198.799C34.1443 195.373 58.2876 246.669 58.2876 246.669L51.6167 282.053L25.1072 294.415L-14.7704 313.01L-57.1745 243.962L-56.3549 230.339Z" fill="#F5F5F5"/>
</g>
<path d="M1207.85 193.548C1213.74 180.93 1210.54 162.318 1196.53 155.787C1190.06 152.77 1185.1 151.409 1180.31 150.089C1175.63 148.806 1171.23 147.596 1165.44 144.899C1159.66 142.201 1155.9 139.602 1151.91 136.848C1147.82 134.023 1143.59 131.099 1137.12 128.082C1123.11 121.551 1106.79 131.061 1100.91 143.679C1096.94 152.203 1094.74 174.265 1095.11 189.389C1085.97 202.688 1066.82 253.221 1070.3 267.108C1071.01 269.957 1072.56 271.208 1073.74 271.758C1083.9 276.495 1090.61 264.374 1097.73 251.54C1107.31 234.248 1115 222.428 1126.74 227.901C1138.47 233.375 1134.36 246.862 1127.27 265.317C1122.02 279.017 1117.05 291.955 1127.21 296.692C1128.39 297.241 1130.34 297.624 1132.98 296.339C1145.85 290.077 1172.25 242.923 1176.56 227.37C1188.39 217.933 1203.88 202.072 1207.85 193.548Z" fill="url(#paint8_linear_36_31772)"/>
<path d="M1180.44 149.607L1180.44 149.607L1180.43 149.606C1175.77 148.324 1171.39 147.123 1165.65 144.446C1159.91 141.768 1156.18 139.191 1152.2 136.44L1152.19 136.437L1152.19 136.437L1152.15 136.406C1148.07 133.588 1143.81 130.653 1137.33 127.629C1130.16 124.287 1122.42 125.06 1115.75 128.248C1109.09 131.435 1103.45 137.049 1100.46 143.468C1098.43 147.809 1096.88 155.527 1095.89 164.001C1094.89 172.433 1094.43 181.682 1094.61 189.24C1090 196.027 1082.96 211.934 1077.5 227.866C1074.75 235.894 1072.39 243.949 1070.93 250.873C1070.2 254.336 1069.7 257.524 1069.49 260.289C1069.28 263.047 1069.36 265.418 1069.81 267.23C1070.56 270.233 1072.22 271.602 1073.52 272.211C1076.17 273.443 1078.62 273.59 1080.92 272.88C1083.2 272.174 1085.29 270.638 1087.24 268.583C1091.12 264.494 1094.6 258.212 1098.14 251.832L1098.17 251.782L1097.73 251.54L1098.17 251.782C1102.96 243.123 1107.25 235.915 1111.77 231.543C1114.03 229.365 1116.31 227.921 1118.72 227.34C1121.11 226.762 1123.68 227.027 1126.52 228.355C1129.37 229.682 1131.22 231.477 1132.32 233.684C1133.42 235.9 1133.79 238.579 1133.57 241.706C1133.12 247.981 1130.36 255.896 1126.81 265.137L1127.27 265.317L1126.81 265.138L1126.79 265.19C1124.17 272.001 1121.6 278.707 1120.96 284.309C1120.64 287.125 1120.81 289.71 1121.73 291.912C1122.67 294.128 1124.35 295.913 1127 297.145C1128.3 297.754 1130.42 298.143 1133.2 296.789C1134.88 295.972 1136.75 294.507 1138.72 292.573C1140.71 290.634 1142.82 288.199 1145.01 285.417C1149.38 279.851 1154.03 272.865 1158.41 265.597C1167.1 251.171 1174.77 235.557 1177 227.66C1182.91 222.937 1189.7 216.641 1195.52 210.46C1201.37 204.248 1206.28 198.101 1208.31 193.76C1211.3 187.341 1211.98 179.414 1210.14 172.26C1208.29 165.1 1203.91 158.675 1196.74 155.334C1190.26 152.309 1185.27 150.938 1180.49 149.622L1180.44 149.607Z" stroke="#979797" stroke-opacity="0.187582"/>
<mask id="mask9_36_31772" style="mask-type:luminance" maskUnits="userSpaceOnUse" x="1068" y="124" width="144" height="175">
<path d="M1207.85 193.548C1213.74 180.93 1210.54 162.318 1196.53 155.787C1190.06 152.77 1185.1 151.409 1180.31 150.089C1175.63 148.806 1171.23 147.596 1165.44 144.899C1159.66 142.201 1155.9 139.602 1151.91 136.848C1147.82 134.023 1143.59 131.099 1137.12 128.082C1123.11 121.551 1106.79 131.061 1100.91 143.679C1096.94 152.203 1094.74 174.265 1095.11 189.389C1085.97 202.688 1066.82 253.221 1070.3 267.108C1071.01 269.957 1072.56 271.208 1073.74 271.758C1083.9 276.495 1090.61 264.374 1097.73 251.54C1107.31 234.248 1115 222.428 1126.74 227.901C1138.47 233.375 1134.36 246.862 1127.27 265.317C1122.02 279.017 1117.05 291.955 1127.21 296.692C1128.39 297.241 1130.34 297.624 1132.98 296.339C1145.85 290.077 1172.25 242.923 1176.56 227.37C1188.39 217.933 1203.88 202.072 1207.85 193.548Z" fill="white"/>
<path d="M1180.44 149.607L1180.44 149.607L1180.43 149.606C1175.77 148.324 1171.39 147.123 1165.65 144.446C1159.91 141.768 1156.18 139.191 1152.2 136.44L1152.19 136.437L1152.19 136.437L1152.15 136.406C1148.07 133.588 1143.81 130.653 1137.33 127.629C1130.16 124.287 1122.42 125.06 1115.75 128.248C1109.09 131.435 1103.45 137.049 1100.46 143.468C1098.43 147.809 1096.88 155.527 1095.89 164.001C1094.89 172.433 1094.43 181.682 1094.61 189.24C1090 196.027 1082.96 211.934 1077.5 227.866C1074.75 235.894 1072.39 243.949 1070.93 250.873C1070.2 254.336 1069.7 257.524 1069.49 260.289C1069.28 263.047 1069.36 265.418 1069.81 267.23C1070.56 270.233 1072.22 271.602 1073.52 272.211C1076.17 273.443 1078.62 273.59 1080.92 272.88C1083.2 272.174 1085.29 270.638 1087.24 268.583C1091.12 264.494 1094.6 258.212 1098.14 251.832L1098.17 251.782L1097.73 251.54L1098.17 251.782C1102.96 243.123 1107.25 235.915 1111.77 231.543C1114.03 229.365 1116.31 227.921 1118.72 227.34C1121.11 226.762 1123.68 227.027 1126.52 228.355C1129.37 229.682 1131.22 231.477 1132.32 233.684C1133.42 235.9 1133.79 238.579 1133.57 241.706C1133.12 247.981 1130.36 255.896 1126.81 265.137L1127.27 265.317L1126.81 265.138L1126.79 265.19C1124.17 272.001 1121.6 278.707 1120.96 284.309C1120.64 287.125 1120.81 289.71 1121.73 291.912C1122.67 294.128 1124.35 295.913 1127 297.145C1128.3 297.754 1130.42 298.143 1133.2 296.789C1134.88 295.972 1136.75 294.507 1138.72 292.573C1140.71 290.634 1142.82 288.199 1145.01 285.417C1149.38 279.851 1154.03 272.865 1158.41 265.597C1167.1 251.171 1174.77 235.557 1177 227.66C1182.91 222.937 1189.7 216.641 1195.52 210.46C1201.37 204.248 1206.28 198.101 1208.31 193.76C1211.3 187.341 1211.98 179.414 1210.14 172.26C1208.29 165.1 1203.91 158.675 1196.74 155.334C1190.26 152.309 1185.27 150.938 1180.49 149.622L1180.44 149.607Z" stroke="white"/>
</mask>
<g mask="url(#mask9_36_31772)">
<path fill-rule="evenodd" clip-rule="evenodd" d="M1095.08 189.304C1095.08 189.304 1070.94 251.898 1078.75 258.647C1086.55 265.395 1109.27 209.16 1130.8 219.197C1152.32 229.234 1121.42 285.442 1131.63 286.617C1141.84 287.792 1168.98 233.628 1174.51 234.891C1180.04 236.155 1156.26 287.622 1156.26 287.622L1124.87 305.256L1098.36 292.895L1058.48 274.299L1084.12 197.432L1095.08 189.304Z" fill="#F5F5F5"/>
</g>
<path d="M375.319 44.99C372.901 31.2782 359.603 17.8696 344.384 20.5532C337.354 21.7927 332.51 23.5226 327.825 25.192C323.263 26.8203 318.957 28.3579 312.672 29.4662C306.386 30.5746 301.814 30.6023 296.97 30.6325C291.997 30.6663 286.854 30.6972 279.824 31.9368C264.605 34.6204 256.694 51.7687 259.112 65.4805C260.745 74.742 271.603 94.0726 280.582 106.248C280.722 122.385 294.016 174.766 304.829 184.147C307.048 186.072 309.035 186.208 310.315 185.982C321.354 184.036 319.905 170.254 318.372 155.659C316.303 135.999 315.821 121.907 328.575 119.658C341.329 117.409 345.696 130.816 350.476 149.999C354.026 164.237 357.379 177.684 368.418 175.737C369.698 175.512 371.519 174.704 372.945 172.137C379.898 159.623 374.475 105.856 369.087 90.6431C373.36 76.1303 376.952 54.2515 375.319 44.99Z" fill="white"/>
<path d="M327.657 24.721L327.657 24.7211L327.651 24.7231C323.094 26.3497 318.823 27.8738 312.585 28.9738C306.346 30.074 301.811 30.1023 296.972 30.1325L296.967 30.1325L296.967 30.1325L296.912 30.1329C291.952 30.1665 286.785 30.2016 279.737 31.4444C271.951 32.8173 266.054 37.8891 262.418 44.3272C258.786 50.7602 257.389 58.5924 258.619 65.5673C259.451 70.2844 262.61 77.4945 266.652 85.0084C270.674 92.4861 275.605 100.324 280.084 106.415C280.198 114.62 283.559 131.686 288.223 147.87C290.572 156.024 293.259 163.977 296.039 170.484C297.429 173.737 298.845 176.637 300.258 179.023C301.668 181.404 303.091 183.301 304.502 184.525C306.84 186.554 308.982 186.725 310.401 186.475C313.273 185.968 315.366 184.682 316.841 182.782C318.306 180.895 319.133 178.441 319.553 175.638C320.388 170.062 319.638 162.918 318.875 155.663L318.869 155.607L318.372 155.659L318.869 155.607C317.833 145.762 317.207 137.4 318.406 131.225C319.003 128.147 320.046 125.654 321.684 123.798C323.315 121.95 325.568 120.696 328.662 120.15C331.755 119.605 334.302 120.013 336.466 121.192C338.64 122.375 340.473 124.361 342.087 127.049C345.325 132.442 347.597 140.513 349.99 150.119L350.476 149.999L349.99 150.12L350.004 150.174C351.769 157.252 353.507 164.222 356.199 169.176C357.553 171.666 359.169 173.69 361.191 174.962C363.226 176.243 365.633 176.736 368.505 176.23C369.924 175.979 371.879 175.086 373.382 172.379C374.289 170.747 374.977 168.477 375.488 165.759C376 163.033 376.339 159.823 376.532 156.291C376.919 149.226 376.724 140.834 376.143 132.368C374.99 115.565 372.312 98.3792 369.612 90.6294C371.738 83.374 373.69 74.322 374.913 65.9193C376.141 57.4759 376.643 49.6203 375.811 44.9032C374.582 37.9283 370.59 31.0461 364.977 26.2434C359.359 21.4369 352.083 18.6878 344.297 20.0608C337.249 21.3035 332.382 23.0376 327.709 24.7025L327.657 24.721Z" stroke="#979797" stroke-opacity="0.187582"/>
<mask id="mask10_36_31772" style="mask-type:luminance" maskUnits="userSpaceOnUse" x="257" y="19" width="121" height="169">
<path d="M375.319 44.99C372.901 31.2782 359.603 17.8696 344.384 20.5532C337.354 21.7927 332.51 23.5226 327.825 25.192C323.263 26.8203 318.957 28.3579 312.672 29.4662C306.386 30.5746 301.814 30.6023 296.97 30.6325C291.997 30.6663 286.854 30.6972 279.824 31.9368C264.605 34.6204 256.694 51.7687 259.112 65.4805C260.745 74.742 271.603 94.0726 280.582 106.248C280.722 122.385 294.016 174.766 304.829 184.147C307.048 186.072 309.035 186.208 310.315 185.982C321.354 184.036 319.905 170.254 318.372 155.659C316.303 135.999 315.821 121.907 328.575 119.658C341.329 117.409 345.696 130.816 350.476 149.999C354.026 164.237 357.379 177.684 368.418 175.737C369.698 175.512 371.519 174.704 372.945 172.137C379.898 159.623 374.475 105.856 369.087 90.6431C373.36 76.1303 376.952 54.2515 375.319 44.99Z" fill="white"/>
<path d="M327.657 24.721L327.657 24.7211L327.651 24.7231C323.094 26.3497 318.823 27.8738 312.585 28.9738C306.346 30.074 301.811 30.1023 296.972 30.1325L296.967 30.1325L296.967 30.1325L296.912 30.1329C291.952 30.1665 286.785 30.2016 279.737 31.4444C271.951 32.8173 266.054 37.8891 262.418 44.3272C258.786 50.7602 257.389 58.5924 258.619 65.5673C259.451 70.2844 262.61 77.4945 266.652 85.0084C270.674 92.4861 275.605 100.324 280.084 106.415C280.198 114.62 283.559 131.686 288.223 147.87C290.572 156.024 293.259 163.977 296.039 170.484C297.429 173.737 298.845 176.637 300.258 179.023C301.668 181.404 303.091 183.301 304.502 184.525C306.84 186.554 308.982 186.725 310.401 186.475C313.273 185.968 315.366 184.682 316.841 182.782C318.306 180.895 319.133 178.441 319.553 175.638C320.388 170.062 319.638 162.918 318.875 155.663L318.869 155.607L318.372 155.659L318.869 155.607C317.833 145.762 317.207 137.4 318.406 131.225C319.003 128.147 320.046 125.654 321.684 123.798C323.315 121.95 325.568 120.696 328.662 120.15C331.755 119.605 334.302 120.013 336.466 121.192C338.64 122.375 340.473 124.361 342.087 127.049C345.325 132.442 347.597 140.513 349.99 150.119L350.476 149.999L349.99 150.12L350.004 150.174C351.769 157.252 353.507 164.222 356.199 169.176C357.553 171.666 359.169 173.69 361.191 174.962C363.226 176.243 365.633 176.736 368.505 176.23C369.924 175.979 371.879 175.086 373.382 172.379C374.289 170.747 374.977 168.477 375.488 165.759C376 163.033 376.339 159.823 376.532 156.291C376.919 149.226 376.724 140.834 376.143 132.368C374.99 115.565 372.312 98.3792 369.612 90.6294C371.738 83.374 373.69 74.322 374.913 65.9193C376.141 57.4759 376.643 49.6203 375.811 44.9032C374.582 37.9283 370.59 31.0461 364.977 26.2434C359.359 21.4369 352.083 18.6878 344.297 20.0608C337.249 21.3035 332.382 23.0376 327.709 24.7025L327.657 24.721Z" stroke="white"/>
</mask>
<g mask="url(#mask10_36_31772)">
<path fill-rule="evenodd" clip-rule="evenodd" d="M287.976 30.5L331.061 22.9029C331.061 22.9029 321.544 32.7045 310.785 34.6016C300.026 36.4987 287.976 30.5 287.976 30.5Z" fill="#E6E6E6"/>
<path fill-rule="evenodd" clip-rule="evenodd" d="M280.507 106.196C280.507 106.196 296.636 171.315 306.899 172.368C317.161 173.42 303.518 114.323 326.907 110.199C350.296 106.075 357.224 169.841 366.262 164.947C375.299 160.053 366.461 100.12 371.717 97.9824C376.972 95.8443 387.017 151.641 387.017 151.641L371.415 184.093L342.609 189.172L299.278 196.813L276.19 119.142L280.507 106.196Z" fill="#F5F5F5"/>
</g>
<path d="M861.358 61.4808C863.776 47.769 855.866 30.6206 840.646 27.9371C833.617 26.6975 828.474 26.6666 823.5 26.6328C818.656 26.6025 814.084 26.5748 807.798 25.4665C801.513 24.3581 797.207 22.8205 792.645 21.1922C787.96 19.5229 783.116 17.793 776.087 16.5534C760.867 13.8699 747.569 27.2785 745.151 40.9903C743.518 50.2518 747.11 72.1303 751.384 86.6424C745.995 101.854 740.572 155.623 747.525 168.137C748.951 170.704 750.772 171.512 752.052 171.737C763.091 173.684 766.444 160.238 769.995 145.999C774.774 126.816 779.141 113.409 791.895 115.658C804.65 117.907 804.167 131.999 802.098 151.66C800.565 166.254 799.116 180.036 810.155 181.983C811.435 182.208 813.423 182.072 815.641 180.148C826.454 170.767 839.748 118.387 839.887 102.249C848.867 90.0731 859.725 70.7423 861.358 61.4808Z" fill="url(#paint9_linear_36_31772)"/>
<path d="M823.503 26.1328L823.503 26.1328L823.497 26.1327C818.658 26.1025 814.124 26.0741 807.885 24.9741C801.646 23.8739 797.375 22.3496 792.817 20.7229L792.813 20.7213L792.813 20.7212L792.762 20.703C788.089 19.038 783.222 17.3038 776.173 16.061C768.387 14.6881 761.111 17.4371 755.493 22.2437C749.88 27.0464 745.888 33.9285 744.659 40.9035C743.827 45.6206 744.329 53.4761 745.557 61.9193C746.78 70.3219 748.732 79.3737 750.858 86.6287C748.158 94.3781 745.481 111.564 744.328 128.367C743.747 136.834 743.551 145.225 743.938 152.291C744.131 155.823 744.47 159.033 744.982 161.759C745.493 164.478 746.181 166.747 747.088 168.38C748.591 171.087 750.546 171.98 751.965 172.23C754.837 172.736 757.244 172.243 759.28 170.963C761.301 169.691 762.917 167.667 764.271 165.176C766.963 160.223 768.701 153.253 770.466 146.174L770.48 146.12L769.995 145.999L770.48 146.12C772.873 136.514 775.145 128.442 778.383 123.049C779.997 120.361 781.83 118.376 784.004 117.192C786.168 116.013 788.715 115.605 791.808 116.151C794.902 116.696 797.156 117.95 798.786 119.798C800.424 121.654 801.467 124.147 802.065 127.225C803.263 133.4 802.637 141.762 801.601 151.607L802.098 151.66L801.601 151.607L801.595 151.663C800.833 158.918 800.082 166.062 800.917 171.638C801.337 174.441 802.164 176.896 803.629 178.782C805.104 180.682 807.197 181.969 810.069 182.475C811.488 182.725 813.63 182.554 815.968 180.525C817.379 179.301 818.802 177.404 820.212 175.024C821.625 172.638 823.041 169.738 824.431 166.484C827.211 159.977 829.897 152.025 832.247 143.871C836.911 127.687 840.272 110.622 840.386 102.416C844.865 96.3252 849.796 88.4867 853.818 81.0088C857.86 73.4948 861.019 66.2847 861.851 61.5676C863.081 54.5926 861.684 46.7605 858.052 40.3275C854.416 33.8894 848.519 28.8176 840.733 27.4447C833.685 26.202 828.519 26.1669 823.558 26.1331L823.503 26.1328Z" stroke="#979797" stroke-opacity="0.187582"/>
<mask id="mask11_36_31772" style="mask-type:luminance" maskUnits="userSpaceOnUse" x="743" y="15" width="120" height="169">
<path d="M861.358 61.4808C863.776 47.769 855.866 30.6206 840.646 27.9371C833.617 26.6975 828.474 26.6666 823.5 26.6328C818.656 26.6025 814.084 26.5748 807.798 25.4665C801.513 24.3581 797.207 22.8205 792.645 21.1922C787.96 19.5229 783.116 17.793 776.087 16.5534C760.867 13.8699 747.569 27.2785 745.151 40.9903C743.518 50.2518 747.11 72.1303 751.384 86.6424C745.995 101.854 740.572 155.623 747.525 168.137C748.951 170.704 750.772 171.512 752.052 171.737C763.091 173.684 766.444 160.238 769.995 145.999C774.774 126.816 779.141 113.409 791.895 115.658C804.65 117.907 804.167 131.999 802.098 151.66C800.565 166.254 799.116 180.036 810.155 181.983C811.435 182.208 813.423 182.072 815.641 180.148C826.454 170.767 839.748 118.387 839.887 102.249C848.867 90.0731 859.725 70.7423 861.358 61.4808Z" fill="white"/>
<path d="M823.503 26.1328L823.503 26.1328L823.497 26.1327C818.658 26.1025 814.124 26.0741 807.885 24.9741C801.646 23.8739 797.375 22.3496 792.817 20.7229L792.813 20.7213L792.813 20.7212L792.762 20.703C788.089 19.038 783.222 17.3038 776.173 16.061C768.387 14.6881 761.111 17.4371 755.493 22.2437C749.88 27.0464 745.888 33.9285 744.659 40.9035C743.827 45.6206 744.329 53.4761 745.557 61.9193C746.78 70.3219 748.732 79.3737 750.858 86.6287C748.158 94.3781 745.481 111.564 744.328 128.367C743.747 136.834 743.551 145.225 743.938 152.291C744.131 155.823 744.47 159.033 744.982 161.759C745.493 164.478 746.181 166.747 747.088 168.38C748.591 171.087 750.546 171.98 751.965 172.23C754.837 172.736 757.244 172.243 759.28 170.963C761.301 169.691 762.917 167.667 764.271 165.176C766.963 160.223 768.701 153.253 770.466 146.174L770.48 146.12L769.995 145.999L770.48 146.12C772.873 136.514 775.145 128.442 778.383 123.049C779.997 120.361 781.83 118.376 784.004 117.192C786.168 116.013 788.715 115.605 791.808 116.151C794.902 116.696 797.156 117.95 798.786 119.798C800.424 121.654 801.467 124.147 802.065 127.225C803.263 133.4 802.637 141.762 801.601 151.607L802.098 151.66L801.601 151.607L801.595 151.663C800.833 158.918 800.082 166.062 800.917 171.638C801.337 174.441 802.164 176.896 803.629 178.782C805.104 180.682 807.197 181.969 810.069 182.475C811.488 182.725 813.63 182.554 815.968 180.525C817.379 179.301 818.802 177.404 820.212 175.024C821.625 172.638 823.041 169.738 824.431 166.484C827.211 159.977 829.897 152.025 832.247 143.871C836.911 127.687 840.272 110.622 840.386 102.416C844.865 96.3252 849.796 88.4867 853.818 81.0088C857.86 73.4948 861.019 66.2847 861.851 61.5676C863.081 54.5926 861.684 46.7605 858.052 40.3275C854.416 33.8894 848.519 28.8176 840.733 27.4447C833.685 26.202 828.519 26.1669 823.558 26.1331L823.503 26.1328Z" stroke="white"/>
</mask>
<g mask="url(#mask11_36_31772)">
<path fill-rule="evenodd" clip-rule="evenodd" d="M784.239 17.9902L827.324 25.5873C827.324 25.5873 815.028 31.5427 804.269 29.6455C793.51 27.7484 784.239 17.9902 784.239 17.9902Z" fill="#E6E6E6"/>
<path fill-rule="evenodd" clip-rule="evenodd" d="M751.33 86.5682C751.33 86.5682 744.215 153.277 753.498 157.776C762.781 162.275 770.174 102.076 793.563 106.2C816.952 110.324 801.653 172.614 811.819 171.106C821.986 169.599 834.178 110.257 839.848 110.046C845.518 109.834 835.873 165.701 835.873 165.701L810.113 190.86L781.308 185.781L737.976 178.14L742.845 97.2571L751.33 86.5682Z" fill="#F5F5F5"/>
</g>
<defs>
<filter id="filter0_b_36_31772" x="370.306" y="-4.95563" width="136.047" height="180.247" filterUnits="userSpaceOnUse" color-interpolation-filters="sRGB">
<feFlood flood-opacity="0" result="BackgroundImageFix"/>
<feGaussianBlur in="BackgroundImageFix" stdDeviation="4.07742"/>
<feComposite in2="SourceAlpha" operator="in" result="effect1_backgroundBlur_36_31772"/>
<feBlend mode="normal" in="SourceGraphic" in2="effect1_backgroundBlur_36_31772" result="shape"/>
</filter>
<filter id="filter1_b_36_31772" x="613.882" y="-6.95758" width="136.047" height="180.249" filterUnits="userSpaceOnUse" color-interpolation-filters="sRGB">
<feFlood flood-opacity="0" result="BackgroundImageFix"/>
<feGaussianBlur in="BackgroundImageFix" stdDeviation="4.07742"/>
<feComposite in2="SourceAlpha" operator="in" result="effect1_backgroundBlur_36_31772"/>
<feBlend mode="normal" in="SourceGraphic" in2="effect1_backgroundBlur_36_31772" result="shape"/>
</filter>
<linearGradient id="paint0_linear_36_31772" x1="0" y1="78.3691" x2="0" y2="311" gradientUnits="userSpaceOnUse">
<stop stop-color="#E6E4E4"/>
<stop offset="1" stop-color="#D4D4D4"/>
</linearGradient>
<linearGradient id="paint1_linear_36_31772" x1="456.659" y1="-5.41326" x2="435.373" y2="32.4892" gradientUnits="userSpaceOnUse">
<stop stop-color="white" stop-opacity="0.661222"/>
<stop offset="1" stop-color="white"/>
</linearGradient>
<linearGradient id="paint2_linear_36_31772" x1="707.206" y1="-3.59688" x2="679.662" y2="30.0336" gradientUnits="userSpaceOnUse">
<stop stop-color="white" stop-opacity="0.661222"/>
<stop offset="1" stop-color="white"/>
</linearGradient>
<linearGradient id="paint3_linear_36_31772" x1="207.376" y1="39.2788" x2="192.995" y2="80.3017" gradientUnits="userSpaceOnUse">
<stop stop-color="white" stop-opacity="0.661222"/>
<stop offset="1" stop-color="white"/>
</linearGradient>
<linearGradient id="paint4_linear_36_31772" x1="955.543" y1="49.614" x2="922.577" y2="77.9505" gradientUnits="userSpaceOnUse">
<stop stop-color="white" stop-opacity="0.661222"/>
<stop offset="1" stop-color="white"/>
</linearGradient>
<linearGradient id="paint5_linear_36_31772" x1="86.3641" y1="78.6448" x2="75.6135" y2="120.765" gradientUnits="userSpaceOnUse">
<stop stop-color="white" stop-opacity="0.661222"/>
<stop offset="1" stop-color="white"/>
</linearGradient>
<linearGradient id="paint6_linear_36_31772" x1="1075.37" y1="96.6252" x2="1040.06" y2="121.981" gradientUnits="userSpaceOnUse">
<stop stop-color="white" stop-opacity="0.661222"/>
<stop offset="1" stop-color="white"/>
</linearGradient>
<linearGradient id="paint7_linear_36_31772" x1="-8.78065" y1="213.143" x2="27.7683" y2="205.244" gradientUnits="userSpaceOnUse">
<stop stop-color="#E4E4E4"/>
<stop stop-color="#E4E4E4"/>
<stop offset="1" stop-color="white"/>
</linearGradient>
<linearGradient id="paint8_linear_36_31772" x1="1132.69" y1="157.557" x2="1103.36" y2="151.421" gradientUnits="userSpaceOnUse">
<stop stop-color="#E6E6E6"/>
<stop offset="1" stop-color="white"/>
</linearGradient>
<linearGradient id="paint9_linear_36_31772" x1="831.788" y1="15.5219" x2="801.418" y2="46.6238" gradientUnits="userSpaceOnUse">
<stop stop-color="white" stop-opacity="0.661222"/>
<stop offset="1" stop-color="white"/>
</linearGradient>
</defs>
</svg>
