<svg width="61" height="22" viewBox="0 0 61 22" fill="none" xmlns="http://www.w3.org/2000/svg">
<path fill-rule="evenodd" clip-rule="evenodd" d="M24.0623 22H23.5L23.9377 20H24.5L24.0623 22Z" fill="#231F20"/>
<path fill-rule="evenodd" clip-rule="evenodd" d="M25.0264 20.0083C25.0405 20.014 25.0546 20.0281 25.0694 20.0511L25.9885 21.4898C25.9908 21.4655 25.9924 21.4419 25.9947 21.4189C25.9971 21.3959 25.9994 21.3742 26.0025 21.3538L26.1895 20H26.5L26.2223 21.9994H26.0448C26.0166 21.9994 25.9939 21.9949 25.9759 21.986C25.958 21.977 25.9415 21.963 25.9259 21.9425L25.01 20.5038C25.0076 20.5249 25.0061 20.5453 25.0045 20.5645C25.0029 20.5837 25.0014 20.6015 24.999 20.6181L24.809 22H24.5L24.7761 20.0006H24.9583C24.9896 20.0006 25.0123 20.0032 25.0264 20.0089V20.0083Z" fill="#231F20"/>
<path fill-rule="evenodd" clip-rule="evenodd" d="M28.0256 20.0083C28.0397 20.014 28.0538 20.0281 28.0686 20.0511L28.9877 21.4898C28.99 21.4655 28.9916 21.4419 28.9939 21.4189C28.9963 21.3959 28.9986 21.3742 29.0018 21.3538L29.1895 20H29.5L29.2223 21.9994H29.0448C29.0166 21.9994 28.9939 21.9949 28.9759 21.986C28.9587 21.977 28.9415 21.963 28.9259 21.9425L28.01 20.5038C28.0076 20.5249 28.0061 20.5453 28.0045 20.5645C28.0029 20.5837 28.0014 20.6015 27.999 20.6181L27.809 22H27.5L27.7761 20.0006H27.9583C27.9896 20.0006 28.0123 20.0032 28.0264 20.0089L28.0256 20.0083Z" fill="#231F20"/>
<path fill-rule="evenodd" clip-rule="evenodd" d="M31.1551 20.309C31.1551 20.1692 31.1425 20.0416 31.1165 19.9281C31.0905 19.8145 31.0533 19.7169 31.005 19.6362C30.9567 19.5555 30.8973 19.4936 30.8281 19.4495C30.7583 19.4063 30.6802 19.3847 30.5933 19.3847C30.4818 19.3847 30.3792 19.4157 30.2871 19.4776C30.1949 19.5396 30.1154 19.6278 30.05 19.7423C29.9846 19.8567 29.9333 19.9947 29.8969 20.1551C29.8605 20.3165 29.8419 20.4958 29.8419 20.6928C29.8419 20.8327 29.8545 20.9593 29.8805 21.0729C29.9065 21.1864 29.943 21.284 29.9913 21.3647C30.0396 21.4454 30.0975 21.5083 30.1667 21.5515C30.2358 21.5956 30.3146 21.6171 30.4023 21.6171C30.5152 21.6171 30.6178 21.5862 30.71 21.5242C30.8021 21.4623 30.8816 21.375 30.9478 21.2615C31.0139 21.148 31.0652 21.01 31.1009 20.8495C31.1373 20.6881 31.1551 20.5089 31.1551 20.31V20.309ZM31.4993 20.2987C31.4993 20.462 31.4866 20.6178 31.4606 20.766C31.4353 20.9143 31.3982 21.0513 31.3506 21.177C31.3023 21.3028 31.2443 21.4163 31.1767 21.5177C31.1083 21.619 31.0325 21.7053 30.9485 21.7767C30.8645 21.848 30.7739 21.9033 30.6758 21.9418C30.5777 21.9803 30.4751 22 30.3658 22C30.2328 22 30.1124 21.9672 30.0046 21.9024C29.8976 21.8367 29.8062 21.7466 29.7319 21.6322C29.6576 21.5167 29.5996 21.3807 29.5602 21.223C29.5201 21.0654 29.5 20.8927 29.5 20.7069C29.5 20.5427 29.5134 20.386 29.5394 20.2377C29.5654 20.0895 29.6026 19.9525 29.6501 19.8258C29.6977 19.6991 29.7557 19.5846 29.8233 19.4833C29.8917 19.381 29.9675 19.2947 30.0515 19.2233C30.1355 19.152 30.2261 19.0967 30.3242 19.0582C30.4223 19.0197 30.5256 19 30.6342 19C30.7672 19 30.8876 19.0328 30.9946 19.0976C31.1016 19.1633 31.1923 19.2534 31.2674 19.3697C31.3424 19.4861 31.4004 19.6231 31.4398 19.7817C31.4799 19.9403 31.5 20.1129 31.5 20.2987H31.4993Z" fill="#231F20"/>
<path fill-rule="evenodd" clip-rule="evenodd" d="M31.5 20H31.783C31.8128 20 31.8371 20.007 31.8559 20.0211C31.874 20.0351 31.8857 20.0524 31.8897 20.0741L32.2276 21.4004C32.2377 21.4355 32.2472 21.4738 32.2558 21.5147C32.2644 21.5562 32.2715 21.599 32.2777 21.643C32.2942 21.5983 32.3114 21.5556 32.3303 21.5147C32.3483 21.4732 32.3679 21.4355 32.3875 21.4004L33.0884 20.0741C33.097 20.0556 33.1127 20.039 33.1362 20.0236C33.1597 20.0083 33.1864 20.0006 33.217 20.0006H33.5L32.3851 22H32.0661L31.5016 20.0006L31.5 20Z" fill="#231F20"/>
<path fill-rule="evenodd" clip-rule="evenodd" d="M34.2498 21.2526H34.9573L34.7808 20.504C34.7745 20.4752 34.7675 20.4427 34.7604 20.4056C34.7533 20.3686 34.7455 20.3283 34.7384 20.2849C34.7204 20.3283 34.7031 20.3692 34.6843 20.4063C34.6663 20.4439 34.6498 20.4772 34.6365 20.5072L34.2498 21.2533V21.2526ZM35.5 22H35.2278C35.1965 22 35.1722 21.993 35.1549 21.9802C35.1376 21.9668 35.1251 21.9489 35.118 21.9265L35.0098 21.4781H34.1337L33.9024 21.9265C33.8922 21.9463 33.8757 21.963 33.8529 21.9776C33.8302 21.9923 33.8043 22 33.7753 22H33.5L34.5965 20H34.9549L35.4992 22H35.5Z" fill="#231F20"/>
<path fill-rule="evenodd" clip-rule="evenodd" d="M36.5 20L36.4549 20.2612H35.6898L35.4013 22H34.9812L35.2679 20.2612H34.5L34.5414 20H36.5Z" fill="#231F20"/>
<path fill-rule="evenodd" clip-rule="evenodd" d="M37.0618 22H36.5L36.9382 20H37.5L37.0618 22Z" fill="#231F20"/>
<path fill-rule="evenodd" clip-rule="evenodd" d="M40.1559 20.309C40.1559 20.1692 40.1433 20.0416 40.1172 19.9281C40.0912 19.8145 40.0541 19.7169 40.0058 19.6362C39.9575 19.5555 39.898 19.4936 39.8289 19.4495C39.759 19.4063 39.681 19.3847 39.594 19.3847C39.4825 19.3847 39.38 19.4157 39.2878 19.4776C39.1957 19.5396 39.1161 19.6278 39.0507 19.7423C38.9853 19.8567 38.934 19.9947 38.8976 20.1551C38.8612 20.3165 38.8426 20.4958 38.8426 20.6928C38.8426 20.8327 38.8553 20.9593 38.8813 21.0729C38.9065 21.1864 38.9437 21.284 38.992 21.3647C39.0403 21.4454 39.0983 21.5083 39.1674 21.5515C39.2365 21.5956 39.3153 21.6171 39.403 21.6171C39.516 21.6171 39.6185 21.5862 39.7107 21.5242C39.8029 21.4623 39.8824 21.375 39.9485 21.2615C40.0147 21.148 40.066 21.01 40.1016 20.8495C40.1381 20.6881 40.1559 20.5089 40.1559 20.31V20.309ZM40.5 20.2987C40.5 20.462 40.4874 20.6178 40.4614 20.766C40.4353 20.9143 40.3989 21.0513 40.3506 21.177C40.3023 21.3028 40.2443 21.4163 40.1767 21.5177C40.1083 21.619 40.0325 21.7053 39.9485 21.7767C39.8645 21.848 39.7739 21.9033 39.6758 21.9418C39.5777 21.9803 39.4751 22 39.3658 22C39.2321 22 39.1124 21.9672 39.0046 21.9024C38.8976 21.8367 38.8062 21.7466 38.7319 21.6322C38.6576 21.5167 38.5996 21.3807 38.5602 21.223C38.5201 21.0654 38.5 20.8927 38.5 20.7069C38.5 20.5427 38.5134 20.386 38.5394 20.2377C38.5654 20.0895 38.6026 19.9525 38.6501 19.8258C38.6977 19.6991 38.7557 19.5846 38.8233 19.4833C38.8917 19.381 38.9675 19.2947 39.0515 19.2233C39.1355 19.152 39.2261 19.0967 39.3242 19.0582C39.4223 19.0197 39.5256 19 39.6342 19C39.7672 19 39.8876 19.0328 39.9946 19.0976C40.1016 19.1633 40.1923 19.2534 40.2674 19.3697C40.3424 19.4861 40.4004 19.6231 40.4398 19.7817C40.4799 19.9403 40.5 20.1129 40.5 20.2987Z" fill="#231F20"/>
<path fill-rule="evenodd" clip-rule="evenodd" d="M41.0264 20.0083C41.0405 20.014 41.0546 20.0281 41.0694 20.0511L41.9885 21.4898C41.9908 21.4655 41.9924 21.4419 41.9947 21.4189C41.9971 21.3959 41.9994 21.3742 42.0025 21.3538L42.1895 20H42.5L42.2223 21.9994H42.0448C42.0166 21.9994 41.9939 21.9949 41.9759 21.986C41.958 21.977 41.9415 21.963 41.9259 21.9425L41.01 20.5038C41.0076 20.5249 41.0061 20.5453 41.0045 20.5645C41.0029 20.5837 41.0014 20.6015 40.999 20.6181L40.809 22H40.5L40.7761 20.0006H40.9583C40.9896 20.0006 41.0123 20.0032 41.0264 20.0089V20.0083Z" fill="#231F20"/>
<path fill-rule="evenodd" clip-rule="evenodd" d="M44.2223 22H43.8696L43.9924 21.1054H42.9756L42.852 22H42.5L42.7761 20H43.1304L43.0068 20.8806H44.0237L44.1457 20H44.5L44.2223 22Z" fill="#231F20"/>
<path fill-rule="evenodd" clip-rule="evenodd" d="M46.2498 21.2526H46.9573L46.7808 20.504C46.7745 20.4752 46.7675 20.4427 46.7604 20.4056C46.7533 20.3686 46.7455 20.3283 46.7384 20.2849C46.7204 20.3283 46.7031 20.3692 46.6843 20.4063C46.6663 20.4439 46.6498 20.4772 46.6365 20.5072L46.2498 21.2533V21.2526ZM47.5 22H47.2278C47.1965 22 47.1722 21.993 47.1549 21.9802C47.1376 21.9668 47.1251 21.9489 47.118 21.9265L47.0098 21.4781H46.1337L45.9024 21.9265C45.8922 21.9463 45.8757 21.963 45.8529 21.9776C45.8302 21.9923 45.8043 22 45.7753 22H45.5L46.5965 20H46.9549L47.4992 22H47.5Z" fill="#231F20"/>
<path fill-rule="evenodd" clip-rule="evenodd" d="M49.3652 19.5278C49.3481 19.5512 49.331 19.5681 49.3149 19.5794C49.2988 19.5906 49.2797 19.5972 49.2565 19.5972C49.2324 19.5972 49.2072 19.5859 49.1791 19.5634C49.1519 19.5409 49.1187 19.5166 49.0795 19.4894C49.0412 19.4622 48.994 19.4378 48.9386 19.4153C48.8833 19.3928 48.8169 19.3816 48.7384 19.3816C48.66 19.3816 48.5895 19.3938 48.5282 19.4181C48.4668 19.4425 48.4145 19.4753 48.3722 19.5166C48.33 19.5578 48.2988 19.6075 48.2767 19.6637C48.2555 19.72 48.2445 19.7809 48.2445 19.8466C48.2445 19.9122 48.2606 19.9684 48.2918 20.0125C48.3229 20.0566 48.3652 20.095 48.4175 20.1278C48.4698 20.1606 48.5282 20.1897 48.5946 20.215C48.66 20.2413 48.7274 20.2675 48.7968 20.2947C48.8662 20.3219 48.9336 20.3528 48.999 20.3875C49.0644 20.4222 49.1237 20.4653 49.1761 20.5159C49.2284 20.5666 49.2696 20.6284 49.3018 20.7006C49.333 20.7728 49.3491 20.86 49.3491 20.9612C49.3491 21.1028 49.3249 21.2369 49.2767 21.3625C49.2284 21.4891 49.16 21.5997 49.0714 21.6934C48.9829 21.7881 48.8742 21.8622 48.7465 21.9175C48.6187 21.9728 48.4748 22 48.3159 22C48.2314 22 48.1499 21.9906 48.0704 21.9719C47.9909 21.9541 47.9165 21.9278 47.8471 21.8941C47.7777 21.8603 47.7133 21.82 47.6549 21.7731C47.5966 21.7253 47.5443 21.6728 47.5 21.6137L47.6579 21.3934C47.671 21.3775 47.6881 21.3634 47.7072 21.3512C47.7264 21.34 47.7465 21.3344 47.7686 21.3344C47.7978 21.3344 47.828 21.3494 47.8592 21.3784C47.8903 21.4075 47.9276 21.4403 47.9728 21.4759C48.0181 21.5116 48.0724 21.5444 48.1358 21.5734C48.2002 21.6025 48.2797 21.6175 48.3742 21.6175C48.4567 21.6175 48.5322 21.6044 48.5986 21.5791C48.665 21.5528 48.7223 21.5172 48.7686 21.4703C48.8149 21.4234 48.8501 21.3663 48.8753 21.2987C48.8994 21.2312 48.9125 21.1572 48.9125 21.0756C48.9125 21.0053 48.8964 20.9463 48.8652 20.9003C48.834 20.8544 48.7918 20.815 48.7404 20.7822C48.6891 20.7494 48.6308 20.7213 48.5654 20.6988C48.5 20.6753 48.4326 20.6509 48.3652 20.6256C48.2968 20.5994 48.2304 20.5703 48.165 20.5366C48.0996 20.5028 48.0412 20.4616 47.9899 20.41C47.9386 20.3594 47.8974 20.2956 47.8652 20.2206C47.834 20.1456 47.8179 20.0528 47.8179 19.9441C47.8179 19.8203 47.84 19.7022 47.8843 19.5888C47.9286 19.4753 47.992 19.375 48.0765 19.2878C48.16 19.2006 48.2616 19.1312 48.3803 19.0787C48.499 19.0263 48.6338 19 48.7837 19C48.8602 19 48.9326 19.0075 49.002 19.0234C49.0714 19.0394 49.1368 19.0619 49.1992 19.0909C49.2606 19.12 49.3169 19.1547 49.3662 19.1959C49.4165 19.2372 49.4608 19.2812 49.5 19.3309L49.3672 19.5269L49.3652 19.5278Z" fill="#231F20"/>
<path fill-rule="evenodd" clip-rule="evenodd" d="M50.2498 21.2526H50.9573L50.7808 20.504C50.7745 20.4752 50.7675 20.4427 50.7604 20.4056C50.7533 20.3686 50.7455 20.3283 50.7384 20.2849C50.7204 20.3283 50.7031 20.3692 50.6843 20.4063C50.6663 20.4439 50.6498 20.4772 50.6365 20.5072L50.2498 21.2533V21.2526ZM51.5 22H51.2278C51.1965 22 51.1722 21.993 51.1549 21.9802C51.1376 21.9668 51.1251 21.9489 51.118 21.9265L51.0098 21.4781H50.1337L49.9024 21.9265C49.8922 21.9463 49.8757 21.963 49.8529 21.9776C49.8302 21.9923 49.8043 22 49.7753 22H49.5L50.5965 20H50.9549L51.4992 22H51.5Z" fill="#231F20"/>
<path fill-rule="evenodd" clip-rule="evenodd" d="M52.0264 20.0083C52.0405 20.014 52.0546 20.0281 52.0694 20.0511L52.9885 21.4898C52.99 21.4655 52.9924 21.4419 52.9947 21.4189C52.9971 21.3959 52.9994 21.3742 53.0025 21.3538L53.1895 20H53.5L53.2223 21.9994H53.0448C53.0166 21.9994 52.9939 21.9949 52.9759 21.986C52.958 21.977 52.9415 21.963 52.9259 21.9425L52.01 20.5038C52.0076 20.5249 52.0061 20.5453 52.0045 20.5645C52.0029 20.5837 52.0014 20.6015 51.999 20.6181L51.809 22H51.5L51.7761 20.0006H51.9583C51.9896 20.0006 52.0123 20.0032 52.0264 20.0089V20.0083Z" fill="#231F20"/>
<path fill-rule="evenodd" clip-rule="evenodd" d="M54.2498 21.2526H54.9573L54.7808 20.504C54.7745 20.4752 54.7675 20.4427 54.7604 20.4056C54.7533 20.3686 54.7455 20.3283 54.7384 20.2849C54.7204 20.3283 54.7031 20.3692 54.6843 20.4063C54.6663 20.4439 54.6498 20.4772 54.6365 20.5072L54.2498 21.2533V21.2526ZM55.5 22H55.2278C55.1965 22 55.1722 21.993 55.1549 21.9802C55.1376 21.9668 55.1251 21.9489 55.118 21.9265L55.0098 21.4781H54.1337L53.9024 21.9265C53.8922 21.9463 53.8757 21.963 53.8529 21.9776C53.8302 21.9923 53.8043 22 53.7753 22H53.5L54.5965 20H54.9549L55.4992 22H55.5Z" fill="#231F20"/>
<path fill-rule="evenodd" clip-rule="evenodd" d="M56.9166 21.3103C56.9241 21.3327 56.9317 21.355 56.9392 21.3787C56.9533 21.3557 56.9675 21.3327 56.9826 21.3103C56.9976 21.288 57.0137 21.2663 57.0316 21.2452L58.0297 20.0511C58.0561 20.03 58.0787 20.016 58.0985 20.0096C58.1183 20.0032 58.1456 20 58.1824 20H58.5L58.1673 21.9994H57.7969L58.0259 20.6194C58.0297 20.5983 58.0353 20.5741 58.0419 20.5479C58.0485 20.5217 58.0561 20.4943 58.0636 20.4668L57.0749 21.6622C57.0372 21.7082 56.9835 21.7318 56.9138 21.7318H56.8553C56.8223 21.7318 56.7941 21.7261 56.7686 21.7146C56.7441 21.7031 56.7253 21.6858 56.7139 21.6622L56.1126 20.4681C56.1117 20.4949 56.1098 20.5204 56.1079 20.5453C56.106 20.5696 56.1041 20.5926 56.1013 20.6143L55.8723 22H55.5L55.8327 20.0006H56.1484C56.1673 20.0006 56.1833 20.0013 56.1956 20.0026C56.2078 20.0038 56.2191 20.0064 56.2295 20.0102C56.2399 20.014 56.2493 20.0192 56.2578 20.0255C56.2663 20.0319 56.2757 20.0409 56.2861 20.0517L56.8911 21.2458C56.9015 21.2669 56.91 21.2886 56.9175 21.311L56.9166 21.3103Z" fill="#231F20"/>
<path fill-rule="evenodd" clip-rule="evenodd" d="M60.5 20L60.4542 20.2542H59.256L59.1474 20.8697H60.1046L60.0588 21.1137H59.1056L58.992 21.7458H60.1962L60.1504 22H58.5L58.8516 20H60.5Z" fill="#231F20"/>
<path fill-rule="evenodd" clip-rule="evenodd" d="M28.3653 3.5C28.3653 3.09788 28.3123 2.73654 28.2063 2.41599C28.1003 2.09543 27.9481 1.82463 27.7504 1.6044C27.5527 1.38418 27.313 1.21452 27.0312 1.09625C26.7494 0.977977 26.4331 0.91925 26.0824 0.91925H24.6154V6.08157H26.0824C26.434 6.08157 26.7502 6.02284 27.0312 5.9062C27.313 5.78956 27.5527 5.6199 27.7504 5.39804C27.9481 5.17618 28.1003 4.90538 28.2063 4.58646C28.3123 4.26754 28.3653 3.90538 28.3653 3.5ZM29.5 3.5C29.5 4.01876 29.4176 4.49266 29.2535 4.9217C29.0887 5.35155 28.8574 5.71941 28.5579 6.02773C28.2584 6.33605 27.9001 6.57504 27.4804 6.7447C27.0606 6.91517 26.5955 7 26.0824 7H23.5V0H26.0824C26.5946 0 27.0606 0.0848287 27.4804 0.255302C27.8993 0.425775 28.2584 0.664763 28.5579 0.972268C28.8574 1.27977 29.0887 1.64845 29.2535 2.0783C29.4184 2.50734 29.5 2.98206 29.5 3.5Z" fill="#231F20"/>
<path fill-rule="evenodd" clip-rule="evenodd" d="M35.5043 3.50235C35.5043 3.10876 35.4577 2.75509 35.3647 2.44134C35.2717 2.12758 35.138 1.86093 34.9645 1.64218C34.791 1.42343 34.5806 1.25498 34.3332 1.13762C34.0858 1.02026 33.8082 0.961182 33.4996 0.961182C33.1909 0.961182 32.9177 1.02026 32.6704 1.13762C32.423 1.25498 32.2119 1.42343 32.0369 1.64218C31.8619 1.86093 31.7268 2.12758 31.633 2.44134C31.5385 2.75509 31.4912 3.10876 31.4912 3.50235C31.4912 3.89594 31.5385 4.25441 31.633 4.56816C31.7275 4.88192 31.8619 5.14777 32.0369 5.36492C32.2119 5.58208 32.423 5.74893 32.6704 5.86469C32.9177 5.98046 33.1939 6.03874 33.4996 6.03874C33.8053 6.03874 34.0858 5.98125 34.3332 5.86469C34.5806 5.74893 34.791 5.58208 34.9645 5.36492C35.138 5.14777 35.2717 4.88192 35.3647 4.56816C35.4577 4.25441 35.5043 3.89914 35.5043 3.50235ZM36.5 3.5024C36.5 4.01015 36.4276 4.47799 36.2837 4.90591C36.1389 5.33383 35.9359 5.70267 35.673 6.01243C35.4102 6.3214 35.0949 6.5633 34.7272 6.73814C34.3587 6.91298 33.9504 7 33.5 7C33.0496 7 32.645 6.91298 32.2773 6.73814C31.9088 6.5641 31.5935 6.32219 31.3292 6.01243C31.0656 5.70267 30.8611 5.33463 30.7163 4.90591C30.5716 4.47799 30.5 4.01015 30.5 3.5024C30.5 2.99464 30.5724 2.5268 30.7163 2.09888C30.8611 1.67096 31.0649 1.30132 31.3292 0.989964C31.5928 0.679402 31.9088 0.436702 32.2773 0.261861C32.645 0.0878194 33.0525 0 33.5 0C33.9475 0 34.3587 0.087021 34.7272 0.261861C35.0949 0.436702 35.4102 0.679402 35.673 0.989964C35.9351 1.30052 36.1389 1.67016 36.2837 2.09888C36.4284 2.5268 36.5 2.99544 36.5 3.5024Z" fill="#231F20"/>
<path fill-rule="evenodd" clip-rule="evenodd" d="M42.8762 5.39799C42.9385 5.39799 42.9929 5.42193 43.0394 5.469L43.5 5.94928C43.2096 6.28516 42.8534 6.54445 42.4305 6.72635C42.0077 6.90905 41.5032 7 40.9154 7C40.3943 7 39.9232 6.91384 39.502 6.74071C39.0809 6.56838 38.7221 6.32665 38.4256 6.01789C38.1282 5.70914 37.9001 5.34055 37.7404 4.91213C37.5798 4.4845 37.5 4.01379 37.5 3.5C37.5 2.98621 37.5851 2.5147 37.7553 2.08548C37.9255 1.65626 38.1641 1.28687 38.4729 0.977319C38.7818 0.668566 39.1511 0.428425 39.5819 0.256895C40.0126 0.0853658 40.4873 0 41.0049 0C41.5225 0 41.9743 0.0797812 42.3691 0.240141C42.7631 0.400501 43.1061 0.613517 43.3965 0.879986L43.0157 1.39856C42.9894 1.43367 42.9578 1.46398 42.9218 1.48872C42.8859 1.51425 42.8359 1.52701 42.7736 1.52701C42.7078 1.52701 42.6323 1.49749 42.5481 1.43925C42.4639 1.38101 42.3569 1.31559 42.2261 1.24459C42.0954 1.17358 41.9322 1.10816 41.7357 1.04992C41.5392 0.990882 41.2944 0.962161 41.0005 0.962161C40.661 0.962161 40.3487 1.0196 40.0653 1.13369C39.781 1.24778 39.5371 1.41452 39.3327 1.63312C39.1283 1.85172 38.9686 2.11819 38.8555 2.43173C38.7414 2.74527 38.6844 3.10189 38.6844 3.5016C38.6844 3.9013 38.744 4.26351 38.8625 4.57864C38.9809 4.89378 39.145 5.16025 39.3529 5.37725C39.5608 5.59426 39.8047 5.7602 40.0855 5.87429C40.3662 5.98837 40.668 6.04582 40.9917 6.04582C41.19 6.04582 41.3672 6.03545 41.5243 6.0147C41.6813 5.99396 41.8252 5.96045 41.9577 5.91498C42.0893 5.8687 42.2138 5.81126 42.3314 5.74105C42.449 5.67164 42.5648 5.58548 42.6806 5.48416C42.7464 5.42671 42.8122 5.39879 42.8789 5.39879L42.8762 5.39799Z" fill="#231F20"/>
<path fill-rule="evenodd" clip-rule="evenodd" d="M47.5 0V0.947687H45.5166V7H44.4873V0.947687H42.5V0H47.5Z" fill="#231F20"/>
<path fill-rule="evenodd" clip-rule="evenodd" d="M53.5043 3.50235C53.5043 3.10876 53.4577 2.75509 53.3647 2.44134C53.2717 2.12758 53.138 1.86093 52.9645 1.64218C52.791 1.42343 52.5806 1.25498 52.3332 1.13762C52.0858 1.02026 51.8082 0.961182 51.4996 0.961182C51.1909 0.961182 50.9177 1.02026 50.6704 1.13762C50.423 1.25498 50.2119 1.42343 50.0369 1.64218C49.8619 1.86093 49.7268 2.12758 49.633 2.44134C49.5385 2.75509 49.4912 3.10876 49.4912 3.50235C49.4912 3.89594 49.5385 4.25441 49.633 4.56816C49.7275 4.88192 49.8619 5.14777 50.0369 5.36492C50.2119 5.58208 50.423 5.74893 50.6704 5.86469C50.9177 5.98046 51.1939 6.03874 51.4996 6.03874C51.8053 6.03874 52.0858 5.98125 52.3332 5.86469C52.5806 5.74893 52.791 5.58208 52.9645 5.36492C53.138 5.14777 53.2717 4.88192 53.3647 4.56816C53.4577 4.25441 53.5043 3.89914 53.5043 3.50235ZM54.5 3.5024C54.5 4.01015 54.4276 4.47799 54.2837 4.90591C54.1389 5.33383 53.9359 5.70267 53.673 6.01243C53.4102 6.3214 53.0949 6.5633 52.7272 6.73814C52.3587 6.91298 51.9504 7 51.5 7C51.0496 7 50.645 6.91298 50.2773 6.73814C49.9088 6.5641 49.5935 6.32219 49.3292 6.01243C49.0649 5.70267 48.8611 5.33463 48.7163 4.90591C48.5716 4.47799 48.5 4.01015 48.5 3.5024C48.5 2.99464 48.5724 2.5268 48.7163 2.09888C48.8611 1.67096 49.0649 1.30132 49.3292 0.989964C49.5928 0.679402 49.9088 0.436702 50.2773 0.261861C50.645 0.0878194 51.0533 0 51.5 0C51.9467 0 52.3587 0.087021 52.7272 0.261861C53.0949 0.436702 53.4102 0.679402 53.673 0.989964C53.9351 1.30052 54.1389 1.67016 54.2837 2.09888C54.4284 2.5268 54.5 2.99544 54.5 3.5024Z" fill="#231F20"/>
<path fill-rule="evenodd" clip-rule="evenodd" d="M56.5674 3.35437H57.4065C57.6498 3.35437 57.8625 3.32256 58.0452 3.25977C58.2279 3.19615 58.3798 3.10807 58.5011 2.99471C58.6232 2.88134 58.7137 2.74596 58.7751 2.58855C58.8358 2.43115 58.8665 2.25744 58.8665 2.06578C58.8665 1.68328 58.7477 1.39212 58.5108 1.19068C58.2731 0.990046 57.915 0.888916 57.434 0.888916H56.5674V3.35356V3.35437ZM56.5671 4.18059V7H55.5V0H57.4345C57.8662 0 58.2381 0.0473028 58.5501 0.141093C58.8622 0.234883 59.1176 0.368636 59.3189 0.542351C59.5194 0.716067 59.6681 0.924036 59.7635 1.16707C59.8589 1.41011 59.9074 1.68088 59.9074 1.97856C59.9074 2.2216 59.8735 2.44833 59.8048 2.65874C59.7361 2.86916 59.6374 3.06082 59.5081 3.23209C59.3787 3.40417 59.2195 3.5526 59.0287 3.67902C58.8387 3.80543 58.6237 3.90411 58.3836 3.97588C58.517 4.05989 58.6318 4.17814 58.7255 4.33065L60.5 6.99918H59.5469C59.3585 6.99918 59.2211 6.92171 59.1362 6.76593L57.6035 4.40813C57.5517 4.32739 57.4951 4.26867 57.4345 4.23279C57.3739 4.1969 57.2825 4.17896 57.1605 4.17896H56.5671V4.18059Z" fill="#231F20"/>
<path fill-rule="evenodd" clip-rule="evenodd" d="M29.8894 9.88742C29.8304 9.98411 29.7691 10.0568 29.7047 10.1048C29.6403 10.1527 29.5573 10.1775 29.4549 10.1775C29.3649 10.1775 29.2679 10.1479 29.1647 10.0896C29.0607 10.0313 28.9436 9.96573 28.8124 9.89301C28.6813 9.8203 28.5316 9.75477 28.3632 9.69644C28.1948 9.63811 28.0032 9.60854 27.7882 9.60854C27.4166 9.60854 27.1396 9.69005 26.9573 9.85306C26.7749 10.0161 26.6841 10.2366 26.6841 10.5147C26.6841 10.6921 26.7392 10.8391 26.8486 10.9558C26.958 11.0724 27.1016 11.1731 27.28 11.2578C27.4577 11.3425 27.6618 11.42 27.8907 11.4904C28.1196 11.5607 28.3531 11.6398 28.5921 11.7261C28.831 11.8132 29.0646 11.9147 29.2935 12.0313C29.5224 12.148 29.7257 12.2974 29.9041 12.4788C30.0826 12.6602 30.2261 12.8808 30.3355 13.1405C30.4449 13.4002 30.5 13.7142 30.5 14.0802C30.5 14.4869 30.4317 14.8681 30.2944 15.2229C30.1571 15.5776 29.9584 15.8869 29.6985 16.1506C29.4378 16.4143 29.1174 16.622 28.7356 16.7731C28.3539 16.9241 27.9209 17 27.4352 17C27.1691 17 26.8983 16.972 26.6221 16.9153C26.3459 16.8586 26.0789 16.7795 25.8206 16.6764C25.5622 16.5733 25.3193 16.4518 25.0928 16.3104C24.8662 16.1698 24.6684 16.0123 24.5 15.8389L25.0874 14.884C25.1347 14.8153 25.196 14.7586 25.272 14.7114C25.3481 14.6651 25.4311 14.6419 25.5211 14.6419C25.6382 14.6419 25.757 14.6803 25.8764 14.757C25.9959 14.8337 26.1309 14.9184 26.2815 15.0111C26.432 15.1038 26.605 15.1885 26.8005 15.2652C26.9961 15.3419 27.2273 15.3803 27.4934 15.3803C27.8534 15.3803 28.1335 15.2988 28.3329 15.1358C28.5323 14.9727 28.6324 14.7138 28.6324 14.3591C28.6324 14.1537 28.5773 13.9867 28.4679 13.8572C28.3585 13.7286 28.2142 13.6215 28.0365 13.5368C27.8581 13.4521 27.6563 13.3778 27.429 13.3131C27.2017 13.2483 26.9689 13.1772 26.7307 13.0981C26.4917 13.019 26.259 12.9231 26.0324 12.808C25.8051 12.693 25.6025 12.542 25.4249 12.355C25.2464 12.168 25.1029 11.9339 24.9935 11.6534C24.8841 11.3737 24.829 11.0277 24.829 10.617C24.829 10.287 24.8934 9.96413 25.023 9.65009C25.1518 9.33606 25.3418 9.05558 25.5925 8.81026C25.8431 8.56415 26.1503 8.36758 26.5142 8.22055C26.8781 8.07352 27.2948 8 27.7642 8C28.0264 8 28.2817 8.02078 28.53 8.06393C28.7783 8.10628 29.0142 8.16861 29.2368 8.25171C29.4603 8.33401 29.6682 8.4331 29.8622 8.54817C30.0562 8.66323 30.2292 8.79348 30.3813 8.93812L29.8886 9.88742H29.8894Z" fill="#231F20"/>
<path fill-rule="evenodd" clip-rule="evenodd" d="M36.2842 13.3737C36.3592 13.5427 36.4318 13.7158 36.5012 13.893C36.5706 13.7118 36.6424 13.5346 36.7175 13.3615C36.7925 13.1884 36.8732 13.0242 36.9587 12.8674L39.2415 8.3209C39.2818 8.24251 39.3238 8.18209 39.3665 8.13881C39.4093 8.09554 39.4569 8.06369 39.5102 8.04328C39.5626 8.02286 39.6231 8.01062 39.6901 8.00653C39.7571 8.00245 39.8354 8 39.9249 8H41.5V17H39.6804V11.8231C39.6804 11.5724 39.6925 11.3005 39.7167 11.0082L37.3606 15.6347C37.2871 15.7793 37.1887 15.8879 37.0644 15.9622C36.9402 16.0365 36.799 16.0732 36.64 16.0732H36.3592C36.2002 16.0732 36.059 16.0365 35.9348 15.9622C35.8105 15.8879 35.7121 15.7793 35.6386 15.6347L33.2704 11.0016C33.2865 11.1462 33.2986 11.2891 33.3067 11.4311C33.3147 11.5732 33.3188 11.7039 33.3188 11.8231V17H31.5V8H33.0751C33.1646 8 33.2429 8.00245 33.3099 8.00653C33.3769 8.01062 33.4374 8.02286 33.4898 8.04328C33.5423 8.06369 33.5907 8.09554 33.6335 8.13881C33.6762 8.18209 33.7182 8.24251 33.7585 8.3209L36.0477 12.8862C36.1292 13.043 36.2075 13.2055 36.2825 13.3745L36.2842 13.3737Z" fill="#231F20"/>
<rect x="43.5" y="8" width="2" height="9" fill="#231F20"/>
<path fill-rule="evenodd" clip-rule="evenodd" d="M50.4249 15.3319H53.5V17H48.5V8H50.4249V15.3319Z" fill="#231F20"/>
<path fill-rule="evenodd" clip-rule="evenodd" d="M60.5 8V9.60601H56.6742V11.706H59.6044V13.2507H56.6742V15.394H60.5V17H54.5V8H60.5Z" fill="#231F20"/>
<path fill-rule="evenodd" clip-rule="evenodd" d="M11.5222 18.8407C6.80032 18.8407 2.77463 15.8538 1.22852 11.6658C3.76349 14.015 7.4528 15.4948 11.5612 15.4948C15.6696 15.4948 19.2426 14.061 21.7714 11.7782C20.1979 15.9069 16.2035 18.8414 11.5214 18.8414L11.5222 18.8407ZM11.5 0.000780474C5.42479 0 0.5 4.92479 0.5 11C0.5 17.0752 5.42479 22 11.5 22C17.5752 22 22.5 17.0752 22.5 11C22.5 4.92479 17.5744 0 11.5 0V0.000780474Z" fill="#231F20"/>
</svg>
