<svg width="19" height="18" viewBox="0 0 19 18" fill="none" xmlns="http://www.w3.org/2000/svg">
<path fill-rule="evenodd" clip-rule="evenodd" d="M9.5 0C4.52567 0 0.5 4.02529 0.5 9C0.5 13.9744 4.52529 18 9.5 18C14.4743 18 18.5 13.9747 18.5 9C18.5 4.02564 14.4747 0 9.5 0ZM9.5 16.5938C5.30291 16.5938 1.90625 13.1974 1.90625 9C1.90625 4.80287 5.30259 1.40625 9.5 1.40625C13.6971 1.40625 17.0938 4.80259 17.0938 9C17.0938 13.1971 13.6974 16.5938 9.5 16.5938ZM10.408 9.45455L12.3119 11.3584C12.5627 11.6092 12.5627 12.0157 12.3119 12.2665C12.0612 12.5173 11.6546 12.5172 11.4039 12.2665L9.5 10.3626L7.5961 12.2665C7.34543 12.5172 6.93889 12.5173 6.68806 12.2665C6.43729 12.0157 6.43732 11.6092 6.68809 11.3584L8.59196 9.45455L6.68809 7.55067C6.43732 7.29994 6.43732 6.89339 6.68806 6.64262C6.9388 6.39185 7.3454 6.39185 7.5961 6.64262L9.5 8.5465L11.4039 6.64262C11.6546 6.39188 12.0611 6.39185 12.3119 6.64262C12.5627 6.89339 12.5626 7.29994 12.3119 7.55067L10.408 9.45455Z" fill="#FF7878"/>
</svg>
