<svg width="100" height="22" viewBox="0 0 100 22" fill="none" xmlns="http://www.w3.org/2000/svg">
<path fill-rule="evenodd" clip-rule="evenodd" d="M6.5 13C6.5 11.3437 5.15667 10 3.5 10C1.84333 10 0.5 11.3423 0.5 13C0.5 14.6577 1.84333 16 3.5 16C5.15667 16 6.5 14.6577 6.5 13Z" fill="#6BB240"/>
<circle cx="9" cy="4.5" r="4.5" fill="#0A93D2"/>
<path fill-rule="evenodd" clip-rule="evenodd" d="M57.2502 9.00732H56.042C52.7682 9.00732 49.9547 11.8419 49.7915 15.3051L49.773 15.7006C49.6099 19.1638 52.1572 21.9983 55.4325 21.9983H56.6407C59.9144 21.9983 62.728 19.1638 62.8911 15.7006L62.9096 15.3051C63.0712 11.8403 60.5255 9.00732 57.2502 9.00732ZM59.6536 15.6612C59.572 18.4154 58.1699 20.667 56.5353 20.667H55.932C54.2989 20.667 53.0276 18.4138 53.1092 15.6612L53.1184 15.3461C53.2 12.5919 54.6021 10.3403 56.2367 10.3403H56.8401C58.4731 10.3403 59.7444 12.5935 59.6628 15.3461L59.6536 15.6612ZM75.0615 12.5872C75.0615 10.7154 73.3562 9.19177 71.5138 9.19177H65.1741L64.6262 20.4007C64.6262 20.4007 64.4692 21.7258 65.8637 21.7258H67.5783L68.1246 10.5421H70.5457C71.5831 10.5421 72.425 11.519 72.425 12.7196C72.425 13.9202 71.5831 14.8971 70.5457 14.8971H69.4144C69.4144 14.8971 68.9989 14.8766 68.8219 15.146C68.6187 15.4186 68.7834 15.7448 68.7834 15.7448L71.9325 21.7258H74.7922L71.6077 15.9827H71.6108C73.7533 15.9118 75.06 14.4591 75.06 12.5857L75.0615 12.5872ZM32.3078 9.19165H24.3228L23.7748 20.4006C23.7748 20.4006 23.6178 21.7257 25.0123 21.7257H33.3452L33.4329 19.9595H27.0409L27.2148 16.4994H32.6603L32.6988 15.6029C32.6988 15.6029 32.6957 15.2846 32.4941 15.1239C32.1924 14.8702 31.6429 14.9222 31.6429 14.9222H27.2795L27.2856 14.7788L27.4765 10.9138H33.6823C34.1194 9.83923 33.139 9.19323 32.3063 9.19323L32.3078 9.19165ZM44.6528 18.3713C42.9582 15.2374 41.3221 12.3383 39.646 9.19177H35.989L35.4949 20.4007C35.4949 20.4007 35.5518 21.7258 36.8201 21.7258H38.3208L38.7394 11.8498L43.56 20.3724C43.56 20.3724 43.9217 21.0594 44.3157 21.3493C44.742 21.6628 45.5024 21.7258 45.5024 21.7258H47.4509L48.0635 9.19177H45.1022L44.6543 18.3713H44.6528ZM97.7589 9.19176C97.1909 9.19176 96.9031 9.6613 96.9031 9.6613L94.1865 14.2605L91.0251 9.19019H89.3736C87.873 9.19019 88.4932 10.4822 88.4932 10.4822L92.0764 16.353L91.8347 21.7243H94.7067L94.9345 16.6445L99.4996 9.19019H97.7604L97.7589 9.19176ZM20.5606 14.6655H16.779L16.6882 16.312H18.9476L18.7814 20.1108C18.7814 20.1108 18.0995 20.2621 17.5701 20.2621H17.293C14.3825 20.2621 12.8403 18.1129 12.9357 15.5762L12.9465 15.3572C13.0435 12.8188 14.7504 10.9123 17.1499 10.9123H21.3548C21.3548 10.9123 21.5672 9.46592 20.202 9.1508C19.3478 8.95542 16.919 9.00584 16.919 9.00584C12.788 9.00584 9.69738 11.8971 9.52808 15.3619L9.50807 15.6912C9.3403 19.156 11.7921 22 16.602 22H17.3962C18.6352 22 19.6741 21.8298 20.7176 21.5257C20.8438 21.4895 21.1086 21.3587 21.2763 21.1507C21.4995 20.8608 21.5134 20.5772 21.5134 20.5772L21.5287 20.2448L21.7488 16.0032C21.7488 16.0032 21.9028 14.6655 20.5606 14.6655ZM82.212 9.19188H84.8593L89.1859 21.726H86.0783L84.8409 18.1383H80.3912C80.3912 18.1383 80.2604 17.7318 80.6498 17.0479C81.0361 16.498 82.0796 16.5815 82.0796 16.5815H84.3022L84.0759 15.9292L82.5137 11.3993L80.4728 15.8221L79.3985 18.1524L77.7485 21.7275H77.0821C75.3752 21.7275 75.9539 20.1866 75.9539 20.1866L80.5867 10.1499C80.5867 10.1499 80.816 9.62045 81.1331 9.40144C81.5055 9.14146 82.2135 9.19345 82.2135 9.19345L82.212 9.19188Z" fill="#004994"/>
</svg>
