<svg width="23" height="22" viewBox="0 0 23 22" fill="none" xmlns="http://www.w3.org/2000/svg">
<path fill-rule="evenodd" clip-rule="evenodd" d="M22.5 11C22.5 17.075 17.575 22 11.5 22C5.42502 22 0.5 17.075 0.5 11C0.5 4.92502 5.42502 0 11.5 0C17.575 0 22.5 4.92502 22.5 11Z" fill="#ED1C24"/>
<path fill-rule="evenodd" clip-rule="evenodd" d="M4.16293 13V10.919L5.64641 13H8.61644L8.96513 12.0899H10.5281L10.8768 13H12.5L10.5271 8L8.99062 8.03924L7.11154 12.1568L5.88805 10.4491L7.46839 8.00424H5.59747L4.16191 9.98133V8H2.5V13H4.16191H4.16293ZM9.75149 10.2646L10.1318 11.1376H9.43848L9.75149 10.2646Z" fill="white"/>
<path fill-rule="evenodd" clip-rule="evenodd" d="M17.5 9.60909C17.5 7.83888 15.8245 8.00409 15.1422 8.00409C14.4598 8.00409 13.5 8.00409 13.5 8.00409V13H15.251V11.2298C15.7941 11.2298 17.5 11.3783 17.5 9.60909ZM15.1892 10.0723V9.12184C15.1892 9.12184 15.9804 9.0476 15.9804 9.62478C15.9804 10.203 15.1892 10.0713 15.1892 10.0713V10.0723Z" fill="white"/>
<path fill-rule="evenodd" clip-rule="evenodd" d="M18.8639 9.51707C18.8639 9.26738 19.2804 8.86705 20.3403 9.78361V8.53413C19.8693 8.1338 19.402 8 18.9356 8C18.069 8 17.529 8.54994 17.529 9.4665C17.529 11.0668 19.0508 10.8329 19.0508 11.4829C19.0508 11.7769 18.5626 12.1161 17.5 11.3291V12.6165C17.9165 12.8736 18.3348 13 19.0644 13C19.9964 13 20.5 12.5122 20.5 11.5504C20.5 10.0839 18.8639 10.1671 18.8639 9.51707Z" fill="white"/>
<path fill-rule="evenodd" clip-rule="evenodd" d="M11.5005 17C8.53061 17 5.5938 16.3259 3.0062 15.0506L2.96775 15.0316L2.9496 14.9965C2.80436 14.7253 2.67407 14.4437 2.56301 14.1593L2.5 14H20.5L20.4381 14.1593C20.3259 14.4447 20.1967 14.7263 20.0515 14.9965L20.0333 15.0316L19.9959 15.0506C17.4083 16.3259 14.4705 17 11.5016 17H11.5005ZM3.17533 14.8591C5.71381 16.1031 8.59082 16.7602 11.5009 16.7602C14.4111 16.7602 17.2881 16.1031 19.8265 14.8591C19.9323 14.6581 20.0305 14.4505 20.1192 14.24H2.88379C2.97136 14.4495 3.06961 14.6572 3.1764 14.8591H3.17533Z" fill="white"/>
<path fill-rule="evenodd" clip-rule="evenodd" d="M20.499 8H3.5L3.57748 7.80357C3.97211 6.80134 4.51343 5.88393 5.18388 5.07589L5.2469 5L5.33368 5.04129C7.44525 6.03683 9.68802 6.54129 12 6.54129C14.312 6.54129 16.5548 6.03683 18.6663 5.04129L18.7531 5L18.8161 5.07589C19.4866 5.88393 20.0269 6.80134 20.4225 7.80357L20.5 8H20.499ZM3.89773 7.71763H20.1012C19.7386 6.85156 19.2624 6.05246 18.6829 5.3404C16.564 6.32366 14.3151 6.82254 11.999 6.82254C9.68285 6.82254 7.43492 6.32366 5.31508 5.3404C4.73657 6.05357 4.2593 6.85156 3.89669 7.71763H3.89773Z" fill="white"/>
</svg>
