<svg width="193" height="40" viewBox="0 0 193 40" fill="none" xmlns="http://www.w3.org/2000/svg">
<mask id="mask0_2011_8646" style="mask-type:luminance" maskUnits="userSpaceOnUse" x="7" y="0" width="22" height="18">
<path fill-rule="evenodd" clip-rule="evenodd" d="M24.3702 0C25.5367 0 26.4255 0.14428 27.0367 0.43284C27.6708 0.702099 28.091 1.07723 28.2969 1.55813C28.5261 2.01973 28.599 2.56799 28.5158 3.20273C28.4557 3.81826 28.3233 4.4723 28.1185 5.16474L27.4447 7.44418C27.1717 8.36747 26.7793 9.22341 26.2676 10.0122C25.7789 10.7816 25.0979 11.4067 24.2245 11.8877C23.3742 12.3493 22.2701 12.5802 20.912 12.5802H18.7569C17.6602 12.5802 16.7576 12.5513 15.8172 12.4936C14.8941 12.4358 14.2032 12.3877 13.7445 12.3493L12.2297 17.4359H7.13727L11.6122 2.33714L12.3031 0H24.3702ZM22.0508 4.1846H16.516L15.1667 9.0667H20.6761C21.237 9.0667 21.6641 8.93609 21.9572 8.67486C22.2503 8.41372 22.4774 7.99177 22.6386 7.40921L23.0633 5.87219C23.2243 5.28963 23.2389 4.86768 23.1071 4.60654C22.9808 4.32524 22.6287 4.1846 22.0508 4.1846Z" fill="white"/>
</mask>
<g mask="url(#mask0_2011_8646)">
<path fill-rule="evenodd" clip-rule="evenodd" d="M7.1344 17.4435H28.5543V-0.00769043H7.1344V17.4435Z" fill="black"/>
</g>
<mask id="mask1_2011_8646" style="mask-type:luminance" maskUnits="userSpaceOnUse" x="26" y="0" width="26" height="20">
<path fill-rule="evenodd" clip-rule="evenodd" d="M52 0L46.0962 19.4872H26.5098L32.4137 0H52Z" fill="white"/>
</mask>
<g mask="url(#mask1_2011_8646)">
<path fill-rule="evenodd" clip-rule="evenodd" d="M26.5015 19.4907H52.0056V-0.00744629H26.5015V19.4907Z" fill="#0085CF"/>
</g>
<mask id="mask2_2011_8646" style="mask-type:luminance" maskUnits="userSpaceOnUse" x="0" y="20" width="26" height="20">
<path fill-rule="evenodd" clip-rule="evenodd" d="M25.4902 20.5128L19.5863 40H0L5.90386 20.5128H25.4902Z" fill="white"/>
</mask>
<g mask="url(#mask2_2011_8646)">
<path fill-rule="evenodd" clip-rule="evenodd" d="M-0.00921631 40.0037H25.4948V20.5056H-0.00921631V40.0037Z" fill="#0085CF"/>
</g>
<mask id="mask3_2011_8646" style="mask-type:luminance" maskUnits="userSpaceOnUse" x="23" y="22" width="22" height="18">
<path fill-rule="evenodd" clip-rule="evenodd" d="M38.3072 22.5641C41.9975 22.5619 43.9577 22.6353 44.8628 22.6855L43.6735 26.6759C42.3057 26.6352 39.2894 26.6286 37.1862 26.6278L36.9536 26.6277C36.9282 26.6277 36.903 26.6277 36.8779 26.6277L36.4453 26.6277C36.4224 26.6277 36.3997 26.6277 36.3771 26.6277L35.9344 26.6278C35.915 26.6278 35.8959 26.6278 35.8769 26.6278L33.1933 26.6279C32.4263 26.6279 31.8439 26.8046 31.4459 27.1579C31.0711 27.4917 30.7632 28.0119 30.5223 28.7185L28.8058 33.7539C28.6654 34.1657 28.6082 34.2938 28.6088 34.4191C28.6092 34.4968 28.6318 34.5736 28.6706 34.7164C28.7949 35.0698 29.2733 35.2464 30.1056 35.2464H34.1201C34.3615 35.2387 34.6463 35.231 34.931 35.2231L35.0398 35.2202C35.438 35.2093 35.8254 35.1984 36.0823 35.1876L36.7042 33.2487L35.715 33.2781L32.4349 33.2735L33.7931 29.509H42.8292L39.7566 39.8189C39.749 39.8204 39.7411 39.8218 39.7333 39.8233C39.269 39.8987 38.023 39.95 36.7584 39.9771L36.6398 39.9796L36.462 39.983C36.4028 39.9841 36.3437 39.9851 36.2847 39.9861L36.1671 39.988C35.6976 39.9954 35.2423 39.9993 34.8413 39.9999L26.2467 40C24.5006 40 24.2212 39.5387 23.7523 38.6161C23.2835 37.6934 23.3464 36.1095 24.049 34.0482L25.652 28.6598C26.3747 26.5395 27.3325 24.9986 28.5253 24.0367C29.7248 23.0552 31.2331 22.5642 32.816 22.5642L38.3072 22.5641Z" fill="white"/>
</mask>
<g mask="url(#mask3_2011_8646)">
<path fill-rule="evenodd" clip-rule="evenodd" d="M23.4505 40.0091H44.8684V22.5581H23.4505V40.0091Z" fill="black"/>
</g>
<path fill-rule="evenodd" clip-rule="evenodd" d="M69.932 10.704C71.0707 10.7226 72.0343 10.8393 72.823 11.054C73.6117 11.2686 74.2533 11.5533 74.748 11.908C75.2427 12.2626 75.602 12.6803 75.826 13.161C76.05 13.6416 76.162 14.1573 76.162 14.708V14.974C76.162 15.5246 76.05 16.0403 75.826 16.521C75.602 17.0016 75.2427 17.4216 74.748 17.781C74.2533 18.1403 73.6117 18.425 72.823 18.635C72.0343 18.845 71.0707 18.9593 69.932 18.978V20.378H67.538V18.978C66.3993 18.9593 65.4333 18.845 64.64 18.635C63.8467 18.425 63.2027 18.1403 62.708 17.781C62.2133 17.4216 61.854 17.0016 61.63 16.521C61.406 16.0403 61.294 15.5246 61.294 14.974V14.708C61.294 14.1573 61.406 13.6416 61.63 13.161C61.854 12.6803 62.2133 12.2626 62.708 11.908C63.2027 11.5533 63.8467 11.2686 64.64 11.054C65.4333 10.8393 66.3993 10.7226 67.538 10.704V9.40198H69.932V10.704ZM63.744 14.932C63.744 15.212 63.8023 15.4733 63.919 15.716C64.0357 15.9586 64.2363 16.1686 64.521 16.346C64.8057 16.5233 65.193 16.6656 65.683 16.773C66.173 16.8803 66.7913 16.9386 67.538 16.948V12.734C66.7913 12.7433 66.173 12.8016 65.683 12.909C65.193 13.0163 64.8057 13.161 64.521 13.343C64.2363 13.525 64.0357 13.7373 63.919 13.98C63.8023 14.2226 63.744 14.484 63.744 14.764V14.932ZM73.551 13.98C73.6677 14.2226 73.726 14.484 73.726 14.764V14.932C73.726 15.212 73.6677 15.4733 73.551 15.716C73.4343 15.9586 73.2313 16.1686 72.942 16.346C72.6527 16.5233 72.2653 16.6656 71.78 16.773C71.2947 16.8803 70.6787 16.9386 69.932 16.948V12.734C70.6787 12.7433 71.2947 12.8016 71.78 12.909C72.2653 13.0163 72.6527 13.161 72.942 13.343C73.2313 13.525 73.4343 13.7373 73.551 13.98Z" fill="black"/>
<path fill-rule="evenodd" clip-rule="evenodd" d="M85.15 20H87.698L83.288 9.78003H80.782L76.414 20H78.948L79.816 17.9H84.268L85.15 20ZM80.586 15.982L82.028 12.468L83.498 15.982H80.586Z" fill="black"/>
<path fill-rule="evenodd" clip-rule="evenodd" d="M97.47 10.648C96.826 10.0694 95.804 9.78003 94.404 9.78003H88.636V20H91.03V16.29H94.404C95.804 16.29 96.826 15.9984 97.47 15.415C98.114 14.8317 98.436 14.036 98.436 13.028C98.436 12.02 98.114 11.2267 97.47 10.648ZM95.643 13.91C95.3957 14.1154 94.964 14.218 94.348 14.218H91.03V11.852H94.348C94.964 11.852 95.3957 11.9547 95.643 12.16C95.8904 12.3654 96.014 12.6594 96.014 13.042C96.014 13.4154 95.8904 13.7047 95.643 13.91Z" fill="black"/>
<path d="M109.748 9.78003H112.828V20H110.434V13.098L106.892 20H105.688L102.16 13.042V20H99.766V9.78003H102.874L106.29 16.584L109.748 9.78003Z" fill="black"/>
<path d="M114.816 20V9.78003H122.88V11.894H117.238V20H114.816Z" fill="black"/>
<path d="M124.14 20V9.78003H132.918V11.838H126.534V13.854H132.33V15.814H126.534V17.928H133.184V20H124.14Z" fill="black"/>
<path fill-rule="evenodd" clip-rule="evenodd" d="M137.405 19.825C138.119 20.0723 138.938 20.196 139.862 20.196C140.795 20.196 141.619 20.0723 142.333 19.825C143.047 19.5777 143.649 19.2323 144.139 18.789C144.629 18.3457 145 17.8137 145.252 17.193C145.504 16.5723 145.63 15.8887 145.63 15.142V14.638C145.63 13.8913 145.504 13.2077 145.252 12.587C145 11.9663 144.629 11.4343 144.139 10.991C143.649 10.5477 143.047 10.2023 142.333 9.95498C141.619 9.70765 140.795 9.58398 139.862 9.58398C138.938 9.58398 138.119 9.70765 137.405 9.95498C136.691 10.2023 136.089 10.5477 135.599 10.991C135.109 11.4343 134.738 11.9663 134.486 12.587C134.234 13.2077 134.108 13.8913 134.108 14.638V15.142C134.108 15.8887 134.234 16.5723 134.486 17.193C134.738 17.8137 135.109 18.3457 135.599 18.789C136.089 19.2323 136.691 19.5777 137.405 19.825ZM142.326 17.27C141.766 17.802 140.949 18.068 139.876 18.068C138.793 18.068 137.972 17.802 137.412 17.27C136.852 16.738 136.572 16.01 136.572 15.086V14.694C136.572 13.77 136.852 13.042 137.412 12.51C137.972 11.978 138.793 11.712 139.876 11.712C140.949 11.712 141.766 11.978 142.326 12.51C142.886 13.042 143.166 13.77 143.166 14.694V15.086C143.166 16.01 142.886 16.738 142.326 17.27Z" fill="black"/>
<path d="M154.898 20L151.538 15.254L149.508 17.298V20H147.114V9.78003H149.508V14.54L154.282 9.78003H157.614L153.456 13.882L157.88 20H154.898Z" fill="black"/>
<path fill-rule="evenodd" clip-rule="evenodd" d="M161.639 19.825C162.353 20.0723 163.172 20.196 164.096 20.196C165.029 20.196 165.853 20.0723 166.567 19.825C167.281 19.5777 167.883 19.2323 168.373 18.789C168.863 18.3457 169.234 17.8137 169.486 17.193C169.738 16.5723 169.864 15.8887 169.864 15.142V14.638C169.864 13.8913 169.738 13.2077 169.486 12.587C169.234 11.9663 168.863 11.4343 168.373 10.991C167.883 10.5477 167.281 10.2023 166.567 9.95498C165.853 9.70765 165.029 9.58398 164.096 9.58398C163.172 9.58398 162.353 9.70765 161.639 9.95498C160.925 10.2023 160.323 10.5477 159.833 10.991C159.343 11.4343 158.972 11.9663 158.72 12.587C158.468 13.2077 158.342 13.8913 158.342 14.638V15.142C158.342 15.8887 158.468 16.5723 158.72 17.193C158.972 17.8137 159.343 18.3457 159.833 18.789C160.323 19.2323 160.925 19.5777 161.639 19.825ZM166.56 17.27C166 17.802 165.183 18.068 164.11 18.068C163.027 18.068 162.206 17.802 161.646 17.27C161.086 16.738 160.806 16.01 160.806 15.086V14.694C160.806 13.77 161.086 13.042 161.646 12.51C162.206 11.978 163.027 11.712 164.11 11.712C165.183 11.712 166 11.978 166.56 12.51C167.12 13.042 167.4 13.77 167.4 14.694V15.086C167.4 16.01 167.12 16.738 166.56 17.27Z" fill="black"/>
<path d="M181.33 9.78003H184.41V20H182.016V13.098L178.474 20H177.27L173.742 13.042V20H171.348V9.78003H174.456L177.872 16.584L181.33 9.78003Z" fill="black"/>
<path fill-rule="evenodd" clip-rule="evenodd" d="M64.654 29.438C64.766 29.466 64.885 29.5103 65.011 29.571C65.137 29.6317 65.2548 29.7122 65.3645 29.8125C65.4742 29.9128 65.564 30.033 65.634 30.173C65.704 30.313 65.739 30.474 65.739 30.656C65.739 30.8473 65.7028 31.0258 65.6305 31.1915C65.5582 31.3572 65.4497 31.4995 65.305 31.6185C65.1603 31.7375 64.9783 31.8308 64.759 31.8985C64.5397 31.9662 64.283 32 63.989 32H61.588V26.89H63.989C64.2503 26.89 64.4813 26.9238 64.682 26.9915C64.8827 27.0592 65.0518 27.1525 65.1895 27.2715C65.3272 27.3905 65.431 27.5317 65.501 27.695C65.571 27.8583 65.606 28.038 65.606 28.234C65.606 28.402 65.5757 28.5537 65.515 28.689C65.4543 28.8243 65.3773 28.9422 65.284 29.0425C65.1907 29.1428 65.088 29.2245 64.976 29.2875C64.864 29.3505 64.7567 29.396 64.654 29.424V29.438ZM62.211 27.436V29.172H64.045C64.353 29.172 64.5852 29.0962 64.7415 28.9445C64.8978 28.7928 64.976 28.5793 64.976 28.304C64.976 28.024 64.8955 27.8093 64.7345 27.66C64.5735 27.5107 64.325 27.436 63.989 27.436H62.211ZM64.85 31.2265C64.6773 31.3782 64.3903 31.454 63.989 31.454H62.211V29.718H64.045C64.4137 29.718 64.6832 29.795 64.8535 29.949C65.0238 30.103 65.109 30.3153 65.109 30.586C65.109 30.8613 65.0227 31.0748 64.85 31.2265Z" fill="#232323"/>
<path d="M66.306 30.082C66.306 29.7974 66.3492 29.5395 66.4355 29.3085C66.5218 29.0775 66.6455 28.8815 66.8065 28.7205C66.9675 28.5595 67.1623 28.4359 67.391 28.3495C67.6197 28.2632 67.8763 28.22 68.161 28.22C68.693 28.22 69.1095 28.3542 69.4105 28.6225C69.7115 28.8909 69.897 29.2537 69.967 29.711H69.351C69.2343 29.067 68.8377 28.745 68.161 28.745C67.7597 28.745 67.4505 28.8594 67.2335 29.088C67.0165 29.3167 66.908 29.669 66.908 30.145C66.908 30.621 67.0165 30.9734 67.2335 31.202C67.4505 31.4307 67.7597 31.545 68.161 31.545C68.5063 31.545 68.7758 31.4657 68.9695 31.307C69.1632 31.1484 69.2927 30.9057 69.358 30.579H69.974C69.904 31.041 69.7185 31.405 69.4175 31.671C69.1165 31.937 68.6977 32.07 68.161 32.07C67.8763 32.07 67.6197 32.0269 67.391 31.9405C67.1623 31.8542 66.9675 31.7305 66.8065 31.5695C66.6455 31.4085 66.5218 31.2125 66.4355 30.9815C66.3492 30.7505 66.306 30.4927 66.306 30.208V30.082Z" fill="#232323"/>
<path fill-rule="evenodd" clip-rule="evenodd" d="M72.1055 26.9355C72.1825 27.0125 72.221 27.1117 72.221 27.233C72.221 27.359 72.1825 27.4605 72.1055 27.5375C72.0285 27.6145 71.9247 27.653 71.794 27.653C71.6633 27.653 71.5595 27.6145 71.4825 27.5375C71.4055 27.4605 71.367 27.359 71.367 27.233C71.367 27.1117 71.4055 27.0125 71.4825 26.9355C71.5595 26.8585 71.6633 26.82 71.794 26.82C71.9247 26.82 72.0285 26.8585 72.1055 26.9355ZM73.4355 26.9355C73.5125 27.0125 73.551 27.1117 73.551 27.233C73.551 27.359 73.5125 27.4605 73.4355 27.5375C73.3585 27.6145 73.2547 27.653 73.124 27.653C72.9933 27.653 72.8895 27.6145 72.8125 27.5375C72.7355 27.4605 72.697 27.359 72.697 27.233C72.697 27.1117 72.7355 27.0125 72.8125 26.9355C72.8895 26.8585 72.9933 26.82 73.124 26.82C73.2547 26.82 73.3585 26.8585 73.4355 26.9355ZM74.272 29.956C74.272 30.0353 74.2697 30.1007 74.265 30.152C74.2603 30.2033 74.2533 30.2593 74.244 30.32H71.213C71.2457 30.74 71.3693 31.0492 71.584 31.2475C71.7987 31.4458 72.095 31.545 72.473 31.545C72.6503 31.545 72.802 31.5252 72.928 31.4855C73.054 31.4458 73.1602 31.3933 73.2465 31.328C73.3328 31.2627 73.404 31.1845 73.46 31.0935C73.516 31.0025 73.5603 30.908 73.593 30.81H74.202C74.1693 30.978 74.111 31.1378 74.027 31.2895C73.943 31.4412 73.831 31.5742 73.691 31.6885C73.551 31.8028 73.3795 31.895 73.1765 31.965C72.9735 32.035 72.7343 32.07 72.459 32.07C72.1743 32.07 71.9177 32.0268 71.689 31.9405C71.4603 31.8542 71.2655 31.7305 71.1045 31.5695C70.9435 31.4085 70.8198 31.2125 70.7335 30.9815C70.6472 30.7505 70.604 30.4927 70.604 30.208V30.082C70.604 29.7973 70.6472 29.5395 70.7335 29.3085C70.8198 29.0775 70.9447 28.8815 71.108 28.7205C71.2713 28.5595 71.4685 28.4358 71.6995 28.3495C71.9305 28.2632 72.1907 28.22 72.48 28.22C72.7553 28.22 73.0038 28.262 73.2255 28.346C73.4472 28.43 73.635 28.5478 73.789 28.6995C73.943 28.8512 74.062 29.0332 74.146 29.2455C74.23 29.4578 74.272 29.6947 74.272 29.956ZM71.605 29.018C71.8197 28.836 72.1113 28.745 72.48 28.745C72.8393 28.745 73.1205 28.8372 73.3235 29.0215C73.5265 29.2058 73.642 29.48 73.67 29.844H71.22C71.262 29.4753 71.3903 29.2 71.605 29.018Z" fill="#232323"/>
<path fill-rule="evenodd" clip-rule="evenodd" d="M81.538 31.475H80.866V28.29H77.94L77.842 30.271C77.8327 30.4576 77.8198 30.6175 77.8035 30.7505C77.7872 30.8835 77.7685 30.9966 77.7475 31.09C77.7265 31.1833 77.702 31.2603 77.674 31.321C77.646 31.3816 77.6133 31.433 77.576 31.475H77.044V33.057H77.639V32H80.943V33.057H81.538V31.475ZM80.271 28.815V31.475H78.213C78.269 31.377 78.3157 31.237 78.353 31.055C78.3903 30.873 78.416 30.6303 78.43 30.327L78.507 28.815H80.271Z" fill="#232323"/>
<path d="M82.756 28.29H85.71V32H85.115V28.815H83.323L83.246 30.495C83.232 30.7843 83.197 31.0281 83.141 31.2265C83.085 31.4248 83.0115 31.5846 82.9205 31.706C82.8295 31.8273 82.7222 31.9136 82.5985 31.965C82.4748 32.0163 82.3383 32.042 82.189 32.042C82.119 32.042 82.056 32.0385 82 32.0315C81.944 32.0245 81.888 32.014 81.832 32V31.454C81.8647 31.4586 81.9043 31.4633 81.951 31.468C81.9977 31.4726 82.0467 31.475 82.098 31.475C82.182 31.475 82.2555 31.461 82.3185 31.433C82.3815 31.405 82.4363 31.3525 82.483 31.2755C82.5297 31.1985 82.5682 31.0923 82.5985 30.957C82.6288 30.8216 82.6487 30.649 82.658 30.439L82.756 28.29Z" fill="#232323"/>
<path fill-rule="evenodd" clip-rule="evenodd" d="M89.924 32V28.29H88.048C87.586 28.29 87.2477 28.388 87.033 28.584C86.8184 28.78 86.711 29.0506 86.711 29.396C86.711 29.6853 86.7869 29.9221 86.9385 30.1065C87.0902 30.2908 87.327 30.4086 87.649 30.46L86.529 32H87.229L88.3 30.488H89.329V32H89.924ZM89.329 28.815V29.97H88.048C87.7914 29.97 87.6047 29.9186 87.488 29.816C87.3714 29.7133 87.313 29.5733 87.313 29.396C87.313 29.214 87.3702 29.0716 87.4845 28.969C87.5989 28.8663 87.7867 28.815 88.048 28.815H89.329Z" fill="#232323"/>
<path d="M93.13 30.082C93.13 29.7974 93.1732 29.5395 93.2595 29.3085C93.3458 29.0775 93.4695 28.8815 93.6305 28.7205C93.7915 28.5595 93.9863 28.4359 94.215 28.3495C94.4437 28.2632 94.7003 28.22 94.985 28.22C95.517 28.22 95.9335 28.3542 96.2345 28.6225C96.5355 28.8909 96.721 29.2537 96.791 29.711H96.175C96.0583 29.067 95.6617 28.745 94.985 28.745C94.5837 28.745 94.2745 28.8594 94.0575 29.088C93.8405 29.3167 93.732 29.669 93.732 30.145C93.732 30.621 93.8405 30.9734 94.0575 31.202C94.2745 31.4307 94.5837 31.545 94.985 31.545C95.3303 31.545 95.5998 31.4657 95.7935 31.307C95.9872 31.1484 96.1167 30.9057 96.182 30.579H96.798C96.728 31.041 96.5425 31.405 96.2415 31.671C95.9405 31.937 95.5217 32.07 94.985 32.07C94.7003 32.07 94.4437 32.0269 94.215 31.9405C93.9863 31.8542 93.7915 31.7305 93.6305 31.5695C93.4695 31.4085 93.3458 31.2125 93.2595 30.9815C93.1732 30.7505 93.13 30.4927 93.13 30.208V30.082Z" fill="#232323"/>
<path d="M97.316 28.815V28.29H100.753V28.815H99.332V32H98.737V28.815H97.316Z" fill="#232323"/>
<path fill-rule="evenodd" clip-rule="evenodd" d="M102.381 31.9405C102.612 32.0269 102.869 32.07 103.154 32.07C103.443 32.07 103.702 32.0269 103.931 31.9405C104.16 31.8542 104.356 31.7305 104.519 31.5695C104.682 31.4085 104.807 31.2125 104.894 30.9815C104.98 30.7505 105.023 30.4927 105.023 30.208V30.082C105.023 29.7974 104.98 29.5395 104.894 29.3085C104.807 29.0775 104.682 28.8815 104.519 28.7205C104.356 28.5595 104.16 28.4359 103.931 28.3495C103.702 28.2632 103.443 28.22 103.154 28.22C102.869 28.22 102.612 28.2632 102.381 28.3495C102.15 28.4359 101.952 28.5595 101.789 28.7205C101.626 28.8815 101.501 29.0775 101.415 29.3085C101.328 29.5395 101.285 29.7974 101.285 30.082V30.208C101.285 30.4927 101.328 30.7505 101.415 30.9815C101.501 31.2125 101.626 31.4085 101.789 31.5695C101.952 31.7305 102.15 31.8542 102.381 31.9405ZM104.096 31.202C103.879 31.4307 103.565 31.545 103.154 31.545C102.743 31.545 102.43 31.4307 102.213 31.202C101.996 30.9734 101.887 30.621 101.887 30.145C101.887 29.669 101.996 29.3167 102.213 29.088C102.43 28.8594 102.743 28.745 103.154 28.745C103.565 28.745 103.879 28.8594 104.096 29.088C104.313 29.3167 104.421 29.669 104.421 30.145C104.421 30.621 104.313 30.9734 104.096 31.202Z" fill="#232323"/>
<path d="M109.601 28.29H110.378V32H109.783V29.067L108.278 32H108.019L106.514 29.067V32H105.919V28.29H106.696L108.152 31.132L109.601 28.29Z" fill="#232323"/>
<path fill-rule="evenodd" clip-rule="evenodd" d="M114.389 28.6435C114.114 28.3612 113.694 28.22 113.129 28.22C112.863 28.22 112.63 28.2527 112.429 28.318C112.228 28.3834 112.057 28.4744 111.915 28.591C111.772 28.7077 111.66 28.8454 111.579 29.004C111.497 29.1627 111.444 29.3377 111.421 29.529H112.037C112.093 29.2864 112.203 29.095 112.366 28.955C112.529 28.815 112.784 28.745 113.129 28.745C113.451 28.745 113.697 28.8092 113.868 28.9375C114.038 29.0659 114.142 29.284 114.179 29.592L113.206 29.711C112.875 29.753 112.591 29.8172 112.356 29.9035C112.12 29.9899 111.926 30.0937 111.775 30.215C111.623 30.3364 111.512 30.4705 111.442 30.6175C111.372 30.7645 111.337 30.9197 111.337 31.083C111.337 31.2137 111.365 31.3385 111.421 31.4575C111.477 31.5765 111.556 31.6815 111.659 31.7725C111.762 31.8635 111.885 31.9359 112.03 31.9895C112.175 32.0432 112.338 32.07 112.52 32.07C112.949 32.07 113.32 31.9604 113.633 31.741C113.946 31.5217 114.167 31.223 114.298 30.845L114.417 32H114.802V29.977C114.802 29.3704 114.664 28.9259 114.389 28.6435ZM113.287 31.426C113.102 31.5054 112.903 31.545 112.688 31.545C112.436 31.545 112.248 31.4914 112.125 31.384C112.001 31.2767 111.941 31.146 111.946 30.992C111.946 30.8987 111.972 30.8077 112.023 30.719C112.074 30.6304 112.158 30.5475 112.275 30.4705C112.392 30.3935 112.547 30.3247 112.741 30.264C112.934 30.2034 113.173 30.1567 113.458 30.124L114.207 30.033C114.207 30.243 114.169 30.4402 114.092 30.6245C114.015 30.8089 113.907 30.9687 113.77 31.104C113.632 31.2394 113.471 31.3467 113.287 31.426Z" fill="#232323"/>
<path d="M115.502 28.815V28.29H118.939V28.815H117.518V32H116.923V28.815H115.502Z" fill="#232323"/>
<path fill-rule="evenodd" clip-rule="evenodd" d="M120.567 31.9405C120.798 32.0269 121.055 32.07 121.34 32.07C121.629 32.07 121.888 32.0269 122.117 31.9405C122.346 31.8542 122.542 31.7305 122.705 31.5695C122.868 31.4085 122.993 31.2125 123.08 30.9815C123.166 30.7505 123.209 30.4927 123.209 30.208V30.082C123.209 29.7974 123.166 29.5395 123.08 29.3085C122.993 29.0775 122.868 28.8815 122.705 28.7205C122.542 28.5595 122.346 28.4359 122.117 28.3495C121.888 28.2632 121.629 28.22 121.34 28.22C121.055 28.22 120.798 28.2632 120.567 28.3495C120.336 28.4359 120.138 28.5595 119.975 28.7205C119.812 28.8815 119.687 29.0775 119.601 29.3085C119.514 29.5395 119.471 29.7974 119.471 30.082V30.208C119.471 30.4927 119.514 30.7505 119.601 30.9815C119.687 31.2125 119.812 31.4085 119.975 31.5695C120.138 31.7305 120.336 31.8542 120.567 31.9405ZM122.282 31.202C122.065 31.4307 121.751 31.545 121.34 31.545C120.929 31.545 120.616 31.4307 120.399 31.202C120.182 30.9734 120.073 30.621 120.073 30.145C120.073 29.669 120.182 29.3167 120.399 29.088C120.616 28.8594 120.929 28.745 121.34 28.745C121.751 28.745 122.065 28.8594 122.282 29.088C122.499 29.3167 122.607 29.669 122.607 30.145C122.607 30.621 122.499 30.9734 122.282 31.202Z" fill="#232323"/>
<path d="M124.595 28.29H127.549V32H126.954V28.815H125.162L125.085 30.495C125.071 30.7843 125.036 31.0281 124.98 31.2265C124.924 31.4248 124.851 31.5846 124.76 31.706C124.669 31.8273 124.561 31.9136 124.438 31.965C124.314 32.0163 124.177 32.042 124.028 32.042C123.958 32.042 123.895 32.0385 123.839 32.0315C123.783 32.0245 123.727 32.014 123.671 32V31.454C123.704 31.4586 123.743 31.4633 123.79 31.468C123.837 31.4726 123.886 31.475 123.937 31.475C124.021 31.475 124.095 31.461 124.158 31.433C124.221 31.405 124.275 31.3525 124.322 31.2755C124.369 31.1985 124.407 31.0923 124.438 30.957C124.468 30.8216 124.488 30.649 124.497 30.439L124.595 28.29Z" fill="#232323"/>
<path fill-rule="evenodd" clip-rule="evenodd" d="M129.541 31.9405C129.772 32.0269 130.029 32.07 130.314 32.07C130.603 32.07 130.862 32.0269 131.091 31.9405C131.32 31.8542 131.516 31.7305 131.679 31.5695C131.842 31.4085 131.967 31.2125 132.054 30.9815C132.14 30.7505 132.183 30.4927 132.183 30.208V30.082C132.183 29.7974 132.14 29.5395 132.054 29.3085C131.967 29.0775 131.842 28.8815 131.679 28.7205C131.516 28.5595 131.32 28.4359 131.091 28.3495C130.862 28.2632 130.603 28.22 130.314 28.22C130.029 28.22 129.772 28.2632 129.541 28.3495C129.31 28.4359 129.112 28.5595 128.949 28.7205C128.786 28.8815 128.661 29.0775 128.575 29.3085C128.488 29.5395 128.445 29.7974 128.445 30.082V30.208C128.445 30.4927 128.488 30.7505 128.575 30.9815C128.661 31.2125 128.786 31.4085 128.949 31.5695C129.112 31.7305 129.31 31.8542 129.541 31.9405ZM131.256 31.202C131.039 31.4307 130.725 31.545 130.314 31.545C129.903 31.545 129.59 31.4307 129.373 31.202C129.156 30.9734 129.047 30.621 129.047 30.145C129.047 29.669 129.156 29.3167 129.373 29.088C129.59 28.8594 129.903 28.745 130.314 28.745C130.725 28.745 131.039 28.8594 131.256 29.088C131.473 29.3167 131.581 29.669 131.581 30.145C131.581 30.621 131.473 30.9734 131.256 31.202Z" fill="#232323"/>
<path d="M133.079 32V28.29H135.613V28.815H133.674V32H133.079Z" fill="#232323"/>
<path d="M139.225 28.29H139.792V32H139.197V29.144L136.894 32H136.327V28.29H136.922V31.139L139.225 28.29Z" fill="#232323"/>
<path d="M143.838 28.29H144.405V32H143.81V29.144L141.507 32H140.94V28.29H141.535V31.139L143.838 28.29Z" fill="#232323"/>
<path d="M150.761 28.29H151.328V32H150.733V29.144L148.43 32H147.863V28.29H148.458V31.139L150.761 28.29Z" fill="#232323"/>
<path d="M158.468 28.29H159.245V32H158.65V29.067L157.145 32H156.886L155.381 29.067V32H154.786V28.29H155.563L157.019 31.132L158.468 28.29Z" fill="#232323"/>
<path fill-rule="evenodd" clip-rule="evenodd" d="M163.802 30.152C163.807 30.1007 163.809 30.0354 163.809 29.956C163.809 29.6947 163.767 29.4579 163.683 29.2455C163.599 29.0332 163.48 28.8512 163.326 28.6995C163.172 28.5479 162.984 28.43 162.763 28.346C162.541 28.262 162.292 28.22 162.017 28.22C161.728 28.22 161.468 28.2632 161.237 28.3495C161.006 28.4359 160.808 28.5595 160.645 28.7205C160.482 28.8815 160.357 29.0775 160.271 29.3085C160.184 29.5395 160.141 29.7974 160.141 30.082V30.208C160.141 30.4927 160.184 30.7505 160.271 30.9815C160.357 31.2125 160.481 31.4085 160.642 31.5695C160.803 31.7305 160.997 31.8542 161.226 31.9405C161.455 32.0269 161.711 32.07 161.996 32.07C162.271 32.07 162.511 32.035 162.714 31.965C162.917 31.895 163.088 31.8029 163.228 31.6885C163.368 31.5742 163.48 31.4412 163.564 31.2895C163.648 31.1379 163.706 30.978 163.739 30.81H163.13C163.097 30.908 163.053 31.0025 162.997 31.0935C162.941 31.1845 162.87 31.2627 162.784 31.328C162.697 31.3934 162.591 31.4459 162.465 31.4855C162.339 31.5252 162.187 31.545 162.01 31.545C161.632 31.545 161.336 31.4459 161.121 31.2475C160.906 31.0492 160.783 30.74 160.75 30.32H163.781C163.79 30.2594 163.797 30.2034 163.802 30.152ZM161.142 29.018C161.357 28.836 161.648 28.745 162.017 28.745C162.376 28.745 162.658 28.8372 162.861 29.0215C163.064 29.2059 163.179 29.48 163.207 29.844H160.757C160.799 29.4754 160.927 29.2 161.142 29.018Z" fill="#232323"/>
<path fill-rule="evenodd" clip-rule="evenodd" d="M168.765 31.475H168.093V28.29H165.167L165.069 30.271C165.06 30.4576 165.047 30.6175 165.03 30.7505C165.014 30.8835 164.995 30.9966 164.974 31.09C164.953 31.1833 164.929 31.2603 164.901 31.321C164.873 31.3816 164.84 31.433 164.803 31.475H164.271V33.057H164.866V32H168.17V33.057H168.765V31.475ZM167.498 28.815V31.475H165.44C165.496 31.377 165.543 31.237 165.58 31.055C165.617 30.873 165.643 30.6303 165.657 30.327L165.734 28.815H167.498Z" fill="#232323"/>
<path d="M172.391 28.29H172.958V32H172.363V29.144L170.06 32H169.493V28.29H170.088V31.139L172.391 28.29Z" fill="#232323"/>
<path d="M177.452 31.475H178.124V33.057H177.529V32H174.106V28.29H174.701V31.475H176.857V28.29H177.452V31.475Z" fill="#232323"/>
<path d="M181.75 28.29H182.317V32H181.722V29.144L179.419 32H178.852V28.29H179.447V31.139L181.75 28.29Z" fill="#232323"/>
<path d="M186.286 28.29H186.881V32H186.286V30.404H184.06V32H183.465V28.29H184.06V29.879H186.286V28.29Z" fill="#232323"/>
<path fill-rule="evenodd" clip-rule="evenodd" d="M189.877 29.879C190.353 29.879 190.7 29.9758 190.917 30.1695C191.134 30.3631 191.242 30.621 191.242 30.943C191.242 31.265 191.134 31.5216 190.917 31.713C190.7 31.9043 190.353 32 189.877 32H188.029V28.29H188.624V29.879H189.877ZM191.809 28.29H192.404V32H191.809V28.29ZM190.465 31.328C190.348 31.426 190.152 31.475 189.877 31.475H188.624V30.397H189.877C190.152 30.397 190.348 30.446 190.465 30.544C190.582 30.642 190.64 30.7726 190.64 30.936C190.64 31.0993 190.582 31.23 190.465 31.328Z" fill="#232323"/>
</svg>
