<svg width="24" height="18" viewBox="0 0 24 18" fill="none" xmlns="http://www.w3.org/2000/svg">
<path d="M15.759 2H1.24099C0.831419 2 0.5 1.55273 0.5 1C0.5 0.447266 0.831419 0 1.24099 0H15.759C16.1686 0 16.5 0.447266 16.5 1C16.5 1.55273 16.1686 2 15.759 2Z" fill="#0085CF"/>
<path d="M8.70743 6H1.29257C0.854489 6 0.5 5.55273 0.5 5C0.5 4.44727 0.854489 4 1.29257 4H8.70743C9.14551 4 9.5 4.44727 9.5 5C9.5 5.55273 9.14551 6 8.70743 6Z" fill="#0085CF"/>
<path d="M8.70743 10H1.29257C0.854489 10 0.5 9.55273 0.5 9C0.5 8.44727 0.854489 8 1.29257 8H8.70743C9.14551 8 9.5 8.44727 9.5 9C9.5 9.55273 9.14551 10 8.70743 10Z" fill="#0085CF"/>
<path d="M8.70743 14H1.29257C0.854489 14 0.5 13.5527 0.5 13C0.5 12.4473 0.854489 12 1.29257 12H8.70743C9.14551 12 9.5 12.4473 9.5 13C9.5 13.5527 9.14551 14 8.70743 14Z" fill="#0085CF"/>
<path d="M15.7852 18H1.21477C0.819693 18 0.5 17.5527 0.5 17C0.5 16.4473 0.819693 16 1.21477 16H15.7852C16.1803 16 16.5 16.4473 16.5 17C16.5 17.5527 16.1803 18 15.7852 18Z" fill="#0085CF"/>
<path d="M22.7335 16C22.5371 16 22.3407 15.925 22.1907 15.7751L19.2796 12.864C18.9797 12.5641 18.9797 12.0783 19.2796 11.7784C19.5795 11.4785 20.0653 11.4785 20.3652 11.7784L23.2763 14.6895C23.5762 14.9894 23.5762 15.4752 23.2763 15.7751C23.1264 15.925 22.9299 16 22.7335 16Z" fill="#0085CF"/>
<path fill-rule="evenodd" clip-rule="evenodd" d="M12.1928 12.864C13.3189 13.99 14.7981 14.5538 16.278 14.5531C17.7572 14.5531 19.2371 13.99 20.364 12.864C21.4555 11.7724 22.0568 10.3217 22.0568 8.77803C22.0568 7.23437 21.4555 5.78368 20.364 4.69285C19.2724 3.60127 17.8217 3 16.278 3C14.7344 3 13.2837 3.60127 12.1928 4.69285C11.1013 5.78368 10.5 7.23437 10.5 8.77803C10.5 10.3217 11.1013 11.7724 12.1928 12.864ZM13.2782 5.77842C14.0796 4.97698 15.145 4.5354 16.2778 4.5354C17.4113 4.5354 18.4767 4.97698 19.2781 5.77842C20.0796 6.57986 20.5211 7.6452 20.5211 8.77802C20.5211 9.91158 20.0796 10.9769 19.2781 11.7784C17.6228 13.4322 14.932 13.4322 13.2782 11.7784C12.4767 10.9769 12.0352 9.91158 12.0352 8.77802C12.0352 7.6452 12.4767 6.57986 13.2782 5.77842Z" fill="#0085CF"/>
</svg>
