<svg width="40" height="40" viewBox="0 0 40 40" fill="none" xmlns="http://www.w3.org/2000/svg">
<rect x="1" y="1" width="38" height="38" rx="5" stroke="#CBCBCB" stroke-width="2"/>
<path d="M20.9495 19.9999L26.8033 14.1462C27.0656 13.884 27.0656 13.4589 26.8033 13.1967C26.5411 12.9344 26.116 12.9344 25.8538 13.1967L20 19.0504L14.1462 13.1976C13.884 12.9353 13.4589 12.9353 13.1967 13.1976C12.9344 13.4598 12.9344 13.8849 13.1967 14.1471L19.0505 20.0008L13.1976 25.8536C12.9353 26.1158 12.9353 26.5409 13.1976 26.8031C13.3291 26.9338 13.5 27 13.6719 27C13.8437 27 14.0155 26.9347 14.1462 26.8031L20 20.9494L25.8538 26.8031C25.9854 26.9338 26.1563 27 26.3281 27C26.5 27 26.6718 26.9347 26.8024 26.8031C27.0647 26.5409 27.0647 26.1158 26.8024 25.8536L20.9495 19.9999Z" fill="#A8A8A8"/>
</svg>
