<svg width="12" height="12" viewBox="0 0 12 12" fill="none" xmlns="http://www.w3.org/2000/svg">
<g opacity="0.6">
<path fill-rule="evenodd" clip-rule="evenodd" d="M0 6C0 9.30844 2.69156 12 6 12C9.30844 12 12 9.30844 12 6C12 2.69156 9.30844 0 6 0C2.69156 0 0 2.69156 0 6ZM0.857117 6C0.857117 3.16425 3.16425 0.857117 6 0.857117C8.83575 0.857117 11.1429 3.16425 11.1429 6C11.1429 8.83575 8.83575 11.1429 6 11.1429C3.16425 11.1429 0.857117 8.83575 0.857117 6Z" fill="white"/>
<path d="M8.14301 8.57141C8.03333 8.57141 7.92365 8.52958 7.83997 8.4458L3.5543 4.16013C3.38685 3.99268 3.38685 3.7215 3.5543 3.55414C3.72166 3.38678 3.99293 3.38669 4.16029 3.55414L8.44596 7.83982C8.61341 8.00727 8.61341 8.27845 8.44596 8.4458C8.36228 8.52958 8.25269 8.57141 8.14301 8.57141Z" fill="white"/>
<path d="M3.85725 8.57145C3.74757 8.57145 3.63798 8.52961 3.5543 8.44584C3.38685 8.27848 3.38685 8.00721 3.5543 7.83985L7.83997 3.55418C8.00742 3.38673 8.2786 3.38673 8.44596 3.55418C8.61332 3.72153 8.61341 3.99281 8.44596 4.16016L4.16029 8.44584C4.07661 8.52961 3.96693 8.57145 3.85725 8.57145Z" fill="white"/>
</g>
</svg>
