<svg width="19" height="18" viewBox="0 0 19 18" fill="none" xmlns="http://www.w3.org/2000/svg">
<g opacity="0.2">
<path fill-rule="evenodd" clip-rule="evenodd" d="M0.5 9C0.5 13.9627 4.53734 18 9.5 18C14.4627 18 18.5 13.9627 18.5 9C18.5 4.03734 14.4627 0 9.5 0C4.53734 0 0.5 4.03734 0.5 9ZM1.78613 8.99997C1.78613 4.74634 5.24683 1.28564 9.50046 1.28564C13.7541 1.28564 17.2148 4.74634 17.2148 8.99997C17.2148 13.2536 13.7541 16.7143 9.50046 16.7143C5.24683 16.7143 1.78613 13.2536 1.78613 8.99997Z" fill="black"/>
<path d="M12.9776 13.0909C12.8205 13.0909 12.6635 13.031 12.5437 12.9111L6.40736 6.77473C6.1676 6.53498 6.1676 6.14669 6.40736 5.90707C6.64699 5.66744 7.0354 5.66731 7.27503 5.90707L13.4114 12.0434C13.6511 12.2832 13.6511 12.6715 13.4114 12.9111C13.2915 13.031 13.1346 13.0909 12.9776 13.0909Z" fill="black"/>
<path d="M6.02277 13.0909C5.86573 13.0909 5.70881 13.031 5.589 12.9111C5.34924 12.6715 5.34924 12.283 5.589 12.0434L11.7254 5.90711C11.9651 5.66736 12.3534 5.66736 12.593 5.90711C12.8327 6.14674 12.8328 6.53515 12.593 6.77478L6.45667 12.9111C6.33686 13.031 6.17981 13.0909 6.02277 13.0909Z" fill="black"/>
</g>
</svg>
